<svg width="24" height="24" viewBox="0 0 24 24" fill="none" xmlns="http://www.w3.org/2000/svg">
<path fill-rule="evenodd" clip-rule="evenodd" d="M1.99988 16.0801V7.91009C1.99988 4.38009 4.27088 2.00009 7.65988 2.00009H16.3299C19.7199 2.00009 21.9999 4.38009 21.9999 7.91009V16.0801C21.9999 19.6201 19.7199 22.0001 16.3299 22.0001H7.65988C4.27088 22.0001 1.99988 19.6201 1.99988 16.0801ZM12.7499 14.2701V7.92009C12.7499 7.50009 12.4099 7.17009 11.9999 7.17009C11.5799 7.17009 11.2499 7.50009 11.2499 7.92009V14.2701L8.77988 11.7901C8.63988 11.6501 8.43988 11.5701 8.24988 11.5701C8.06088 11.5701 7.86988 11.6501 7.71988 11.7901C7.42988 12.0801 7.42988 12.5601 7.71988 12.8501L11.4699 16.6201C11.7499 16.9001 12.2499 16.9001 12.5299 16.6201L16.2799 12.8501C16.5699 12.5601 16.5699 12.0801 16.2799 11.7901C15.9799 11.5001 15.5099 11.5001 15.2099 11.7901L12.7499 14.2701Z" fill="#200E32"/>
</svg>
