<svg width="24" height="24" viewBox="0 0 24 24" fill="none" xmlns="http://www.w3.org/2000/svg">
<path fill-rule="evenodd" clip-rule="evenodd" d="M9.82697 10.8014L7.14087 13.5558C5.3964 11.5739 3.95919 9.52074 3.27527 7.80304C2.56162 6.19713 2.55171 4.86566 3.26536 3.86959C3.54289 3.40205 5.15851 1.44041 6.59573 1.50139C6.98229 1.53188 7.35893 1.73516 7.71576 2.10106C8.27082 2.66008 9.83688 4.68271 9.95582 5.27221C10.0916 5.92839 9.81001 6.4387 9.55645 6.89825L9.53953 6.92894C9.48601 7.02244 9.41466 7.13341 9.33625 7.25536C9.02255 7.74323 8.59592 8.40676 8.74658 8.8296C9.02411 9.51058 9.39085 10.1712 9.82697 10.8014ZM21.9491 17.0725C21.9987 18.5869 19.9965 20.3046 19.6297 20.518C19.1441 20.8738 18.5791 21.0567 17.9447 21.0567C17.3005 21.0567 16.5769 20.8738 15.7939 20.4977C13.9404 19.7049 11.6509 18.0178 9.51991 16.0156L3.44417 22.2459C3.27567 22.4085 3.06752 22.5 2.84946 22.5C2.6314 22.5 2.42326 22.4085 2.24484 22.2459C1.96731 21.9511 1.92767 21.5141 2.11599 21.1889L2.14573 21.1482C2.16555 21.1167 2.18537 21.0872 2.21511 21.0567L20.1753 2.62949C20.324 2.46686 20.542 2.36421 20.77 2.36421C20.998 2.36421 21.216 2.46686 21.3746 2.62949C21.7017 2.97506 21.7017 3.51375 21.3746 3.85932V3.86949L11.9584 13.5151L10.5858 14.9226L12.186 13.2823C13.0087 13.9318 13.9007 14.4705 14.8126 14.8476C15.2102 14.9987 15.8346 14.5782 16.3098 14.2583C16.4388 14.1715 16.5567 14.092 16.6562 14.0334L16.6864 14.0159C17.1345 13.7559 17.6319 13.4674 18.2619 13.6065C18.8467 13.7285 20.8192 15.3649 21.3643 15.9341C21.7211 16.3102 21.9094 16.6964 21.9491 17.0725Z" fill="#200E32"/>
</svg>
