<svg width="24" height="24" viewBox="0 0 24 24" fill="none" xmlns="http://www.w3.org/2000/svg">
<path fill-rule="evenodd" clip-rule="evenodd" d="M2.00012 11.9993C2.00012 6.4803 6.48012 1.9993 12.0001 1.9993C17.5301 1.9993 22.0001 6.4803 22.0001 11.9993C22.0001 17.5203 17.5301 21.9993 12.0001 21.9993C6.48012 21.9993 2.00012 17.5203 2.00012 11.9993ZM11.1201 8.2093C11.1201 7.7303 11.5201 7.3293 12.0001 7.3293C12.4801 7.3293 12.8701 7.7303 12.8701 8.2093V12.6293C12.8701 13.1103 12.4801 13.4993 12.0001 13.4993C11.5201 13.4993 11.1201 13.1103 11.1201 12.6293V8.2093ZM12.0101 16.6803C11.5201 16.6803 11.1301 16.2803 11.1301 15.8003C11.1301 15.3203 11.5201 14.9303 12.0001 14.9303C12.4901 14.9303 12.8801 15.3203 12.8801 15.8003C12.8801 16.2803 12.4901 16.6803 12.0101 16.6803Z" fill="#200E32"/>
</svg>
