<svg width="24" height="24" viewBox="0 0 24 24" fill="none" xmlns="http://www.w3.org/2000/svg">
<path fill-rule="evenodd" clip-rule="evenodd" d="M7.67018 1.99991H16.3402C19.7302 1.99991 22.0002 4.37991 22.0002 7.91991V16.0899C22.0002 19.6199 19.7302 21.9999 16.3402 21.9999H7.67018C4.28018 21.9999 2.00018 19.6199 2.00018 16.0899V7.91991C2.00018 4.37991 4.28018 1.99991 7.67018 1.99991ZM7.52018 13.1999C6.86018 13.1999 6.32018 12.6599 6.32018 11.9999C6.32018 11.3399 6.86018 10.8009 7.52018 10.8009C8.18018 10.8009 8.72018 11.3399 8.72018 11.9999C8.72018 12.6599 8.18018 13.1999 7.52018 13.1999ZM10.8002 11.9999C10.8002 12.6599 11.3402 13.1999 12.0002 13.1999C12.6602 13.1999 13.2002 12.6599 13.2002 11.9999C13.2002 11.3399 12.6602 10.8009 12.0002 10.8009C11.3402 10.8009 10.8002 11.3399 10.8002 11.9999ZM15.2802 11.9999C15.2802 12.6599 15.8202 13.1999 16.4802 13.1999C17.1402 13.1999 17.6702 12.6599 17.6702 11.9999C17.6702 11.3399 17.1402 10.8009 16.4802 10.8009C15.8202 10.8009 15.2802 11.3399 15.2802 11.9999Z" fill="#200E32"/>
</svg>
