<svg xmlns="http://www.w3.org/2000/svg" width="122.963" height="122.963" viewBox="0 0 122.963 122.963">
  <g id="Group_15" data-name="Group 15" transform="translate(958.982 1355.981)">
    <path id="Path_49" data-name="Path 49" d="M58.5,117a58.227,58.227,0,0,1-32.708-9.991A58.67,58.67,0,0,1,4.6,81.271,58.424,58.424,0,0,1,9.991,25.792,58.67,58.67,0,0,1,35.729,4.6,58.424,58.424,0,0,1,91.208,9.991,58.67,58.67,0,0,1,112.4,35.729a58.424,58.424,0,0,1-5.394,55.479A58.67,58.67,0,0,1,81.271,112.4,58.135,58.135,0,0,1,58.5,117Zm0-91a32.4,32.4,0,1,0,12.651,2.554A32.3,32.3,0,0,0,58.5,26Z" transform="translate(-958.982 -1349.858) rotate(-3)" fill="#f66f73"/>
    <path id="Path_48" data-name="Path 48" d="M129.6,188.271a58.422,58.422,0,0,1,5.394-55.479A58.673,58.673,0,0,1,160.729,111.6a58.768,58.768,0,0,1,40.887-1.74,100.513,100.513,0,0,1-5.654,25.618,32.5,32.5,0,0,0-38.6,49.348,100.679,100.679,0,0,1-23.468,11.7A58.433,58.433,0,0,1,129.6,188.271Z" transform="translate(-1089.41 -1450.17) rotate(-3)" fill="#f9bb37"/>
  </g>
</svg>
