<?xml version="1.0" standalone="no"?>
<!DOCTYPE svg PUBLIC "-//W3C//DTD SVG 20010904//EN"
 "http://www.w3.org/TR/2001/REC-SVG-20010904/DTD/svg10.dtd">
<svg version="1.0" xmlns="http://www.w3.org/2000/svg"
 width="700.000000pt" height="700.000000pt" viewBox="0 0 700.000000 700.000000"
 preserveAspectRatio="xMidYMid meet">
<metadata>
Created by potrace 1.11, written by Peter Selinger 2001-2013
</metadata>
<g transform="translate(0.000000,700.000000) scale(0.100000,-0.100000)"
fill="#000000" stroke="none">
<path d="M3270 6827 c-3 -3 -45 -8 -95 -11 -274 -21 -648 -113 -936 -231 -890
-364 -1588 -1107 -1898 -2022 -54 -161 -112 -401 -137 -568 -4 -27 -8 -52 -9
-55 -1 -3 -5 -45 -9 -95 -4 -49 -10 -101 -12 -115 -6 -34 -5 -425 0 -475 3
-22 7 -62 10 -90 3 -27 8 -75 12 -105 9 -82 51 -290 84 -416 72 -272 188 -554
323 -789 41 -72 153 -249 174 -275 6 -8 46 -60 89 -115 177 -229 425 -475 635
-628 316 -230 613 -385 964 -502 99 -33 293 -85 370 -100 76 -14 215 -35 265
-40 30 -4 66 -9 80 -12 42 -9 510 -11 590 -3 41 5 104 11 140 14 36 4 72 9 80
11 8 2 35 7 60 11 25 3 50 7 55 8 6 2 28 6 50 10 308 59 683 198 970 359 68
38 274 170 305 194 8 7 44 34 80 60 213 157 427 368 603 593 153 195 240 329
345 531 110 214 226 517 268 702 2 9 6 25 9 35 13 52 54 255 60 302 4 30 9 64
11 75 26 151 26 671 -2 835 -2 14 -6 45 -9 70 -3 25 -10 68 -16 96 -5 28 -12
64 -15 80 -19 107 -109 420 -143 499 -5 11 -21 52 -36 90 -206 521 -581 1015
-1041 1373 -96 74 -291 210 -324 225 -8 4 -37 20 -65 37 -51 30 -273 142 -355
178 -247 108 -630 211 -890 238 -25 3 -56 8 -70 11 -31 6 -564 16 -570 10z
m460 -1491 c556 -82 997 -354 1304 -804 161 -237 260 -508 303 -835 9 -65 9
-315 0 -387 -28 -227 -80 -404 -178 -608 -50 -103 -165 -294 -188 -312 -3 -3
-19 -23 -36 -45 -29 -40 -194 -208 -250 -255 -120 -101 -302 -212 -450 -274
-50 -21 -99 -41 -110 -46 -24 -10 -114 -39 -141 -45 -10 -2 -59 -13 -109 -24
-129 -28 -182 -33 -350 -36 -175 -2 -279 8 -425 42 -36 8 -72 16 -80 18 -149
32 -492 198 -615 297 -199 161 -286 251 -412 427 -109 150 -237 421 -269 566
-1 6 -9 37 -17 70 -41 162 -60 421 -42 580 13 111 22 179 31 215 3 14 10 43
14 65 37 169 136 397 246 566 295 455 789 760 1340 827 77 10 364 8 434 -2z"/>
</g>
</svg>
