<svg width="24" height="24" viewBox="0 0 24 24" fill="none" xmlns="http://www.w3.org/2000/svg">
<path fill-rule="evenodd" clip-rule="evenodd" d="M7.48626 21.5H15.8341C18.9004 21.5 21.2528 20.3924 20.5847 15.9348L19.8066 9.89357C19.3947 7.66931 17.976 6.81805 16.7311 6.81805H6.55262C5.28946 6.81805 3.95308 7.73339 3.4771 9.89357L2.69907 15.9348C2.13157 19.889 4.4199 21.5 7.48626 21.5Z" stroke="#200E32" stroke-width="1.5" stroke-linecap="round" stroke-linejoin="round"/>
<path d="M7.34896 6.59839C7.34896 4.21232 9.28325 2.27802 11.6693 2.27802V2.27802C12.8183 2.27315 13.9219 2.72618 14.7361 3.53694C15.5503 4.34769 16.008 5.44938 16.008 6.59839V6.59839" stroke="#200E32" stroke-width="1.5" stroke-linecap="round" stroke-linejoin="round"/>
<path d="M8.70365 11.1018H8.74942" stroke="#200E32" stroke-width="1.5" stroke-linecap="round" stroke-linejoin="round"/>
<path d="M14.5343 11.1018H14.5801" stroke="#200E32" stroke-width="1.5" stroke-linecap="round" stroke-linejoin="round"/>
</svg>
