<svg width="24" height="24" viewBox="0 0 24 24" fill="none" xmlns="http://www.w3.org/2000/svg">
<path fill-rule="evenodd" clip-rule="evenodd" d="M16.2855 2H19.5521C20.9036 2 22 3.1059 22 4.47018V7.7641C22 9.12735 20.9036 10.2343 19.5521 10.2343H16.2855C14.933 10.2343 13.8366 9.12735 13.8366 7.7641V4.47018C13.8366 3.1059 14.933 2 16.2855 2Z" stroke="#200E32" stroke-width="1.5" stroke-linecap="round" stroke-linejoin="round"/>
<path fill-rule="evenodd" clip-rule="evenodd" d="M4.44892 2H7.71449C9.06703 2 10.1634 3.1059 10.1634 4.47018V7.7641C10.1634 9.12735 9.06703 10.2343 7.71449 10.2343H4.44892C3.09638 10.2343 2 9.12735 2 7.7641V4.47018C2 3.1059 3.09638 2 4.44892 2Z" stroke="#200E32" stroke-width="1.5" stroke-linecap="round" stroke-linejoin="round"/>
<path fill-rule="evenodd" clip-rule="evenodd" d="M4.44892 13.7657H7.71449C9.06703 13.7657 10.1634 14.8716 10.1634 16.2369V19.5298C10.1634 20.8941 9.06703 22 7.71449 22H4.44892C3.09638 22 2 20.8941 2 19.5298V16.2369C2 14.8716 3.09638 13.7657 4.44892 13.7657Z" stroke="#200E32" stroke-width="1.5" stroke-linecap="round" stroke-linejoin="round"/>
<path fill-rule="evenodd" clip-rule="evenodd" d="M16.2855 13.7657H19.5521C20.9036 13.7657 22 14.8716 22 16.2369V19.5298C22 20.8941 20.9036 22 19.5521 22H16.2855C14.933 22 13.8366 20.8941 13.8366 19.5298V16.2369C13.8366 14.8716 14.933 13.7657 16.2855 13.7657Z" stroke="#200E32" stroke-width="1.5" stroke-linecap="round" stroke-linejoin="round"/>
</svg>
