<svg width="24" height="24" viewBox="0 0 24 24" fill="none" xmlns="http://www.w3.org/2000/svg">
<path d="M4.79432 7.05581C4.79432 5.80681 5.80732 4.79381 7.05532 4.79381H8.08432C8.68032 4.79381 9.25332 4.55781 9.67732 4.13681L10.3963 3.41681C11.2773 2.53181 12.7093 2.52781 13.5943 3.40881L13.6033 3.41681L14.3233 4.13681C14.7463 4.55781 15.3193 4.79381 15.9163 4.79381H16.9443C18.1933 4.79381 19.2063 5.80681 19.2063 7.05581V8.08281C19.2063 8.68081 19.4423 9.25281 19.8633 9.67681L20.5833 10.3968C21.4683 11.2778 21.4733 12.7088 20.5923 13.5948L20.5833 13.6038L19.8633 14.3238C19.4423 14.7458 19.2063 15.3198 19.2063 15.9158V16.9448C19.2063 18.1938 18.1933 19.2058 16.9443 19.2058H15.9163C15.3193 19.2058 14.7463 19.4428 14.3233 19.8638L13.6033 20.5828C12.7233 21.4688 11.2913 21.4728 10.4053 20.5918C10.4023 20.5888 10.3993 20.5858 10.3963 20.5828L9.67732 19.8638C9.25332 19.4428 8.68032 19.2058 8.08432 19.2058H7.05532C5.80732 19.2058 4.79432 18.1938 4.79432 16.9448V15.9158C4.79432 15.3198 4.55732 14.7458 4.13632 14.3238L3.41732 13.6038C2.53132 12.7228 2.52732 11.2908 3.40832 10.4058L3.41732 10.3968L4.13632 9.67681C4.55732 9.25281 4.79432 8.68081 4.79432 8.08281V7.05581" stroke="#200E32" stroke-width="1.5" stroke-linecap="round" stroke-linejoin="round"/>
<path d="M9.42999 14.5695L14.57 9.4295" stroke="#200E32" stroke-width="1.5" stroke-linecap="round" stroke-linejoin="round"/>
<path d="M14.5667 15.3224C14.3667 15.3224 14.1767 15.2424 14.0367 15.1024C13.9667 15.0324 13.9167 14.9424 13.8767 14.8524C13.8367 14.7624 13.8167 14.6734 13.8167 14.5724C13.8167 14.4724 13.8367 14.3724 13.8767 14.2824C13.9167 14.1924 13.9667 14.1124 14.0367 14.0424C14.3167 13.7624 14.8167 13.7624 15.0967 14.0424C15.1667 14.1124 15.2267 14.1924 15.2667 14.2824C15.2967 14.3724 15.3167 14.4724 15.3167 14.5724C15.3167 14.6734 15.2967 14.7624 15.2667 14.8524C15.2267 14.9424 15.1667 15.0324 15.0967 15.1024C14.9567 15.2424 14.7667 15.3224 14.5667 15.3224Z" fill="#200E32"/>
<path d="M9.42664 10.1828C9.32664 10.1828 9.23664 10.1618 9.14664 10.1218C9.05664 10.0818 8.96664 10.0328 8.89664 9.9628C8.82664 9.8828 8.77664 9.8028 8.73664 9.7128C8.69664 9.6218 8.67664 9.5328 8.67664 9.4328C8.67664 9.3318 8.69664 9.2328 8.73664 9.1428C8.77664 9.0528 8.82664 8.9628 8.89664 8.9028C9.18664 8.6218 9.67664 8.6218 9.95664 8.9028C10.0966 9.0418 10.1766 9.2328 10.1766 9.4328C10.1766 9.5328 10.1666 9.6218 10.1266 9.7128C10.0866 9.8028 10.0266 9.8828 9.95664 9.9628C9.88664 10.0328 9.80664 10.0818 9.71664 10.1218C9.62664 10.1618 9.52664 10.1828 9.42664 10.1828Z" fill="#200E32"/>
</svg>
