<svg width="24" height="24" viewBox="0 0 24 24" fill="none" xmlns="http://www.w3.org/2000/svg">
<path d="M8.84825 12.314V16.059" stroke="#200E32" stroke-width="1.5" stroke-linecap="round" stroke-linejoin="round"/>
<path d="M10.759 14.1867H6.9379" stroke="#200E32" stroke-width="1.5" stroke-linecap="round" stroke-linejoin="round"/>
<path d="M15.3661 12.428H15.2591" stroke="#200E32" stroke-width="1.5" stroke-linecap="round" stroke-linejoin="round"/>
<path d="M17.1796 16.0026H17.0726" stroke="#200E32" stroke-width="1.5" stroke-linecap="round" stroke-linejoin="round"/>
<path d="M8.07217 2C8.07217 2.74048 8.68466 3.34076 9.44019 3.34076H10.4967C11.6623 3.34492 12.6065 4.27026 12.6118 5.41266V6.08771" stroke="#200E32" stroke-width="1.5" stroke-linecap="round" stroke-linejoin="round"/>
<path fill-rule="evenodd" clip-rule="evenodd" d="M16.4283 21.9626C13.4231 22.0135 10.473 22.0114 7.57275 21.9626C4.3535 21.9626 2 19.6664 2 16.5113V11.8617C2 8.70661 4.3535 6.41038 7.57275 6.41038C10.4889 6.36053 13.4411 6.36157 16.4283 6.41038C19.6476 6.41038 22 8.70764 22 11.8617V16.5113C22 19.6664 19.6476 21.9626 16.4283 21.9626Z" stroke="#200E32" stroke-width="1.5" stroke-linecap="round" stroke-linejoin="round"/>
</svg>
