<svg width="24" height="24" viewBox="0 0 24 24" fill="none" xmlns="http://www.w3.org/2000/svg">
<path d="M16.0201 10.9134C17.8411 10.9134 19.3171 9.4374 19.3171 7.6164C19.3171 5.7964 17.8411 4.3194 16.0201 4.3194" stroke="#200E32" stroke-width="1.5" stroke-linecap="round" stroke-linejoin="round"/>
<path d="M17.5363 14.4964C18.0803 14.5334 18.6203 14.6114 19.1533 14.7294C19.8923 14.8764 20.7823 15.1794 21.0983 15.8424C21.3003 16.2674 21.3003 16.7624 21.0983 17.1874C20.7833 17.8504 19.8923 18.1534 19.1533 18.3054" stroke="#200E32" stroke-width="1.5" stroke-linecap="round" stroke-linejoin="round"/>
<path fill-rule="evenodd" clip-rule="evenodd" d="M9.59143 15.2063C13.2814 15.2063 16.4334 15.7653 16.4334 17.9983C16.4334 20.2323 13.3014 20.8103 9.59143 20.8103C5.90143 20.8103 2.75043 20.2523 2.75043 18.0183C2.75043 15.7843 5.88143 15.2063 9.59143 15.2063Z" stroke="#200E32" stroke-width="1.5" stroke-linecap="round" stroke-linejoin="round"/>
<path fill-rule="evenodd" clip-rule="evenodd" d="M9.5914 12.0188C7.1574 12.0188 5.2074 10.0678 5.2074 7.63379C5.2074 5.20079 7.1574 3.24979 9.5914 3.24979C12.0254 3.24979 13.9764 5.20079 13.9764 7.63379C13.9764 10.0678 12.0254 12.0188 9.5914 12.0188Z" stroke="#200E32" stroke-width="1.5" stroke-linecap="round" stroke-linejoin="round"/>
</svg>
