<svg width="24" height="24" viewBox="0 0 24 24" fill="none" xmlns="http://www.w3.org/2000/svg">
<path fill-rule="evenodd" clip-rule="evenodd" d="M12.4714 17.1419C12.3999 17.7277 12.3789 18.3042 12.219 18.9005C11.9644 19.7505 11.2986 20.2704 10.5802 20.2494C10.2394 20.2578 9.75977 20.0503 9.43685 19.7788L5.6702 16.7195H3.57178C2.5599 16.7195 1.87831 16.0299 1.74052 14.8938C1.54382 13.4956 1.56276 10.9698 1.74052 9.54336C1.87831 8.55817 2.5599 7.78156 3.57178 7.78156H5.6702L9.35901 4.77464C9.68193 4.5011 10.2394 4.24327 10.5802 4.25061C11.2986 4.22965 11.9644 4.75054 12.219 5.59948C12.361 6.14237 12.3999 6.77331 12.4714 7.35918C12.6429 8.72901 12.6429 15.772 12.4714 17.1419Z" stroke="#200E32" stroke-width="1.5" stroke-linecap="round" stroke-linejoin="round"/>
<path d="M16.4434 7.06049C17.3514 8.36649 17.8964 10.1185 17.8964 12.0685C17.8964 14.0185 17.3514 15.7695 16.4434 17.0755" stroke="#200E32" stroke-width="1.5" stroke-linecap="round" stroke-linejoin="round"/>
<path d="M19.8745 4C21.3375 6.104 22.2155 8.926 22.2155 12.068C22.2155 15.21 21.3375 18.033 19.8745 20.137" stroke="#200E32" stroke-width="1.5" stroke-linecap="round" stroke-linejoin="round"/>
</svg>
