<svg id="Iconly_Curved_Buy" data-name="Iconly/Curved/Buy" xmlns="http://www.w3.org/2000/svg" width="24" height="24" viewBox="0 0 24 24">
  <g id="Buy" transform="translate(3.65 2.85)">
    <path id="Stroke_1" data-name="Stroke 1" d="M2.044,3.58c9.848-1.337,12.187-.6,13.717,1.14s1.261,6.917-.528,8.516-9.553,1.751-12.013,0C.621,11.386,2.129,5.692,2.044,2.243,2.1.313,0,0,0,0" transform="translate(0)" fill="none" stroke="#000" stroke-linecap="round" stroke-linejoin="round" stroke-miterlimit="10" stroke-width="1.5"/>
    <path id="Stroke_3" data-name="Stroke 3" d="M0,.5H2.773" transform="translate(10.506 7.37)" fill="none" stroke="#000" stroke-linecap="round" stroke-linejoin="round" stroke-miterlimit="10" stroke-width="1.5"/>
    <path id="Stroke_5" data-name="Stroke 5" d="M.545,0A.545.545,0,1,1,0,.544.545.545,0,0,1,.545,0Z" transform="translate(3.069 17.277)" stroke="#000" stroke-linecap="round" stroke-linejoin="round" stroke-miterlimit="10" stroke-width="1.5"/>
    <path id="Stroke_7" data-name="Stroke 7" d="M.544,0A.545.545,0,1,1,0,.544.545.545,0,0,1,.544,0Z" transform="translate(13.401 17.277)" stroke="#000" stroke-linecap="round" stroke-linejoin="round" stroke-miterlimit="10" stroke-width="1.5"/>
  </g>
</svg>
