<svg id="Iconly_Curved_Calling" data-name="Iconly/Curved/Calling" xmlns="http://www.w3.org/2000/svg" width="24" height="24" viewBox="0 0 24 24">
  <g id="Calling" transform="translate(2 2)">
    <path id="Stroke_1" data-name="Stroke 1" d="M0,0A7.971,7.971,0,0,1,7.041,7.032" transform="translate(12.352 0.75)" fill="none" stroke="#000" stroke-linecap="round" stroke-linejoin="round" stroke-miterlimit="10" stroke-width="1.5"/>
    <path id="Stroke_3" data-name="Stroke 3" d="M0,0A4.426,4.426,0,0,1,3.5,3.5" transform="translate(12.352 4.293)" fill="none" stroke="#000" stroke-linecap="round" stroke-linejoin="round" stroke-miterlimit="10" stroke-width="1.5"/>
    <path id="Stroke_5" data-name="Stroke 5" d="M5.7,13.3C-1.2,6.4-.217,3.241.511,2.223.6,2.059,2.906-1.388,5.375.634,11.5,5.679,3.745,4.966,8.889,10.111S13.32,7.5,18.366,13.625c2.022,2.469-1.425,4.772-1.588,4.864C15.76,19.217,12.6,20.2,5.7,13.3Z" transform="translate(0 1)" fill="none" stroke="#000" stroke-linecap="round" stroke-linejoin="round" stroke-miterlimit="10" stroke-width="1.5"/>
  </g>
</svg>
