<svg id="Iconly_Curved_Hide" data-name="Iconly/Curved/Hide" xmlns="http://www.w3.org/2000/svg" width="24" height="24" viewBox="0 0 24 24">
  <g id="Hide" transform="translate(2 3.5)">
    <path id="Stroke_1" data-name="Stroke 1" d="M3.67,12.89C1.44,11.43,0,9.23,0,7.3,0,4.02,4.14,0,9.25,0a10.118,10.118,0,0,1,5.59,1.71" transform="translate(0.75 1.34)" fill="none" stroke="#000" stroke-linecap="round" stroke-linejoin="round" stroke-miterlimit="10" stroke-width="1.5"/>
    <path id="Stroke_3" data-name="Stroke 3" d="M10.48,0a5.9,5.9,0,0,1,1.41,3.53c0,3.28-4.15,7.3-9.26,7.3A9.888,9.888,0,0,1,0,10.47" transform="translate(7.37 5.11)" fill="none" stroke="#000" stroke-linecap="round" stroke-linejoin="round" stroke-miterlimit="10" stroke-width="1.5"/>
    <path id="Stroke_5" data-name="Stroke 5" d="M.925,5.4A3.12,3.12,0,0,1,0,3.166,3.16,3.16,0,0,1,5.394.925" transform="translate(6.841 5.472)" fill="none" stroke="#000" stroke-linecap="round" stroke-linejoin="round" stroke-miterlimit="10" stroke-width="1.5"/>
    <path id="Stroke_7" data-name="Stroke 7" d="M2.537,0A3.158,3.158,0,0,1,0,2.542" transform="translate(10.573 9.199)" fill="none" stroke="#000" stroke-linecap="round" stroke-linejoin="round" stroke-miterlimit="10" stroke-width="1.5"/>
    <path id="Stroke_9" data-name="Stroke 9" d="M15.774,0,0,15.774" transform="translate(2.118 0.75)" fill="none" stroke="#000" stroke-linecap="round" stroke-linejoin="round" stroke-miterlimit="10" stroke-width="1.5"/>
  </g>
</svg>
