<svg id="Iconly_Curved_Image_2" data-name="Iconly/Curved/Image 2" xmlns="http://www.w3.org/2000/svg" width="24" height="24" viewBox="0 0 24 24">
  <g id="Image_2" data-name="Image 2" transform="translate(2 2)">
    <path id="Stroke_1" data-name="Stroke 1" d="M0,9.25c0,6.937,2.313,9.25,9.25,9.25s9.25-2.313,9.25-9.25S16.187,0,9.25,0,0,2.313,0,9.25Z" transform="translate(0.75 0.75)" fill="none" stroke="#000" stroke-linecap="round" stroke-linejoin="round" stroke-miterlimit="10" stroke-width="1.5"/>
    <path id="Stroke_3" data-name="Stroke 3" d="M3.522,1.761A1.761,1.761,0,1,1,1.761,0,1.76,1.76,0,0,1,3.522,1.761Z" transform="translate(5.077 5.023)" fill="none" stroke="#000" stroke-linecap="round" stroke-linejoin="round" stroke-miterlimit="10" stroke-width="1.5"/>
    <path id="Stroke_5" data-name="Stroke 5" d="M16.654,2.737C15.773,1.831,14.527,0,12.238,0S9.9,4.038,7.563,4.038s-3.278-1.371-4.8-.655S0,6.944,0,6.944" transform="translate(2.466 9.93)" fill="none" stroke="#000" stroke-linecap="round" stroke-linejoin="round" stroke-miterlimit="10" stroke-width="1.5"/>
  </g>
</svg>
