<svg id="Iconly_Curved_Paper" data-name="Iconly/Curved/Paper" xmlns="http://www.w3.org/2000/svg" width="24" height="24" viewBox="0 0 24 24">
  <g id="Paper" transform="translate(3.65 2.75)">
    <path id="Stroke_1" data-name="Stroke 1" d="M5.4.5H0" transform="translate(5.255 12.2)" fill="none" stroke="#000" stroke-linecap="round" stroke-linejoin="round" stroke-miterlimit="10" stroke-width="1.5"/>
    <path id="Stroke_2" data-name="Stroke 2" d="M3.356.5H0" transform="translate(5.255 8.189)" fill="none" stroke="#000" stroke-linecap="round" stroke-linejoin="round" stroke-miterlimit="10" stroke-width="1.5"/>
    <path id="Stroke_3" data-name="Stroke 3" d="M16.51,5.55,10.84.15A18.2,18.2,0,0,0,8.39,0C2.1,0,0,2.32,0,9.25S2.1,18.5,8.39,18.5s8.4-2.31,8.4-9.25A21.045,21.045,0,0,0,16.51,5.55Z" transform="translate(0)" fill="none" stroke="#000" stroke-linecap="round" stroke-linejoin="round" stroke-miterlimit="10" stroke-width="1.5"/>
    <path id="Stroke_5" data-name="Stroke 5" d="M0,0V2.661A3.363,3.363,0,0,0,3.364,6.024H6.315" transform="translate(10.284 0.083)" fill="none" stroke="#000" stroke-linecap="round" stroke-linejoin="round" stroke-miterlimit="10" stroke-width="1.5"/>
  </g>
</svg>
