<svg id="Iconly_Curved_Shield_Fail" data-name="Iconly/Curved/Shield Fail" xmlns="http://www.w3.org/2000/svg" width="24" height="24" viewBox="0 0 24 24">
  <g id="Shield_Fail" data-name="Shield Fail" transform="translate(3.5 2)">
    <path id="Stroke_1" data-name="Stroke 1" d="M7.736,18.855a8.4,8.4,0,0,0,7.672-8.727c0-6.4.278-6.905-.338-7.521A12.592,12.592,0,0,0,7.736,0,12.6,12.6,0,0,0,.4,2.607c-.616.616-.338,1.117-.338,7.521A8.4,8.4,0,0,0,7.736,18.855Z" transform="translate(0.75 0.751)" fill="none" stroke="#000" stroke-linecap="round" stroke-linejoin="round" stroke-miterlimit="10" stroke-width="1.5"/>
    <path id="Stroke_3" data-name="Stroke 3" d="M3.759,3.758,0,0" transform="translate(6.605 8.066)" fill="none" stroke="#000" stroke-linecap="round" stroke-linejoin="round" stroke-miterlimit="10" stroke-width="1.5"/>
    <path id="Stroke_5" data-name="Stroke 5" d="M0,3.758,3.759,0" transform="translate(6.605 8.066)" fill="none" stroke="#000" stroke-linecap="round" stroke-linejoin="round" stroke-miterlimit="10" stroke-width="1.5"/>
  </g>
</svg>
