<svg id="Iconly_Curved_Volume_Up" data-name="Iconly/Curved/Volume Up" xmlns="http://www.w3.org/2000/svg" width="24" height="24" viewBox="0 0 24 24">
  <g id="Volume_Up" data-name="Volume Up" transform="translate(2 4.5)">
    <path id="Stroke_1" data-name="Stroke 1" d="M0,0A11.128,11.128,0,0,1,0,12.357" transform="translate(17.436 1.274)" fill="none" stroke="#000" stroke-linecap="round" stroke-linejoin="round" stroke-miterlimit="10" stroke-width="1.5"/>
    <path id="Stroke_3" data-name="Stroke 3" d="M0,0A7.74,7.74,0,0,1,0,7.472" transform="translate(14.989 3.717)" fill="none" stroke="#000" stroke-linecap="round" stroke-linejoin="round" stroke-miterlimit="10" stroke-width="1.5"/>
    <path id="Stroke_5" data-name="Stroke 5" d="M0,6.771c0,1.246,0,2.708,1.029,3.582s1.846.514,3.178.952,3.2,3.146,5.261,1.924c1.115-.792,1.64-2.286,1.64-6.457s-.5-5.649-1.64-6.457C7.407-.908,5.54,1.8,4.208,2.238s-2.148.078-3.178.952S0,5.525,0,6.771Z" transform="translate(0.682 0.682)" fill="none" stroke="#000" stroke-linecap="round" stroke-linejoin="round" stroke-miterlimit="10" stroke-width="1.5"/>
  </g>
</svg>
