<svg width="24" height="24" viewBox="0 0 24 24" fill="none" xmlns="http://www.w3.org/2000/svg">
<path fill-rule="evenodd" clip-rule="evenodd" d="M19.4016 7.18524C20.4533 7.18523 21.4013 6.55261 21.803 5.58275C22.2046 4.61288 21.9807 3.49708 21.2357 2.7563C20.4908 2.01553 19.3718 1.7959 18.4011 2.19996C17.4305 2.60403 16.7997 3.55208 16.8033 4.60148C16.8082 6.02987 17.97 7.18525 19.4016 7.18524ZM19.4016 3.48155C20.0215 3.48155 20.524 3.98296 20.524 4.60148C20.524 5.21999 20.0215 5.7214 19.4016 5.7214C18.7817 5.7214 18.2792 5.21999 18.2792 4.60148C18.2792 3.98296 18.7817 3.48155 19.4016 3.48155ZM3.47591 15.9947C3.47591 18.9224 5.09323 20.5273 8.01854 20.5273C8.42655 20.5321 8.75614 20.861 8.76092 21.2681C8.75608 21.6737 8.42512 22 8.01854 22C4.30667 22 2 19.6984 2 15.9947V8.79017C2 5.07766 4.30667 2.77609 8.01854 2.77609H14.5232C14.9297 2.78092 15.2567 3.11114 15.2567 3.51682C15.2567 3.71248 15.1782 3.89999 15.0387 4.03751C14.8993 4.17503 14.7104 4.2511 14.5143 4.24874H8.01854C5.09323 4.24874 3.47591 5.86249 3.47591 8.79017V15.9947ZM13.8692 14.0723C13.7454 14.2248 13.5688 14.3255 13.3742 14.3545C13.1806 14.3742 12.987 14.3172 12.8351 14.1958L10.1219 12.0706L7.6827 15.2364C7.56639 15.3943 7.39148 15.499 7.19713 15.5272C7.00278 15.5554 6.80522 15.5046 6.64868 15.3863C6.32922 15.1364 6.27016 14.6768 6.51612 14.3545L9.40608 10.5979C9.52663 10.4422 9.70435 10.3407 9.9 10.3159C10.0957 10.2911 10.2932 10.345 10.4489 10.4657L13.1621 12.5909L15.5483 9.54855C15.8103 9.30005 16.2146 9.27896 16.501 9.49884C16.7875 9.71871 16.8708 10.114 16.6973 10.4304L13.8692 14.0723ZM20.5594 8.79017C20.1543 8.79017 19.8258 9.11786 19.8258 9.52209V15.9947C19.7993 18.9224 18.182 20.5273 15.2567 20.5273H12.3049C11.8969 20.5321 11.5673 20.861 11.5625 21.2681C11.5673 21.6737 11.8983 22 12.3049 22H15.2567C18.9686 22 21.2841 19.6984 21.2841 15.9947V9.52209C21.2841 9.12128 20.961 8.795 20.5594 8.79017Z" fill="#200E32"/>
</svg>
