<svg width="24" height="24" viewBox="0 0 24 24" fill="none" xmlns="http://www.w3.org/2000/svg">
<path fill-rule="evenodd" clip-rule="evenodd" d="M13.8244 7.35397C13.8244 5.19398 12.0737 3.43699 9.92144 3.43699C7.7692 3.43699 6.01851 5.19398 6.01851 7.35397C6.01851 9.51396 7.7692 11.271 9.92144 11.271C12.0737 11.271 13.8244 9.51396 13.8244 7.35397ZM15.2552 7.35397C15.2552 10.306 12.8628 12.7079 9.92144 12.7079C6.98005 12.7079 4.58767 10.306 4.58767 7.35397C4.58767 4.40199 6.98005 2 9.92144 2C12.8628 2 15.2552 4.40199 15.2552 7.35397ZM21.2527 10.0385H19.9613V8.78447C19.9613 8.37047 19.6266 8.03447 19.214 8.03447C18.8015 8.03447 18.4667 8.37047 18.4667 8.78447V10.0385H17.1774C16.7649 10.0385 16.4301 10.3745 16.4301 10.7885C16.4301 11.2025 16.7649 11.5385 17.1774 11.5385H18.4667V12.7934C18.4667 13.2074 18.8015 13.5434 19.214 13.5434C19.6266 13.5434 19.9613 13.2074 19.9613 12.7934V11.5385H21.2527C21.6652 11.5385 22 11.2025 22 10.7885C22 10.3745 21.6652 10.0385 21.2527 10.0385ZM9.92144 14.64C6.5207 14.64 2 15.02 2 18.31C2 19.295 2.45635 20.625 4.63052 21.364C5.00616 21.494 5.4107 21.288 5.53824 20.914C5.66479 20.539 5.46451 20.131 5.08986 20.004C3.60222 19.498 3.43084 18.795 3.43084 18.31C3.43084 16.828 5.61497 16.076 9.92144 16.076C14.2279 16.076 16.412 16.834 16.412 18.33C16.412 19.813 14.2279 20.564 9.92144 20.564C9.59263 20.564 9.2688 20.56 8.95094 20.55C8.56832 20.553 8.22655 20.851 8.21559 21.247C8.20364 21.644 8.51452 21.975 8.90909 21.987C9.2409 21.995 9.57868 22 9.92144 22C13.3222 22 17.8429 21.619 17.8429 18.33C17.8429 14.64 11.8804 14.64 9.92144 14.64Z" fill="#200E32"/>
</svg>
