<svg width="24" height="24" viewBox="0 0 24 24" fill="none" xmlns="http://www.w3.org/2000/svg">
<path fill-rule="evenodd" clip-rule="evenodd" d="M11.176 20.2844C11.2272 20.6877 11.5767 21 11.9998 21C12.4582 21 12.8302 20.6335 12.8302 20.1818V5.79927L18.0813 10.9953L18.1661 11.0688C18.4909 11.3138 18.9576 11.2895 19.256 10.9975C19.5804 10.6789 19.5815 10.1607 19.2582 9.84109L12.5877 3.24109L12.5042 3.16831C12.3581 3.05758 12.1797 3 11.9998 3C11.8924 3 11.785 3.02073 11.6832 3.06218C11.3721 3.18873 11.1695 3.48655 11.1695 3.81818V20.1818L11.176 20.2844ZM4.74399 10.9976C5.06949 11.3161 5.59538 11.3161 5.91866 10.9954L9.59768 7.35502L9.672 7.27097C9.91963 6.94949 9.89384 6.49065 9.59546 6.19865C9.43271 6.03938 9.22125 5.95975 9.00979 5.95975C8.79611 5.95975 8.58354 6.03938 8.42079 6.20084L4.74177 9.84011L4.66771 9.92417C4.42092 10.2458 4.44663 10.7056 4.74399 10.9976Z" fill="#200E32"/>
</svg>
