<svg width="24" height="24" viewBox="0 0 24 24" fill="none" xmlns="http://www.w3.org/2000/svg">
<path fill-rule="evenodd" clip-rule="evenodd" d="M14.9878 2.76788C14.9878 2.34588 15.3308 2.00288 15.7528 2.00288C19.6078 1.99988 21.9998 4.39188 21.9998 8.24388V15.7469C21.9998 19.6079 19.6078 21.9999 15.7558 21.9999H8.25576C4.39276 21.9999 1.99976 19.6079 1.99976 15.7469V8.24688C1.99976 4.40988 4.39276 1.99988 8.25276 1.99988H10.8218C11.2388 1.99988 11.5778 2.33888 11.5778 2.75588V2.76488H11.5608C11.5608 3.18688 11.2188 3.52888 10.7968 3.52988H10.7948H8.25276C5.19976 3.52988 3.52976 5.19988 3.52976 8.24388V15.7439C3.52976 18.7899 5.20976 20.4699 8.25276 20.4699H15.7528C18.7868 20.4699 20.4668 18.7899 20.4668 15.7469V8.24688C20.4668 5.20388 18.7868 3.53288 15.7528 3.53288C15.3308 3.53288 14.9878 3.18988 14.9878 2.76788ZM11.2499 7.91398V14.27L8.78286 11.793C8.49086 11.499 8.01686 11.498 7.72286 11.791C7.42786 12.083 7.42986 12.558 7.72086 12.851L11.4689 16.615C11.4689 16.616 11.4689 16.616 11.4699 16.616C11.5379 16.685 11.6209 16.74 11.7129 16.778C11.8039 16.816 11.9009 16.836 11.9989 16.836H11.9999C12.0068 16.836 12.0127 16.8342 12.0186 16.8325C12.0237 16.831 12.0288 16.8294 12.0349 16.829C12.1199 16.825 12.2049 16.811 12.2859 16.778C12.3679 16.744 12.4399 16.693 12.5059 16.634C12.5091 16.6307 12.5128 16.6286 12.5165 16.6264C12.5208 16.6238 12.5251 16.6213 12.5289 16.617C12.5989 16.548 12.6539 16.465 12.6919 16.374C12.7299 16.281 12.7499 16.185 12.7499 16.086V7.91398C12.7499 7.49998 12.4139 7.16398 11.9999 7.16398C11.5859 7.16398 11.2499 7.49998 11.2499 7.91398ZM15.0009 14.1357L16.2789 12.8517C16.4249 12.7047 16.4979 12.5137 16.4979 12.3227C16.4979 12.1297 16.4249 11.9377 16.2769 11.7897C15.9829 11.4977 15.5089 11.4987 15.2169 11.7927L13.9389 13.0767C13.6469 13.3707 13.6469 13.8447 13.9399 14.1377C14.2339 14.4297 14.7089 14.4287 15.0009 14.1357Z" fill="#200E32"/>
</svg>
