<svg width="24" height="24" viewBox="0 0 24 24" fill="none" xmlns="http://www.w3.org/2000/svg">
<path fill-rule="evenodd" clip-rule="evenodd" d="M2.76776 9.012C2.34576 9.012 2.00276 8.669 2.00276 8.247C1.99976 4.392 4.39176 2 8.24376 2H15.7468C19.6078 2 21.9998 4.392 21.9998 8.244V15.744C21.9998 19.607 19.6078 22 15.7468 22H8.24676C4.40976 22 1.99976 19.607 1.99976 15.747V13.178C1.99976 12.761 2.33876 12.422 2.75576 12.422H2.76476V12.439C3.18676 12.439 3.52876 12.781 3.52976 13.203V13.205V15.747C3.52976 18.8 5.19976 20.47 8.24376 20.47H15.7438C18.7898 20.47 20.4698 18.79 20.4698 15.747V8.247C20.4698 5.213 18.7898 3.533 15.7468 3.533H8.24676C5.20376 3.533 3.53276 5.213 3.53276 8.247C3.53276 8.669 3.18976 9.012 2.76776 9.012ZM7.91386 12.7499H14.2699L11.7929 15.2169C11.4989 15.5089 11.4979 15.9829 11.7909 16.2769C12.0829 16.5719 12.5579 16.5699 12.8509 16.2789L16.6149 12.5309C16.6159 12.5309 16.6159 12.5309 16.6159 12.5299C16.6849 12.4619 16.7399 12.3789 16.7779 12.2869C16.8159 12.1959 16.8359 12.0989 16.8359 12.0009V11.9999C16.8359 11.9929 16.8341 11.9871 16.8324 11.9812C16.8309 11.9761 16.8293 11.9709 16.8289 11.9649C16.8249 11.8799 16.8109 11.7949 16.7779 11.7139C16.7439 11.6319 16.6929 11.5599 16.6339 11.4939C16.6306 11.4907 16.6284 11.487 16.6263 11.4833C16.6237 11.479 16.6212 11.4747 16.6169 11.4709C16.5479 11.4009 16.4649 11.3459 16.3739 11.3079C16.2809 11.2699 16.1849 11.2499 16.0859 11.2499H7.91386C7.49986 11.2499 7.16386 11.5859 7.16386 11.9999C7.16386 12.4139 7.49986 12.7499 7.91386 12.7499ZM14.1356 8.9989L12.8516 7.7209C12.7046 7.5749 12.5136 7.5019 12.3226 7.5019C12.1296 7.5019 11.9376 7.5749 11.7896 7.7229C11.4976 8.0169 11.4986 8.4909 11.7926 8.7829L13.0766 10.0609C13.3706 10.3529 13.8446 10.3529 14.1376 10.0599C14.4296 9.7659 14.4286 9.2909 14.1356 8.9989Z" fill="#200E32"/>
</svg>
