<svg width="24" height="24" viewBox="0 0 24 24" fill="none" xmlns="http://www.w3.org/2000/svg">
<path fill-rule="evenodd" clip-rule="evenodd" d="M9.01176 21.232C9.01176 21.654 8.66876 21.997 8.24676 21.997C4.39176 22 1.99976 19.608 1.99976 15.756V8.253C1.99976 4.392 4.39176 2 8.24376 2H15.7438C19.6068 2 21.9998 4.392 21.9998 8.253V15.753C21.9998 19.59 19.6068 22 15.7468 22H13.1778C12.7608 22 12.4218 21.661 12.4218 21.244V21.235H12.4388C12.4388 20.813 12.7808 20.471 13.2028 20.47H13.2048H15.7468C18.7998 20.47 20.4698 18.8 20.4698 15.756V8.256C20.4698 5.21 18.7898 3.53 15.7468 3.53H8.24676C5.21276 3.53 3.53276 5.21 3.53276 8.253V15.753C3.53276 18.796 5.21276 20.467 8.24676 20.467C8.66876 20.467 9.01176 20.81 9.01176 21.232ZM12.7497 16.0859L12.7497 9.7299L15.2167 12.2069C15.5087 12.5009 15.9827 12.5019 16.2767 12.2089C16.5717 11.9169 16.5697 11.4419 16.2787 11.1489L12.5307 7.3849C12.5307 7.3839 12.5307 7.3839 12.5297 7.3839C12.4617 7.3149 12.3787 7.2599 12.2867 7.2219C12.1957 7.1839 12.0987 7.1639 12.0007 7.1639H11.9997C11.9927 7.1639 11.9868 7.16563 11.9809 7.16739C11.9758 7.16891 11.9707 7.17044 11.9647 7.1709C11.8797 7.1749 11.7947 7.1889 11.7137 7.2219C11.6317 7.2559 11.5597 7.3069 11.4937 7.3659C11.4904 7.36914 11.4868 7.37131 11.4831 7.37349C11.4788 7.37603 11.4744 7.3786 11.4707 7.3829C11.4007 7.4519 11.3457 7.5349 11.3077 7.6259C11.2697 7.7189 11.2497 7.8149 11.2497 7.9139L11.2497 16.0859C11.2497 16.4999 11.5857 16.8359 11.9997 16.8359C12.4137 16.8359 12.7497 16.4999 12.7497 16.0859ZM8.99866 9.8642L7.72066 11.1482C7.57466 11.2952 7.50166 11.4862 7.50166 11.6772C7.50166 11.8702 7.57466 12.0622 7.72266 12.2102C8.01666 12.5022 8.49066 12.5012 8.78266 12.2072L10.0607 10.9232C10.3527 10.6292 10.3527 10.1552 10.0597 9.8622C9.76566 9.5702 9.29066 9.5712 8.99866 9.8642Z" fill="#200E32"/>
</svg>
