<svg width="24" height="24" viewBox="0 0 24 24" fill="none" xmlns="http://www.w3.org/2000/svg">
<path fill-rule="evenodd" clip-rule="evenodd" d="M21.4038 15.7469L20.6483 9.87507C20.1651 7.238 18.4169 6.35898 16.941 6.35898C16.7194 4.43528 15.3911 2.82032 13.5472 2.23248C11.7032 1.64464 9.68609 2.19315 8.39313 3.63401C8.20481 3.83657 8.1388 4.12426 8.21996 4.38873C8.30112 4.65319 8.51712 4.85424 8.7866 4.91614C9.05608 4.97804 9.33809 4.8914 9.5264 4.68884V4.60093C10.7688 3.21325 12.9 3.09522 14.2879 4.33723C14.872 4.86621 15.2566 5.58001 15.3773 6.35898H7.13687C5.72247 6.35898 4.00938 7.238 3.42957 9.91902L3.20994 11.2375C3.16827 11.6419 3.44654 12.0096 3.84686 12.0791C4.24718 12.1485 4.63293 11.8961 4.72976 11.5013L4.9406 10.2091C5.26565 8.74113 6.08266 7.86211 7.13687 7.86211H16.941C18.0479 7.86211 18.8649 8.74113 19.1285 10.1476L19.8752 15.9579C20.1036 17.5401 19.8752 18.7004 19.3042 19.3949C18.7331 20.0893 17.635 20.4233 16.0449 20.4233H8.03294C6.8627 20.5023 5.71279 20.088 4.86153 19.2806C4.1687 18.3219 3.9281 17.1086 4.20265 15.9579C4.2633 15.538 3.97225 15.1483 3.55256 15.0877C3.13287 15.027 2.74349 15.3182 2.68284 15.7381C2.23751 17.3284 2.61737 19.0362 3.69476 20.2874C4.77214 21.5386 6.40397 22.1671 8.04173 21.9616H16.0449C18.1182 21.9616 19.5589 21.4518 20.4375 20.4057C21.316 19.3597 21.6937 17.7863 21.4038 15.7469ZM14.5075 12.0287C14.6172 12.0706 14.7329 12.0943 14.8502 12.099C15.0819 12.0957 15.3029 12.0009 15.4651 11.8353C15.5593 11.7585 15.6319 11.6585 15.6759 11.5452C15.7251 11.4409 15.7492 11.3265 15.7462 11.2112C15.7553 11.1529 15.7553 11.0936 15.7462 11.0354C15.7381 10.9772 15.7203 10.9207 15.6935 10.8684C15.6797 10.8129 15.6526 10.7616 15.6145 10.7189C15.5469 10.6265 15.4671 10.5437 15.3773 10.4728C15.2765 10.412 15.1668 10.3675 15.0522 10.3409C14.9395 10.3147 14.8223 10.3147 14.7096 10.3409C14.6517 10.3505 14.5955 10.3682 14.5427 10.3937C14.4867 10.4129 14.4335 10.4395 14.3845 10.4728L14.2528 10.5871C14.2084 10.6227 14.1724 10.6677 14.1473 10.7189L14.0595 10.8684V11.0354C14.0506 11.0936 14.0506 11.1529 14.0595 11.2112C14.0534 11.3258 14.0745 11.4403 14.121 11.5452C14.187 11.7479 14.3244 11.9198 14.5075 12.0287ZM10.1414 11.22C10.1414 11.7054 9.74804 12.099 9.26285 12.099C9.03726 12.0911 8.82334 11.9967 8.66547 11.8353C8.58233 11.7525 8.51662 11.6538 8.4722 11.5452C8.43019 11.4389 8.4093 11.3255 8.4107 11.2112C8.40164 11.1529 8.40164 11.0936 8.4107 11.0354C8.41884 10.9772 8.43666 10.9207 8.46341 10.8684C8.48095 10.8144 8.5077 10.7638 8.54248 10.7189C8.56748 10.6677 8.60348 10.6227 8.6479 10.5871C8.68636 10.5456 8.73077 10.51 8.77967 10.4816C8.82452 10.4468 8.87505 10.42 8.92902 10.4025C8.98133 10.3757 9.03775 10.3579 9.09593 10.3497C9.20863 10.3235 9.32585 10.3235 9.43855 10.3497C9.49674 10.3579 9.55316 10.3757 9.60547 10.4025C9.65944 10.42 9.70997 10.4468 9.75481 10.4816C9.80745 10.512 9.8549 10.5505 9.89538 10.5959C9.93979 10.6315 9.97579 10.6765 10.0008 10.7277C10.0349 10.7745 10.0644 10.8246 10.0886 10.8772L10.1414 11.0442C10.1461 11.1027 10.1461 11.1615 10.1414 11.22Z" fill="#200E32"/>
</svg>
