<svg width="24" height="24" viewBox="0 0 24 24" fill="none" xmlns="http://www.w3.org/2000/svg">
<path d="M15.5259 2H8.62931C5.78448 2 4 3.98588 4 7.17211V20.323C4 21.2492 4.73333 22 5.63793 22C5.9118 21.9998 6.18135 21.9301 6.42241 21.797L12.0345 18.6814L18.569 21.8147C18.7461 21.8908 18.9456 21.8918 19.1235 21.8173C19.3014 21.7428 19.443 21.599 19.5172 21.4175C19.6268 21.0831 19.494 20.7157 19.1983 20.5349L12.7069 17.4281C12.2828 17.1894 11.7689 17.1894 11.3448 17.4281L5.72414 20.5349C5.65968 20.571 5.5817 20.571 5.51724 20.5349C5.45595 20.4945 5.41993 20.4241 5.42241 20.3495V7.17211C5.43103 4.81553 6.58621 3.47396 8.65517 3.47396H15.5517C18.2069 3.47396 18.5948 5.68049 18.5948 7.00441V7.60459H11.1293C10.9395 7.61149 10.7602 7.69536 10.6308 7.83774C10.5014 7.98012 10.4327 8.16931 10.4397 8.36364C10.4487 8.74968 10.7523 9.06042 11.1293 9.06973H18.569V16.7926C18.569 17.1972 18.8893 17.5252 19.2845 17.5252C19.6763 17.5252 19.9953 17.2025 20 16.8014V7.00441C20 3.91527 18.2931 2 15.5259 2Z" fill="#200E32"/>
</svg>
