<svg width="24" height="24" viewBox="0 0 24 24" fill="none" xmlns="http://www.w3.org/2000/svg">
<path fill-rule="evenodd" clip-rule="evenodd" d="M13.6164 2.66067C13.6625 2.25321 14.0269 1.95354 14.4305 2.00596C18.4353 2.45298 21.5464 5.58217 21.9952 9.61431C22.0414 10.0218 21.7497 10.3897 21.3461 10.4342C21.3176 10.4372 21.2901 10.4391 21.2626 10.4391C20.8933 10.4391 20.5742 10.1592 20.5319 9.78046C20.1588 6.44161 17.5838 3.85044 14.2675 3.47956C13.8629 3.43407 13.5722 3.06814 13.6164 2.66067ZM3.83637 5.62202C3.33062 6.32223 3.36597 7.22024 3.90905 8.42187C4.07698 8.79472 3.91396 9.23384 3.54372 9.40395C3.17448 9.57405 2.73648 9.40889 2.56855 9.03604C1.79666 7.32804 1.81041 5.90191 2.61176 4.80017C2.78067 4.51336 4.64951 2.09823 6.39853 2.21394C6.90429 2.25548 7.36781 2.49383 7.80384 2.92206C8.26639 3.37601 10.2138 5.76048 10.3699 6.51805C10.5377 7.32931 10.1761 7.96286 9.912 8.42561L9.91131 8.42682C9.65107 8.88275 9.56072 9.07758 9.65009 9.32384C10.3081 10.9438 11.3235 12.2661 12.6581 13.2264C12.989 13.4658 13.0656 13.9276 12.829 14.2619C12.6856 14.4637 12.4597 14.5724 12.2299 14.5724C12.0816 14.5724 11.9314 14.5279 11.8018 14.434C10.2374 13.3075 9.05104 11.7686 8.27522 9.85691C7.93445 8.91242 8.33906 8.20429 8.63465 7.68705C8.8566 7.29936 8.97935 7.06794 8.9273 6.82069C8.78982 6.46366 7.35308 4.55193 6.77466 3.98425C6.59592 3.80722 6.42799 3.70337 6.30327 3.69348C5.64138 3.66282 4.16241 5.07808 3.83637 5.62202ZM15.1055 14.1869C15.6554 13.8388 16.4096 13.3651 17.3671 13.5639C18.1184 13.7201 20.4851 15.6813 20.9368 16.1481C21.3621 16.5852 21.5987 17.0521 21.639 17.5367C21.7028 19.3574 19.2792 21.2622 19.0022 21.4224C18.4729 21.8062 17.8532 22 17.1569 22C16.4636 22 15.6937 21.8081 14.8599 21.4185C11.6526 20.0754 6.80225 15.7268 4.07609 11.7362C3.84531 11.3999 3.92977 10.9381 4.26464 10.7047C4.59952 10.4752 5.05912 10.5573 5.28892 10.8965C7.83537 14.6221 12.4903 18.8194 15.4531 20.0606C16.6522 20.6203 17.5449 20.655 18.2077 20.1763C18.7243 19.8598 20.1954 18.3892 20.1689 17.6237C20.16 17.5337 20.0579 17.3646 19.8841 17.1846C19.3184 16.6011 17.4211 15.1552 17.0244 15.0048C16.7082 14.9405 16.386 15.1285 15.8901 15.442L15.6348 15.6022C15.2861 15.8128 14.8324 15.6981 14.6243 15.349C14.4141 14.9969 14.527 14.541 14.8757 14.3303L15.1055 14.1869ZM17.0616 9.8484C17.1303 10.2025 17.4387 10.4477 17.7834 10.4477C17.8305 10.4477 17.8787 10.4438 17.9258 10.4349C18.3255 10.3567 18.5857 9.96609 18.5081 9.56456C18.1094 7.50745 16.5323 5.91912 14.4896 5.51858C14.0958 5.45033 13.704 5.70352 13.6254 6.10505C13.5478 6.50658 13.8091 6.89724 14.2078 6.97537C15.6582 7.25921 16.7788 8.38666 17.0616 9.8484Z" fill="#200E32"/>
</svg>
