<svg width="24" height="24" viewBox="0 0 24 24" fill="none" xmlns="http://www.w3.org/2000/svg">
<path fill-rule="evenodd" clip-rule="evenodd" d="M6.28706 13.9692C6.07205 13.9692 5.85905 13.8773 5.71104 13.7004C4.23201 11.9304 3.14798 10.2623 2.57696 8.87413C1.79594 7.17311 1.80895 5.73093 2.62497 4.61757C2.79997 4.32574 4.68502 1.88714 6.48806 2.00407C6.99507 2.04605 7.46509 2.28391 7.9101 2.71266C8.28611 3.07446 8.91912 3.85601 9.38013 4.47166C10.4452 5.89084 10.4982 6.19167 10.5292 6.37256C10.6978 7.16759 10.3296 7.80929 10.0607 8.27778L10.0592 8.28047C9.79515 8.73921 9.70414 8.93509 9.79415 9.17896C9.87115 9.36885 9.96315 9.57273 10.0602 9.77162C10.2422 10.1434 10.0882 10.5931 9.71514 10.774C9.34313 10.9549 8.89412 10.802 8.71212 10.4302C8.60012 10.1994 8.49311 9.96251 8.39511 9.71865C8.04538 8.77394 8.45646 8.05873 8.7574 7.53514L8.75812 7.5339C8.98312 7.14212 9.10913 6.90626 9.05613 6.6554V6.6564C9.05582 6.6564 9.05419 6.6533 9.05069 6.64662C9.02038 6.58884 8.84979 6.26353 8.1801 5.37114C7.68509 4.71152 7.13308 4.0469 6.86907 3.79105C6.62007 3.55218 6.46106 3.50621 6.38706 3.49921C5.74104 3.44824 4.20701 4.89741 3.871 5.45009C3.35698 6.15569 3.39598 7.06217 3.952 8.27647C4.47701 9.55174 5.48004 11.0859 6.86207 12.7379C7.12808 13.0557 7.08608 13.5285 6.76807 13.7943C6.62807 13.9112 6.45706 13.9692 6.28706 13.9692ZM15.7181 13.9376C16.1891 13.6678 16.8321 13.3 17.6551 13.4729C18.4192 13.6208 20.8302 15.6087 21.2892 16.0824C21.7202 16.5321 21.9582 17.0019 21.9982 17.4826C22.0723 19.3405 19.5922 21.2554 19.3082 21.4143C18.7752 21.8031 18.1462 22 17.4381 22C16.7341 22 15.9521 21.8061 15.1041 21.4113C13.263 20.6508 10.801 18.8728 8.44591 16.6101L3.27978 21.7721C2.98777 22.065 2.51276 22.065 2.21976 21.7721C1.92675 21.4793 1.92675 21.0046 2.21976 20.7117L7.9099 15.025C8.1909 14.7432 8.68892 14.7432 8.96992 15.025C11.352 17.4046 13.87 19.2796 15.7071 20.0391C16.9251 20.6068 17.8301 20.6368 18.5012 20.1551C19.0352 19.8332 20.5312 18.3531 20.5012 17.5735C20.4972 17.5326 20.4512 17.3747 20.2092 17.1228C19.6602 16.5561 17.7071 15.078 17.3081 14.9291C17.0941 14.8821 16.8601 15.011 16.4661 15.2379L16.4656 15.2382C15.9426 15.538 15.2268 15.9484 14.3011 15.6097C12.887 15.029 11.691 14.2474 10.72 13.277C10.427 12.9842 10.427 12.5094 10.72 12.2166L20.7202 2.22235C21.0132 1.92951 21.4882 1.92951 21.7802 2.22235C22.0733 2.51518 22.0733 2.98991 21.7802 3.28274L12.335 12.7223C13.055 13.324 13.897 13.8227 14.8451 14.2125C15.0631 14.2914 15.2601 14.2015 15.7181 13.9376Z" fill="#200E32"/>
</svg>
