<svg width="24" height="24" viewBox="0 0 24 24" fill="none" xmlns="http://www.w3.org/2000/svg">
<path fill-rule="evenodd" clip-rule="evenodd" d="M17.638 6.35546C17.556 6.35546 17.481 6.30751 17.41 6.15867C17.126 5.5563 16.778 4.82008 16.569 4.40851C16.111 3.50746 15.325 3.00699 14.348 3H9.646C8.676 3.00699 7.889 3.50746 7.431 4.40951C7.228 4.80909 6.893 5.51834 6.614 6.11072L6.555 6.23459C6.52 6.30851 6.446 6.35546 6.363 6.35546C3.957 6.35546 2 8.31039 2 10.7129V16.6426C2 19.0451 3.957 21 6.363 21H7.108C7.522 21 7.858 20.6644 7.858 20.2508C7.858 19.8372 7.522 19.5016 7.108 19.5016H6.363C4.784 19.5016 3.5 18.2189 3.5 16.6426V10.7129C3.5 9.13652 4.784 7.85388 6.363 7.85388C7.022 7.85388 7.63 7.46928 7.911 6.87491L7.97 6.75004C8.243 6.17065 8.571 5.47739 8.769 5.0868C8.974 4.68322 9.249 4.50142 9.653 4.49842H14.342C14.752 4.50142 15.026 4.68322 15.231 5.0858C15.435 5.48937 15.776 6.20961 16.09 6.87491C16.371 7.46928 16.979 7.85388 17.638 7.85388C19.216 7.85388 20.5 9.13652 20.5 10.7129V16.6426C20.5 18.2189 19.216 19.5016 17.638 19.5016H10.58C10.166 19.5016 9.83 19.8372 9.83 20.2508C9.83 20.6644 10.166 21 10.58 21H17.638C20.043 21 22 19.0451 22 16.6426V10.7129C22 8.31039 20.043 6.35546 17.638 6.35546ZM12.0008 17.2541C13.0518 17.2541 14.0418 16.8405 14.7888 16.0893C15.5318 15.3421 15.9378 14.3591 15.9288 13.3272C15.9298 12.2803 15.5198 11.2923 14.7748 10.5481C14.0308 9.80492 13.0458 9.39635 12.0008 9.39635H11.9988C11.7108 9.39635 11.4228 9.42732 11.1438 9.49125C10.7398 9.58015 10.4848 9.98173 10.5758 10.3853C10.6658 10.7879 11.0658 11.0456 11.4708 10.9517C11.6438 10.9137 11.8208 10.8948 11.9998 10.8948H12.0008C12.6458 10.8948 13.2538 11.1485 13.7138 11.608C14.1758 12.0695 14.4298 12.6789 14.4288 13.3322C14.4338 13.9675 14.1838 14.5709 13.7248 15.0334C13.2618 15.4989 12.6488 15.7556 12.0008 15.7556H11.9988C11.3508 15.7546 10.7418 15.5009 10.2828 15.0404C9.8228 14.5799 9.5708 13.9695 9.5718 13.3202C9.5718 13.0715 9.6108 12.8247 9.6868 12.588C9.8118 12.1944 9.5938 11.7728 9.1988 11.647C8.8018 11.5231 8.3818 11.7389 8.2568 12.1335C8.1348 12.5181 8.0718 12.9156 8.0718 13.3192C8.0698 14.3661 8.4778 15.3541 9.2198 16.0983C9.9618 16.8425 10.9478 17.2531 11.9968 17.2541H12.0008ZM17.9801 10.7521C17.9101 10.822 17.8301 10.882 17.7401 10.9219C17.6501 10.9619 17.5501 10.9729 17.4501 10.9729C17.2601 10.9729 17.0701 10.902 16.9201 10.7521C16.7801 10.6123 16.7001 10.4225 16.7001 10.2237C16.7001 10.1328 16.7201 10.0329 16.7601 9.94397C16.8001 9.85406 16.8601 9.76416 16.9201 9.69423C16.9901 9.6333 17.0801 9.57336 17.1701 9.5334C17.3501 9.46348 17.5601 9.46348 17.7401 9.5334C17.8301 9.57336 17.9201 9.6333 17.9801 9.69423C18.0501 9.76416 18.1101 9.85406 18.1501 9.94397C18.1901 10.0329 18.2101 10.1328 18.2101 10.2237C18.2101 10.4225 18.1301 10.6123 17.9801 10.7521Z" fill="#200E32"/>
</svg>
