<svg width="24" height="24" viewBox="0 0 24 24" fill="none" xmlns="http://www.w3.org/2000/svg">
<path fill-rule="evenodd" clip-rule="evenodd" d="M22 10.5752C22 10.9978 21.6574 11.3404 21.2348 11.3404H21.226C21.0223 11.3404 20.8272 11.2583 20.6849 11.1126C20.5425 10.967 20.4649 10.77 20.4697 10.5664V8.2533C20.4697 5.2102 18.7898 3.53034 15.7467 3.53034H8.2533C5.20141 3.53034 3.53034 5.2102 3.53034 8.2533V15.7555C3.53034 18.7986 5.2102 20.4697 8.2533 20.4697H15.7467C18.7986 20.4697 20.4697 18.7898 20.4697 15.7555C20.4697 15.3329 20.8122 14.9903 21.2348 14.9903C21.6574 14.9903 22 15.3329 22 15.7555C22 19.6077 19.6077 22 15.7555 22H8.2533C4.39226 22 2 19.6077 2 15.7555V8.2533C2 4.39226 4.39226 2 8.2533 2H15.7467C19.5902 2 22 4.39226 22 8.2533V10.5752ZM6.96042 16.6878V10.3465V10.285C6.96726 10.0827 7.05484 9.89166 7.20359 9.75448C7.35234 9.6173 7.54985 9.54544 7.75198 9.55497C7.95496 9.56185 8.14687 9.64914 8.28545 9.79761C8.42402 9.94608 8.49788 10.1436 8.49077 10.3465V16.7405C8.47619 17.1631 8.1218 17.4939 7.69921 17.4793C7.27662 17.4648 6.94585 17.1104 6.96042 16.6878ZM11.27 7.32102V16.6966C11.27 17.1192 11.6126 17.4617 12.0352 17.4617C12.4578 17.4617 12.8004 17.1192 12.8004 16.6966V7.32102C12.8004 6.89843 12.4578 6.55585 12.0352 6.55585C11.6126 6.55585 11.27 6.89843 11.27 7.32102ZM15.5092 16.6878V13.6974C15.5092 13.2749 15.8518 12.9323 16.2744 12.9323C16.697 12.9323 17.0396 13.2749 17.0396 13.6974V16.6878C17.0396 17.1104 16.697 17.4529 16.2744 17.4529C15.8518 17.4529 15.5092 17.1104 15.5092 16.6878Z" fill="#200E32"/>
</svg>
