<svg width="24" height="24" viewBox="0 0 24 24" fill="none" xmlns="http://www.w3.org/2000/svg">
<path fill-rule="evenodd" clip-rule="evenodd" d="M10.4815 2.114C10.9795 2.038 11.4905 2 12.0005 2C17.5145 2 22.0005 6.486 22.0005 12C22.0005 17.514 17.5145 22 12.0005 22C6.48649 22 2.00049 17.514 2.00049 12C2.00049 8.872 3.42349 5.983 5.90249 4.073C6.22049 3.828 6.67849 3.888 6.92249 4.205C7.16849 4.523 7.10749 4.979 6.79049 5.226C4.66949 6.857 3.45449 9.327 3.45449 12C3.45449 16.712 7.28749 20.546 12.0005 20.546C16.7125 20.546 20.5455 16.712 20.5455 12C20.5455 7.288 16.7125 3.454 12.0005 3.454C11.5635 3.454 11.1265 3.487 10.7015 3.552C10.3055 3.612 9.93449 3.34 9.87349 2.943C9.80749 2.544 10.0845 2.175 10.4815 2.114ZM11.9997 14.7942C11.8007 14.7942 11.6097 14.7152 11.4687 14.5732L7.99769 11.0872C7.70469 10.7932 7.70569 10.3182 7.99969 10.0262C8.29369 9.7342 8.76769 9.7342 9.05969 10.0282L11.9997 12.9812L14.9397 10.0282C15.2317 9.7342 15.7067 9.7342 16.0007 10.0262C16.2937 10.3182 16.2947 10.7932 16.0027 11.0872L12.5307 14.5732C12.3907 14.7152 12.1997 14.7942 11.9997 14.7942Z" fill="#200E32"/>
</svg>
