<svg width="24" height="24" viewBox="0 0 24 24" fill="none" xmlns="http://www.w3.org/2000/svg">
<path fill-rule="evenodd" clip-rule="evenodd" d="M13.5195 21.886C13.0215 21.962 12.5105 22 12.0005 22C6.48649 22 2.00049 17.514 2.00049 12C2.00049 6.486 6.48649 2 12.0005 2C17.5145 2 22.0005 6.486 22.0005 12C22.0005 15.128 20.5775 18.017 18.0985 19.927C17.7805 20.172 17.3225 20.112 17.0785 19.795C16.8325 19.477 16.8935 19.021 17.2105 18.774C19.3315 17.143 20.5465 14.673 20.5465 12C20.5465 7.288 16.7135 3.454 12.0005 3.454C7.28849 3.454 3.45549 7.288 3.45549 12C3.45549 16.712 7.28849 20.546 12.0005 20.546C12.4375 20.546 12.8745 20.513 13.2995 20.448C13.6955 20.388 14.0665 20.66 14.1275 21.057C14.1935 21.456 13.9165 21.825 13.5195 21.886ZM12.0013 9.2058C12.2003 9.2058 12.3913 9.2848 12.5323 9.4268L16.0033 12.9128C16.2963 13.2068 16.2953 13.6818 16.0013 13.9738C15.7073 14.2658 15.2333 14.2658 14.9413 13.9718L12.0013 11.0188L9.06129 13.9718C8.76929 14.2658 8.29429 14.2658 8.00029 13.9738C7.70729 13.6818 7.70629 13.2068 7.99829 12.9128L11.4703 9.4268C11.6103 9.2848 11.8013 9.2058 12.0013 9.2058Z" fill="#200E32"/>
</svg>
