<svg width="24" height="24" viewBox="0 0 24 24" fill="none" xmlns="http://www.w3.org/2000/svg">
<path fill-rule="evenodd" clip-rule="evenodd" d="M21.2442 11.5779C21.6612 11.5779 22.0002 11.2389 22.0002 10.8219V8.25288C22.0002 4.39188 19.5902 1.99988 15.7532 1.99988H8.25318C4.39218 1.99988 2.00018 4.39188 2.00018 8.25588V15.7559C2.00018 19.6079 4.39218 21.9999 8.25318 21.9999H15.7562C19.6082 21.9999 22.0002 19.6079 21.9972 15.7529C21.9972 15.3309 21.6542 14.9879 21.2322 14.9879C20.8092 14.9879 20.4672 15.3309 20.4672 15.7529C20.4672 18.7869 18.7962 20.4669 15.7532 20.4669H8.25318C5.21018 20.4669 3.53018 18.7869 3.53018 15.7529V8.25288C3.53018 5.20988 5.21018 3.52988 8.25618 3.52988H15.7562C18.8002 3.52988 20.4702 5.19988 20.4702 8.25288V10.7949V10.7969C20.4712 11.2189 20.8132 11.5599 21.2352 11.5599V11.5779H21.2442ZM9.81498 13.1453L9.13098 13.8293C8.82598 14.1193 8.80898 14.6003 9.09298 14.9113L9.11498 14.9273C9.40698 15.2193 9.87698 15.2273 10.178 14.9453L10.859 14.2643C11.168 13.9763 11.185 13.4923 10.897 13.1823C10.608 12.8743 10.124 12.8563 9.81498 13.1453ZM15.1428 14.8032C14.8488 15.0962 14.3738 15.1022 14.0728 14.8152L14.0348 14.7782L9.25478 9.99918C8.96278 9.68918 8.95678 9.20718 9.24178 8.89118C9.53378 8.59218 10.0118 8.58618 10.3108 8.87818C10.3138 8.88018 10.3158 8.88218 10.3188 8.88518L12.1838 10.7512L13.8808 9.05318C14.1858 8.76218 14.6668 8.76518 14.9688 9.06018C15.0228 9.11418 15.0688 9.17518 15.1038 9.24318C15.2768 9.54418 15.2268 9.92218 14.9818 10.1682L13.2918 11.8572L15.1298 13.6962C15.4398 13.9892 15.4518 14.4782 15.1578 14.7872C15.1555 14.7906 15.1526 14.7934 15.1496 14.7962C15.1473 14.7984 15.1449 14.8006 15.1428 14.8032Z" fill="#200E32"/>
</svg>
