<svg width="24" height="24" viewBox="0 0 24 24" fill="none" xmlns="http://www.w3.org/2000/svg">
<path fill-rule="evenodd" clip-rule="evenodd" d="M21.7494 17.1857C21.7664 17.2147 21.7804 17.2457 21.7934 17.2767C21.9124 17.5697 21.9804 17.8787 21.9974 18.1947C22.0364 18.9497 21.7794 19.6737 21.2724 20.2357C20.7664 20.7977 20.0714 21.1287 19.3164 21.1667L8.55937 21.1677C8.14537 21.1677 7.80937 20.8317 7.80937 20.4177C7.80937 20.0037 8.14537 19.6677 8.55937 19.6677H19.2784C19.5944 19.6497 19.9204 19.4957 20.1594 19.2307C20.3974 18.9667 20.5174 18.6277 20.4994 18.2727C20.4924 18.1387 20.4654 18.0067 20.4184 17.8807L13.1694 5.19469C12.8104 4.54569 11.9994 4.31169 11.3574 4.66669C11.1384 4.78769 10.9594 4.96669 10.8384 5.18569L3.58337 17.8817C3.46637 18.1997 3.47437 18.5447 3.60637 18.8577C3.74437 19.1847 4.00137 19.4387 4.33037 19.5717C4.46937 19.6287 4.61337 19.6607 4.76237 19.6687C5.17537 19.6887 5.49437 20.0417 5.47337 20.4557C5.45337 20.8557 5.12137 21.1677 4.72437 21.1677C4.71137 21.1677 4.69937 21.1677 4.68637 21.1667C4.36837 21.1507 4.05837 21.0817 3.76437 20.9617C3.06637 20.6777 2.51937 20.1377 2.22537 19.4417C1.93037 18.7457 1.92537 17.9757 2.21037 17.2757C2.22237 17.2447 2.23637 17.2147 2.25337 17.1857L9.53037 4.45069C9.78237 3.99469 10.1654 3.61269 10.6304 3.35369C11.9974 2.59769 13.7224 3.09369 14.4774 4.45969L21.7494 17.1857ZM12.0014 13.598C12.4154 13.598 12.7514 13.262 12.7514 12.848V10.021C12.7514 9.60699 12.4154 9.27099 12.0014 9.27099C11.5874 9.27099 11.2514 9.60699 11.2514 10.021V12.848C11.2514 13.262 11.5874 13.598 12.0014 13.598ZM12.0014 17.0189C12.4154 17.0189 12.7514 16.6829 12.7514 16.2689V16.2589C12.7514 15.8449 12.4154 15.5139 12.0014 15.5139C11.5874 15.5139 11.2514 15.8549 11.2514 16.2689C11.2514 16.6829 11.5874 17.0189 12.0014 17.0189Z" fill="#200E32"/>
</svg>
