<svg width="24" height="24" viewBox="0 0 24 24" fill="none" xmlns="http://www.w3.org/2000/svg">
<path fill-rule="evenodd" clip-rule="evenodd" d="M3.94625 13.0746C3.35625 12.4844 3.35625 11.5241 3.94625 10.9249L4.66625 10.2037C5.23625 9.63447 5.54625 8.88422 5.54625 8.08296V7.05263C5.54625 6.22236 6.22625 5.54213 7.05625 5.54213H8.08625C8.88625 5.54213 9.63625 5.23203 10.2063 4.66185L10.9263 3.94161C11.5063 3.36142 12.4563 3.35142 13.0563 3.92261C13.0662 3.9316 13.0663 3.93161 13.0762 3.94158L13.0763 3.94161C13.2063 4.06165 13.3863 4.14168 13.5863 4.14168C13.9963 4.14168 14.3363 3.81157 14.3363 3.39143C14.3363 3.19137 14.2563 3.01131 14.1263 2.87126C14.0863 2.83125 14.0463 2.80124 14.0063 2.77123C12.8263 1.70088 10.9963 1.7509 9.86625 2.88227L9.14625 3.6015C8.86625 3.88259 8.48625 4.04164 8.08625 4.04164H7.05625C5.39625 4.04164 4.04625 5.39208 4.04625 7.05263V8.08296C4.04625 8.48309 3.88625 8.86322 3.60625 9.14331L2.87625 9.87355C1.70625 11.0539 1.70625 12.9656 2.88625 14.1359C3.03625 14.285 3.22625 14.355 3.41625 14.355C3.60625 14.355 3.80625 14.275 3.94625 14.1359C4.23625 13.8348 4.23625 13.3647 3.94625 13.0746ZM20.3948 9.14631L21.1128 9.86454C21.6818 10.4297 21.9968 11.185 21.9998 11.9902C22.0018 12.7955 21.6908 13.5527 21.1238 14.1229L20.3938 14.8532C20.1158 15.1333 19.9558 15.5204 19.9548 15.9175V16.9449C19.9548 18.6054 18.6038 19.9568 16.9438 19.9568C16.5298 19.9568 16.1938 19.6207 16.1938 19.2066C16.1938 18.7925 16.5298 18.4563 16.9438 18.4563C17.7778 18.4563 18.4548 17.7781 18.4548 16.9449V15.9165C18.4558 15.1143 18.7668 14.36 19.3318 13.7938L20.0518 13.0726C20.3448 12.7785 20.5008 12.3984 20.4998 11.9942C20.4988 11.5911 20.3398 11.212 20.0538 10.9269L19.3328 10.2057C18.7668 9.63547 18.4558 8.88222 18.4548 8.08196V7.05263C18.4548 6.21835 17.7778 5.54113 16.9438 5.54113C16.5298 5.54113 16.1938 5.20502 16.1938 4.79089C16.1938 4.37675 16.5298 4.04064 16.9438 4.04064C18.6038 4.04064 19.9548 5.39108 19.9548 7.05263V8.08096C19.9558 8.48209 20.1118 8.86122 20.3948 9.14631ZM11.9993 20.5015C12.4093 20.5175 12.7853 20.3445 13.0713 20.0554C13.3633 19.7633 13.8383 19.7603 14.1323 20.0524C14.4253 20.3455 14.4263 20.8206 14.1343 21.1147C13.5473 21.7049 12.7733 22 11.9993 22C11.2313 22 10.4623 21.7089 9.87625 21.1257L9.14625 20.3955C8.86325 20.1144 8.48425 19.9573 8.08125 19.9563H7.05525C5.39525 19.9563 4.04425 18.6059 4.04425 16.9454C4.04425 16.5312 4.38025 16.1951 4.79425 16.1951C5.20825 16.1951 5.54425 16.5312 5.54425 16.9454C5.54425 17.7786 6.22125 18.4558 7.05525 18.4558H8.08325C8.88425 18.4568 9.63825 18.7689 10.2053 19.3321L10.9263 20.0544C11.2183 20.3455 11.5973 20.5015 11.9993 20.5015ZM8.89945 14.0387C8.60645 14.3318 8.60645 14.807 8.89945 15.1C9.04545 15.2461 9.23745 15.3191 9.42945 15.3191C9.62145 15.3191 9.81345 15.2461 9.96045 15.1L15.0995 9.95837C15.3925 9.66528 15.3925 9.19012 15.0995 8.89703C14.8065 8.60393 14.3325 8.60393 14.0395 8.89703L8.89945 14.0387ZM9.42055 8.57522C9.89955 8.57522 10.2886 8.96435 10.2886 9.44351C10.2886 9.92266 9.89955 10.3108 9.42055 10.3108C8.94155 10.3108 8.55255 9.92266 8.55255 9.44351C8.55255 8.96435 8.94155 8.57522 9.42055 8.57522ZM14.5696 13.7038C15.0486 13.7038 15.4376 14.0929 15.4376 14.5721C15.4376 15.0512 15.0486 15.4404 14.5696 15.4404C14.0896 15.4404 13.7016 15.0512 13.7016 14.5721C13.7016 14.0929 14.0896 13.7038 14.5696 13.7038Z" fill="#200E32"/>
</svg>
