<svg width="24" height="24" viewBox="0 0 24 24" fill="none" xmlns="http://www.w3.org/2000/svg">
<path fill-rule="evenodd" clip-rule="evenodd" d="M2.24171 9.81747C3.26279 5.24577 7.31703 1.99656 11.996 2.00001C12.7279 1.99908 13.4575 2.08155 14.1707 2.24583C16.769 2.81778 19.0313 4.40571 20.4542 6.65634C21.8771 8.90696 22.3425 11.6336 21.7469 14.2296C21.6951 14.5175 21.4869 14.7523 21.2074 14.838C20.928 14.9237 20.6242 14.8459 20.4201 14.6364C20.2161 14.4269 20.1461 14.1208 20.2387 13.8433C21.1745 9.65891 18.8162 5.43964 14.7647 4.04941C10.7132 2.65918 6.26573 4.54316 4.44111 8.42254C2.6165 12.3019 3.999 16.9345 7.65021 19.1758C11.3014 21.4172 16.0522 20.5495 18.6779 17.1619C18.9599 16.9004 19.3901 16.8836 19.6918 17.1221C19.9934 17.3606 20.0767 17.7835 19.888 18.1188C17.0247 21.8239 11.9761 23.0422 7.74127 21.05C3.50644 19.0578 1.22063 14.3892 2.24171 9.81747ZM12.1322 14.4176C11.9601 14.0548 12.0908 13.6204 12.4345 13.4131L13.022 13.1234L14.0041 9.9804L10.935 10.9461L9.53199 15.4324C9.4058 15.8394 8.97419 16.0673 8.56742 15.9416C8.37013 15.881 8.20529 15.7438 8.10973 15.5607C8.01416 15.3776 7.99583 15.1638 8.05883 14.967L9.58461 10.0858C9.66366 9.84662 9.85301 9.66031 10.0932 9.58533L14.9687 8.05773C15.1161 8.00479 15.2772 8.00479 15.4246 8.05773C15.6213 8.11636 15.7861 8.25181 15.8817 8.43353C15.9774 8.61524 15.996 8.82788 15.9332 9.02346L14.3724 13.9135C14.3102 14.1163 14.1675 14.2845 13.9778 14.3788L13.1009 14.8178C12.7233 14.9535 12.3044 14.7805 12.1322 14.4176Z" fill="#200E32"/>
</svg>
