<svg width="24" height="24" viewBox="0 0 24 24" fill="none" xmlns="http://www.w3.org/2000/svg">
<path fill-rule="evenodd" clip-rule="evenodd" d="M8.54783 11.7713C8.84983 11.4727 9.33683 11.4737 9.63682 11.7733L11.2298 13.3654V3.26622C11.2298 2.84331 11.5748 2.5 11.9998 2.5C12.4248 2.5 12.7708 2.84331 12.7708 3.26622V15.2212C12.7708 15.5317 12.5828 15.8113 12.2938 15.9297C12.0058 16.0482 11.6738 15.9815 11.4538 15.7626L8.54583 12.8549C8.39684 12.7057 8.32184 12.5096 8.32184 12.3136C8.32184 12.1176 8.39684 11.9205 8.54783 11.7713ZM13.6402 13.5911C13.4872 13.4418 13.4112 13.2448 13.4112 13.0468C13.4112 12.8527 13.4852 12.6577 13.6342 12.5074L14.3612 11.775C14.6602 11.4745 15.1472 11.4715 15.4502 11.7691C15.7532 12.0656 15.7552 12.5502 15.4562 12.8527L14.7282 13.5861C14.4302 13.8866 13.9422 13.8896 13.6402 13.5911ZM7.21695 20.699C7.21695 20.2572 6.87195 19.8986 6.44696 19.8986C4.84397 19.8986 3.53998 18.543 3.53998 16.8766V11.8099C3.53998 10.1508 4.83997 8.79934 6.43696 8.79934H7.37795C7.80294 8.79934 8.14794 8.4407 8.14794 7.99889C8.14794 7.55709 7.80294 7.19844 7.37795 7.19844H6.43696C3.98998 7.19844 2 9.26714 2 11.8099V16.8766C2 19.4256 3.99498 21.4995 6.44696 21.4995C6.87195 21.4995 7.21695 21.1408 7.21695 20.699ZM22 11.8208V16.8875C22 19.4303 20.01 21.5 17.563 21.5H9.94912C9.52412 21.5 9.18013 21.1403 9.18013 20.6996C9.18013 20.2567 9.52412 19.8981 9.94912 19.8981H17.563C19.16 19.8981 20.46 18.5477 20.46 16.8875V11.8208C20.46 10.1544 19.156 8.79882 17.553 8.79882H16.6221C16.1971 8.79882 15.8531 8.44122 15.8531 7.99837C15.8531 7.55657 16.1971 7.19792 16.6221 7.19792H17.553C20.005 7.19792 22 9.27182 22 11.8208Z" fill="#200E32"/>
</svg>
