<svg width=\"24" height="24" viewBox="0 0 24 24" fill="none" xmlns="http://www.w3.org/2000/svg">
<path fill-rule="evenodd" clip-rule="evenodd" d="M7.35305 12.1942L7.2599 15.9042C7.25589 16.1022 7.33102 16.2932 7.46924 16.4352C7.60847 16.5782 7.79878 16.6582 7.99711 16.6582H11.6831C12.4494 16.6582 13.1706 16.3602 13.7135 15.8182L21.0975 8.4461C21.6805 7.86509 22 7.09208 22 6.27006C22 5.45005 21.6805 4.67604 21.0975 4.09503L19.9006 2.90001C18.6986 1.7 16.7444 1.7 15.5434 2.90001L8.19343 10.2381C7.67057 10.7601 7.37208 11.4551 7.35305 12.1942ZM8.82746 12.2312C8.83748 11.8721 8.98172 11.5331 9.23713 11.2791L14.9385 5.58605L16.8115 7.45808C16.9558 7.60108 17.1441 7.67308 17.3334 7.67308C17.5217 7.67308 17.711 7.60108 17.8552 7.45808C18.1427 7.16908 18.1427 6.70407 17.8552 6.41607L15.9812 4.54504L16.5861 3.94103C17.2122 3.31602 18.2308 3.31602 18.8579 3.94103L20.0548 5.13705C20.6808 5.76206 20.6808 6.77907 20.0548 7.40508L12.6707 14.7772C12.4063 15.0412 12.0557 15.1852 11.6831 15.1852H8.75434L8.82746 12.2312ZM2.73841 12.4431C3.14507 12.4431 3.47561 12.1131 3.47561 11.707V7.93799C3.47561 5.24795 5.1173 3.50992 7.65845 3.50992H11.3355C11.7431 3.50992 12.0737 3.18092 12.0737 2.77391C12.0737 2.36791 11.7431 2.0379 11.3355 2.0379H7.65845C4.27392 2.0379 2.0002 4.40894 2.0002 7.93799V11.707C2.0002 12.1131 2.33074 12.4431 2.73841 12.4431ZM21.2585 11.4098C20.8508 11.4098 20.5213 11.7388 20.5213 12.1459V16.0999C20.5213 18.79 18.8786 20.527 16.3364 20.527H7.65825C5.1171 20.527 3.47641 18.79 3.47641 16.0999C3.47641 15.6939 3.14587 15.3639 2.73821 15.3639C2.33154 15.3639 2 15.6939 2 16.0999C2 19.629 4.27372 22 7.65825 22H16.3364C19.722 22 21.9957 19.629 21.9957 16.0999V12.1459C21.9957 11.7388 21.6652 11.4098 21.2585 11.4098Z" fill="#200E32"/>
</svg>