<svg width="24" height="24" viewBox="0 0 24 24" fill="none" xmlns="http://www.w3.org/2000/svg">
<path fill-rule="evenodd" clip-rule="evenodd" d="M8.72987 17.823C8.72987 18.2655 9.07586 18.6257 9.50185 18.6257C9.92784 18.6257 10.2738 18.2655 10.2738 17.823V13.8394C10.2738 13.6353 10.1998 13.4395 10.0648 13.2896L3.70197 6.21474C3.60097 6.10229 3.54397 5.9534 3.54397 5.7993V4.21669C3.54397 3.88247 3.80696 3.60864 4.12896 3.60864H7.2179C7.64389 3.60864 7.98988 3.24839 7.98988 2.80484C7.98988 2.36129 7.64389 2 7.2179 2H4.12896C2.95498 2 2 2.99434 2 4.21669V5.7993C2 6.36467 2.204 6.90192 2.57499 7.31527L8.72987 14.1569V17.823ZM8.88926 21.5406C9.02026 21.83 9.29925 22 9.59025 22C9.69925 22 9.81024 21.9763 9.91524 21.9258L14.2362 19.8554C14.5071 19.7256 14.6821 19.4454 14.6821 19.1354V14.0458L21.361 7.2896C21.767 6.88066 22 6.31 22 5.72492V4.19321C22 2.98391 21.044 2.0002 19.87 2.0002H10.9712C10.5452 2.0002 10.1992 2.35763 10.1992 2.79541C10.1992 3.23525 10.5452 3.59165 10.9712 3.59165H19.87C20.193 3.59165 20.455 3.86256 20.455 4.19321V5.72492C20.455 5.88458 20.392 6.04115 20.28 6.15343L13.3692 13.1455C13.2212 13.2949 13.1372 13.4999 13.1372 13.7131V18.6276L9.26426 20.4827C8.87726 20.6681 8.71027 21.1409 8.88926 21.5406Z" fill="#200E32"/>
</svg>
