<svg width="24" height="24" viewBox="0 0 24 24" fill="none" xmlns="http://www.w3.org/2000/svg">
<path d="M21.2352 12.6772C21.6576 12.6772 22 12.3346 22 11.9121V10.8918C22 6.84609 20.1978 4.876 16.5055 4.876H13.7802C13.3366 4.8781 12.9173 4.67324 12.6462 4.32191L11.767 3.15216C11.1991 2.42311 10.3261 1.99777 9.4022 2.00001H7.48571C3.84615 2.00001 2 4.10203 2 8.2533V15.7555C2 19.6077 4.39121 22 8.25055 22H15.7407C19.5912 22 21.9912 19.6077 21.9912 15.7555C21.9491 15.3622 21.6174 15.0639 21.222 15.0639C20.8266 15.0639 20.4948 15.3622 20.4527 15.7555C20.4527 18.7898 18.7824 20.4697 15.7407 20.4697H8.24176C5.2 20.4697 3.52967 18.7986 3.52967 15.7555V15.0255H15.8374C16.2598 15.0255 16.6022 14.6829 16.6022 14.2603C16.6022 13.8377 16.2598 13.4952 15.8374 13.4952H3.52967V8.21812C3.52967 4.91118 4.70769 3.49517 7.47692 3.49517H9.41099C9.85461 3.50173 10.2715 3.70863 10.5451 4.05806L11.4242 5.219C11.9822 5.95874 12.8539 6.3948 13.7802 6.39754H16.4967C19.3538 6.39754 20.4615 7.67283 20.4615 10.8918V11.9121C20.4615 12.1165 20.5433 12.3125 20.6887 12.4562C20.834 12.6 21.0308 12.6796 21.2352 12.6772Z" fill="#200E32"/>
</svg>
