<svg width="24" height="24" viewBox="0 0 24 24" fill="none" xmlns="http://www.w3.org/2000/svg">
<path fill-rule="evenodd" clip-rule="evenodd" d="M17.5206 2.8027C19.1348 3.30469 20.4771 4.45775 21.2354 5.99382C22.122 7.85558 22.2427 10.0008 21.5707 11.9536C20.9521 13.7513 19.938 15.3809 18.6059 16.7178C17.7325 17.6155 16.7914 18.442 15.7912 19.1898L15.7383 19.2347C15.406 19.4584 14.9591 19.3706 14.7324 19.037C14.6171 18.8759 14.5708 18.674 14.6041 18.4776C14.6373 18.2811 14.7473 18.1067 14.9088 17.9942C15.8474 17.2871 16.7323 16.5088 17.5559 15.6661C18.7421 14.4987 19.648 13.0683 20.203 11.4861C20.7368 9.90956 20.6288 8.18086 19.903 6.68598C19.3189 5.51 18.2899 4.62715 17.053 4.24096C15.4753 3.73838 13.7565 4.04305 12.4382 5.05896C12.1762 5.25674 11.818 5.25674 11.5559 5.05896C10.2382 4.04164 8.5187 3.73684 6.94115 4.24096C5.69596 4.61862 4.65663 5.4988 4.06466 6.67699C3.35526 8.17077 3.25377 9.88955 3.78231 11.4592C4.33967 13.0376 5.24529 14.4645 6.42938 15.6301C8.179 17.3392 10.1083 18.8465 12.1824 20.1246C12.4461 20.3111 12.5621 20.6493 12.4697 20.9625C12.3773 21.2757 12.0974 21.4927 11.7765 21.5C11.6318 21.5008 11.4903 21.457 11.3706 21.3741C9.21007 20.0429 7.20077 18.4723 5.37938 16.6908C4.03993 15.3583 3.02208 13.7276 2.40583 11.9266C1.75701 9.97655 1.8902 7.84437 2.77642 5.99382C3.5347 4.45775 4.87695 3.30469 6.49115 2.8027C8.34706 2.21871 10.3607 2.48784 12.0059 3.53981C13.6511 2.48784 15.6647 2.21871 17.5206 2.8027ZM16.7971 9.68833C16.7602 8.85762 16.2172 8.13914 15.4383 7.89052C15.1487 7.70632 15.02 7.34441 15.1267 7.01402C15.2334 6.68363 15.5479 6.47024 15.8883 6.49721C17.2039 6.92033 18.1404 8.10845 18.2618 9.50855C18.2867 9.70431 18.2335 9.90206 18.1141 10.0575C17.9946 10.213 17.819 10.3131 17.6265 10.3355C17.2224 10.3887 16.8519 10.0997 16.7971 9.68833Z" fill="#200E32"/>
</svg>
