<svg id="Iconly_Broken_Heart" data-name="Iconly/Broken/Heart" xmlns="http://www.w3.org/2000/svg" width="20" height="19" viewBox="0 0 20 19">
  <g id="Heart" transform="translate(0 0)">
    <path id="Path_34119" d="M19.235,3.494A6.208,6.208,0,0,0,15.521.3a6.565,6.565,0,0,0-5.515.737A6.565,6.565,0,0,0,4.491.3,6.208,6.208,0,0,0,.776,3.494,7.945,7.945,0,0,0,.406,9.427a12.364,12.364,0,0,0,2.974,4.764,34.307,34.307,0,0,0,5.991,4.683A.705.705,0,0,0,9.776,19a.743.743,0,0,0,.693-.537.763.763,0,0,0-.287-.838A33.042,33.042,0,0,1,4.429,13.13,10.981,10.981,0,0,1,1.782,8.959a6.4,6.4,0,0,1,.282-4.782A4.778,4.778,0,0,1,4.941,1.741a5.033,5.033,0,0,1,4.615.818.73.73,0,0,0,.882,0,5.042,5.042,0,0,1,4.615-.818A4.78,4.78,0,0,1,17.9,4.186a6.345,6.345,0,0,1,.3,4.8,10.946,10.946,0,0,1-2.647,4.18,23.352,23.352,0,0,1-2.647,2.328.738.738,0,0,0-.3.483.748.748,0,0,0,.128.559.724.724,0,0,0,1.006.2l.053-.045a23.865,23.865,0,0,0,2.815-2.472,12.518,12.518,0,0,0,2.965-4.764A7.9,7.9,0,0,0,19.235,3.494Z" fill="#200e32"/>
  </g>
</svg>
