<svg width="24" height="24" viewBox="0 0 24 24" fill="none" xmlns="http://www.w3.org/2000/svg">
<path fill-rule="evenodd" clip-rule="evenodd" d="M12.0001 9.5998C10.6551 9.5998 9.56112 10.6757 9.56112 12.0007C9.56112 12.3915 9.66712 12.7636 9.84712 13.1013L13.1191 9.88035C12.7771 9.70415 12.3951 9.5998 12.0001 9.5998ZM19.3851 3.71115C19.6711 3.42962 20.1341 3.42962 20.4201 3.71115C20.7061 3.99269 20.7061 4.44846 20.4201 4.73L4.61512 20.2884C4.47212 20.4291 4.28512 20.5 4.09812 20.5C3.91012 20.5 3.72312 20.4291 3.58012 20.2884C3.29412 20.0068 3.29412 19.551 3.58012 19.2705L8.77612 14.1546C8.33712 13.5246 8.09812 12.7814 8.09812 12.0007C8.09812 9.88232 9.84812 8.15963 12.0001 8.15963C12.7871 8.15963 13.5531 8.39785 14.1901 8.82508L16.2241 6.82381C13.3561 4.98693 9.85912 5.14443 7.12712 7.27368C5.68412 8.39096 4.44512 10.0211 3.53212 12.0017C3.93812 12.8867 4.41012 13.7028 4.93612 14.4312C5.17012 14.7551 5.09312 15.2049 4.76412 15.4353C4.63512 15.5259 4.48712 15.5692 4.34012 15.5692C4.11112 15.5692 3.88612 15.4648 3.74312 15.266C3.10112 14.3771 2.53412 13.374 2.05913 12.2842C1.98013 12.1031 1.98013 11.8964 2.06013 11.7153C3.08112 9.38816 4.51912 7.46071 6.22112 6.14261C9.51912 3.57432 13.8511 3.44734 17.2771 5.78724L19.3851 3.71115ZM21.94 11.7142C21.407 10.5044 20.771 9.40971 20.047 8.46371C19.803 8.14575 19.345 8.08177 19.023 8.32097C18.699 8.56117 18.635 9.01202 18.878 9.32998C19.475 10.1106 20.009 11.0074 20.468 12.0006C18.592 16.0662 15.445 18.4829 12 18.4829C11.22 18.4829 10.444 18.3579 9.69402 18.1118C9.30902 17.9887 8.89602 18.1895 8.76902 18.5675C8.64102 18.9446 8.84802 19.3521 9.23102 19.4791C10.13 19.7744 11.062 19.924 12 19.924C16.127 19.924 19.843 17.0683 21.94 12.2851C22.02 12.104 22.02 11.8963 21.94 11.7142ZM14.3907 12.4276C14.2127 13.4021 13.4287 14.1759 12.4387 14.3521C12.0407 14.4239 11.7767 14.799 11.8487 15.1908C11.9127 15.5383 12.2217 15.7814 12.5677 15.7814C12.6117 15.7814 12.6557 15.7775 12.6997 15.7706C14.2877 15.4861 15.5467 14.2457 15.8307 12.6825C15.9027 12.2898 15.6377 11.9157 15.2397 11.8458C14.8447 11.7749 14.4617 12.0378 14.3907 12.4276Z" fill="#200E32"/>
</svg>
