<svg width="24" height="24" viewBox="0 0 24 24" fill="none" xmlns="http://www.w3.org/2000/svg">
<path fill-rule="evenodd" clip-rule="evenodd" d="M20.1522 7.59129C20.8642 8.16394 21.2822 9.02545 21.2913 9.93912L21.2826 17.913C21.2826 20.0789 19.5268 21.8348 17.3609 21.8348H15.6217C14.5734 21.8348 13.7222 20.9875 13.7174 19.9391V16.3391C13.7174 16.0606 13.4916 15.8348 13.213 15.8348H10.6043C10.4691 15.8347 10.3394 15.8891 10.2446 15.9855C10.1498 16.082 10.0977 16.2126 10.1 16.3478V17.7217C10.1 18.1539 9.74961 18.5043 9.31739 18.5043C8.88517 18.5043 8.53478 18.1539 8.53478 17.7217V16.3478C8.53478 15.7966 8.75374 15.268 9.14349 14.8783C9.53324 14.4885 10.0619 14.2696 10.613 14.2696H13.2217C14.3661 14.2743 15.2913 15.2034 15.2913 16.3478V19.9391C15.2913 20.1216 15.4392 20.2696 15.6217 20.2696H17.4043C18.701 20.2696 19.7522 19.2184 19.7522 17.9217V9.95651C19.7458 9.51525 19.5415 9.10021 19.1957 8.82607L13.187 4.03477C12.4293 3.41097 11.336 3.41097 10.5783 4.03477L8.64783 5.47825C8.29004 5.73518 7.79172 5.65342 7.53478 5.29564C7.27785 4.93785 7.35961 4.43953 7.71739 4.18259L9.62174 2.79999C10.9421 1.73863 12.8231 1.73863 14.1435 2.79999L20.1522 7.59129ZM6.42174 20.2609H10.4217V20.2782C10.854 20.2782 11.2043 20.6286 11.2043 21.0609C11.2043 21.4931 10.854 21.8435 10.4217 21.8435H6.42174C4.25781 21.8387 2.50478 20.0857 2.5 17.9217V9.95651C2.51384 9.03608 2.94588 8.172 3.67391 7.60868L4.39565 7.06955C4.73552 6.90933 5.14129 7.01326 5.36229 7.31714C5.58329 7.62101 5.55714 8.03906 5.3 8.31303L4.59565 8.83477C4.26191 9.11204 4.06776 9.52262 4.06522 9.95651V17.913C4.07474 19.2091 5.12562 20.2561 6.42174 20.2609Z" fill="#200E32"/>
</svg>
