<svg width="24" height="24" viewBox="0 0 24 24" fill="none" xmlns="http://www.w3.org/2000/svg">
<path fill-rule="evenodd" clip-rule="evenodd" d="M16.3 21.949H12.98C12.566 21.949 12.23 21.613 12.23 21.199C12.23 20.785 12.566 20.449 12.98 20.449H16.3C18.827 20.449 20.46 18.722 20.46 16.05V7.899C20.46 5.226 18.827 3.5 16.3 3.5H7.65C5.129 3.5 3.5 5.226 3.5 7.899V16.05C3.5 18.722 5.129 20.449 7.65 20.449H8.371C8.785 20.449 9.121 20.785 9.121 21.199C9.121 21.613 8.785 21.949 8.371 21.949H7.65C4.271 21.949 2 19.578 2 16.05V7.899C2 4.371 4.271 2 7.65 2H16.3C19.686 2 21.96 4.371 21.96 7.899V16.05C21.96 19.578 19.686 21.949 16.3 21.949ZM5.2815 17.1824C5.0965 17.1824 4.9105 17.1144 4.7655 16.9774C4.4655 16.6924 4.4525 16.2174 4.7375 15.9164L6.2665 14.3024C6.6745 13.8704 7.2265 13.6314 7.8215 13.6294C8.3955 13.6674 8.9705 13.8624 9.3825 14.2904L10.2635 15.1884C10.4005 15.3284 10.5805 15.4064 10.7815 15.3924C10.9775 15.3834 11.1545 15.2954 11.2795 15.1434L13.5085 12.4314C13.9485 11.8964 14.5985 11.5724 15.2915 11.5434C15.9825 11.5224 16.6585 11.7854 17.1405 12.2824L19.2175 14.4234C19.5055 14.7214 19.4985 15.1964 19.2005 15.4844C18.9035 15.7734 18.4285 15.7644 18.1405 15.4684L16.0635 13.3274C15.8755 13.1334 15.6295 13.0244 15.3525 13.0424C15.0825 13.0534 14.8395 13.1754 14.6675 13.3844L12.4385 16.0964C12.0455 16.5744 11.4655 16.8644 10.8475 16.8914C10.2285 16.9044 9.6265 16.6804 9.1925 16.2394L8.3065 15.3354C8.1765 15.2014 8.0115 15.0834 7.8275 15.1294C7.6465 15.1304 7.4795 15.2034 7.3555 15.3334L5.8255 16.9484C5.6785 17.1044 5.4805 17.1824 5.2815 17.1824ZM8.5603 11.6376C7.1793 11.6376 6.0563 10.5146 6.0563 9.1336C6.0563 7.7526 7.1793 6.6296 8.5603 6.6296C9.9403 6.6296 11.0633 7.7526 11.0633 9.1336C11.0633 10.5146 9.9403 11.6376 8.5603 11.6376ZM8.5603 8.1296C8.0063 8.1296 7.5563 8.5796 7.5563 9.1336C7.5563 9.6876 8.0063 10.1376 8.5603 10.1376C9.1133 10.1376 9.5633 9.6876 9.5633 9.1336C9.5633 8.5796 9.1133 8.1296 8.5603 8.1296Z" fill="#200E32"/>
</svg>
