<svg width="24" height="24" viewBox="0 0 24 24" fill="none" xmlns="http://www.w3.org/2000/svg">
<path fill-rule="evenodd" clip-rule="evenodd" d="M15.7472 1.99982H8.25419C4.41019 1.99982 2.00019 4.39282 2.00019 8.25282V10.5748C1.99919 10.9968 2.34119 11.3398 2.76319 11.3398H2.76519H2.77419C3.19119 11.3398 3.53019 11.0018 3.53019 10.5838V10.5658V8.25282C3.53019 5.20982 5.21019 3.52982 8.25319 3.52982H15.7472C18.8002 3.52982 20.4702 5.20982 20.4702 8.25282V15.7528C20.4702 18.7958 18.7902 20.4668 15.7472 20.4668H8.25419C5.20219 20.4668 3.53119 18.7868 3.53119 15.7528C3.53119 15.3308 3.18819 14.9878 2.76619 14.9878C2.34319 14.9878 2.00119 15.3308 2.00119 15.7528C2.00019 19.6078 4.39219 21.9998 8.24419 21.9998H15.7472C19.6082 21.9998 22.0002 19.6078 22.0002 15.7558V8.25582C22.0002 4.39282 19.6082 1.99982 15.7472 1.99982ZM11.9947 16.5457C11.5807 16.5457 11.2447 16.2097 11.2447 15.7957V11.3757C11.2447 10.9617 11.5807 10.6257 11.9947 10.6257C12.4087 10.6257 12.7447 10.9617 12.7447 11.3757V15.7957C12.7447 16.2097 12.4087 16.5457 11.9947 16.5457ZM11.995 8.95392H12.005C12.419 8.95392 12.755 8.61792 12.755 8.20392C12.755 7.78992 12.419 7.45392 12.005 7.45392C11.591 7.45392 11.25 7.78992 11.25 8.20392C11.25 8.61792 11.581 8.95392 11.995 8.95392Z" fill="#200E32"/>
</svg>
