<svg width="24" height="24" viewBox="0 0 24 24" fill="none" xmlns="http://www.w3.org/2000/svg">
<path fill-rule="evenodd" clip-rule="evenodd" d="M11.9999 2H12.0333C16.7197 2.01842 20.5183 5.84197 20.4999 10.5223V10.6153C20.4366 13.96 18.4258 16.7356 16.7504 18.4746C16.2736 18.9718 15.7661 19.4489 15.2427 19.8944C14.9292 20.1619 14.4586 20.1251 14.1908 19.812C13.923 19.498 13.9607 19.028 14.2742 18.7605C14.7589 18.3475 15.2304 17.9037 15.6739 17.4416C17.1649 15.8946 18.9527 13.4487 19.0071 10.5881C19.022 6.65842 15.8916 3.50574 12.0272 3.48996H11.9999C8.14862 3.48996 5.00768 6.61194 4.99276 10.4609C5.05861 12.3622 5.70138 14.1696 6.85256 15.6859C8.19604 17.4749 10.2341 19.3691 12.1712 20.6302C12.5171 20.8547 12.6146 21.316 12.3889 21.6615C12.2467 21.8807 12.007 22 11.7628 22C11.6232 22 11.4827 21.9614 11.3563 21.879C9.28224 20.5293 7.0993 18.5 5.66011 16.5839C4.32453 14.8238 3.57727 12.7235 3.5 10.5127C3.51844 5.78585 7.32848 2 11.9999 2ZM10.2552 10.6141C10.2552 11.5727 11.0367 12.354 11.9973 12.354C12.9579 12.354 13.7394 11.5727 13.7394 10.6141C13.7394 9.65474 12.9579 8.87337 11.9973 8.87337C11.5855 8.87337 11.2509 8.54012 11.2509 8.12883C11.2509 7.71665 11.5855 7.38341 11.9973 7.38341C13.7807 7.38341 15.2322 8.83215 15.2322 10.6141C15.2322 12.3952 13.7807 13.844 11.9973 13.844C10.2139 13.844 8.76241 12.3952 8.76241 10.6141C8.76241 10.202 9.09696 9.86872 9.50879 9.86872C9.92061 9.86872 10.2552 10.202 10.2552 10.6141Z" fill="#200E32"/>
</svg>
