<svg width="24" height="24" viewBox="0 0 24 24" fill="none" xmlns="http://www.w3.org/2000/svg">
<path fill-rule="evenodd" clip-rule="evenodd" d="M12.0102 3.5H11.9929C9.86763 3.5 8.13673 5.194 8.12657 7.284V8.627H15.8724V7.301C15.8724 5.205 14.1395 3.5 12.0102 3.5ZM17.397 7.301V8.898C19.197 9.519 20.5 11.188 20.5 13.169V17.458C20.5 19.963 18.4286 22 15.8826 22H15.8531H12.4421C12.0213 22 11.6798 21.664 11.6798 21.25C11.6798 20.836 12.0213 20.5 12.4421 20.5H15.8531C17.5586 20.5 18.9449 19.136 18.9449 17.458C18.9449 17.4214 18.9545 17.3883 18.964 17.3552C18.9681 17.3412 18.9721 17.3272 18.9754 17.313V13.169C18.9754 11.491 17.5881 10.127 15.8826 10.127H8.11742C6.41193 10.127 5.02457 11.491 5.02457 13.169V17.313C5.02782 17.3283 5.032 17.3434 5.03619 17.3584C5.04511 17.3905 5.05405 17.4226 5.05405 17.458C5.05405 19.136 6.44141 20.5 8.1469 20.5C8.56768 20.5 8.90918 20.836 8.90918 21.25C8.90918 21.664 8.56768 22 8.1469 22C8.14334 22 8.14004 21.9995 8.13673 21.999C8.13343 21.9985 8.13013 21.998 8.12657 21.998C8.12504 21.998 8.12352 21.9985 8.122 21.999C8.12047 21.9995 8.11895 22 8.11742 22C5.57139 22 3.5 19.963 3.5 17.458V13.169C3.5 11.188 4.80198 9.519 6.602 8.898V7.301C6.61521 4.363 9.03013 2 11.9898 2H12.0132C14.98 2 17.397 4.378 17.397 7.301ZM12.7621 14.2028V16.4238C12.7621 16.8378 12.4206 17.1738 11.9998 17.1738C11.579 17.1738 11.2375 16.8378 11.2375 16.4238V14.2028C11.2375 13.7888 11.579 13.4528 11.9998 13.4528C12.4206 13.4528 12.7621 13.7888 12.7621 14.2028Z" fill="#200E32"/>
</svg>
