<svg width="24" height="24" viewBox="0 0 24 24" fill="none" xmlns="http://www.w3.org/2000/svg">
<path fill-rule="evenodd" clip-rule="evenodd" d="M11.8208 2H16.8875C19.4303 2 21.5 3.98998 21.5 6.43696V14.0509C21.5 14.4759 21.1403 14.8199 20.6996 14.8199C20.2567 14.8199 19.8981 14.4759 19.8981 14.0509V6.43696C19.8981 4.83997 18.5477 3.53998 16.8875 3.53998H11.8208C10.1544 3.53998 8.79882 4.84397 8.79882 6.44696V7.37795C8.79882 7.80294 8.44122 8.14694 7.99837 8.14694C7.55657 8.14694 7.19792 7.80294 7.19792 7.37795V6.44696C7.19792 3.99498 9.27182 2 11.8208 2ZM13.5911 10.3598C13.4418 10.5128 13.2448 10.5888 13.0468 10.5888C12.8527 10.5888 12.6577 10.5148 12.5074 10.3658L11.775 9.63882C11.4745 9.33983 11.4715 8.85283 11.7691 8.54983C12.0656 8.24684 12.5502 8.24484 12.8527 8.54383L13.5861 9.27183C13.8866 9.56982 13.8896 10.0578 13.5911 10.3598ZM11.7713 15.4522C11.4727 15.1502 11.4737 14.6632 11.7733 14.3632L13.3654 12.7702H3.26622C2.84331 12.7702 2.5 12.4252 2.5 12.0002C2.5 11.5752 2.84331 11.2292 3.26622 11.2292H15.2212C15.5317 11.2292 15.8113 11.4172 15.9297 11.7062C16.0482 11.9942 15.9815 12.3262 15.7626 12.5462L12.8549 15.4542C12.7057 15.6032 12.5096 15.6782 12.3136 15.6782C12.1176 15.6782 11.9205 15.6032 11.7713 15.4522ZM20.699 16.7831C20.2572 16.7831 19.8986 17.128 19.8986 17.553C19.8986 19.156 18.543 20.46 16.8766 20.46H11.8099C10.1508 20.46 8.79934 19.16 8.79934 17.563V16.6221C8.79934 16.1971 8.4407 15.8521 7.99889 15.8521C7.55709 15.8521 7.19844 16.1971 7.19844 16.6221V17.563C7.19844 20.01 9.26714 22 11.8099 22H16.8766C19.4256 22 21.4995 20.005 21.4995 17.553C21.4995 17.128 21.1408 16.7831 20.699 16.7831Z" fill="#200E32"/>
</svg>
