<svg width="24" height="24" viewBox="0 0 24 24" fill="none" xmlns="http://www.w3.org/2000/svg">
<path fill-rule="evenodd" clip-rule="evenodd" d="M3.50004 13.9489C3.50004 14.3527 3.16404 14.6804 2.75012 14.6804C2.3362 14.6804 2.00019 14.3527 2.00019 13.9489V6.71437C2.00019 4.39058 3.93831 2.5 6.32151 2.5H11.0675C13.4555 2.5 15.3985 4.39533 15.3985 6.72482V7.6093C15.3985 8.01212 15.0625 8.33988 14.6486 8.33988C14.2347 8.33988 13.8987 8.01212 13.8987 7.6093V6.72482C13.8987 5.20096 12.6287 3.96306 11.0675 3.96306H6.32151C4.76517 3.96306 3.50004 5.19811 3.50004 6.71437V13.9489ZM13.8985 16.3916C13.8985 15.9879 14.2345 15.6601 14.6484 15.6601C15.0623 15.6601 15.3983 15.9879 15.3983 16.3916V17.2856C15.3983 19.6094 13.4602 21.5 11.077 21.5H6.33008C3.94298 21.5 2 19.6047 2 17.2752C2 16.8714 2.336 16.5446 2.74992 16.5446C3.16384 16.5446 3.49985 16.8714 3.49985 17.2752C3.49985 18.799 4.76985 20.0369 6.33008 20.0369H11.077C12.6333 20.0369 13.8985 18.8028 13.8985 17.2856V16.3916ZM21.9433 11.7209C21.8274 11.4463 21.5537 11.2677 21.2499 11.2677H9.5491C9.13518 11.2677 8.7982 11.5964 8.7982 12.0002C8.7982 12.404 9.13518 12.7317 9.5491 12.7317H19.4345L17.8752 14.2461C17.5811 14.5311 17.5811 14.9938 17.8732 15.2807C18.0193 15.4241 18.2122 15.4963 18.404 15.4963C18.5959 15.4963 18.7868 15.4241 18.9339 15.2826L21.7797 12.5189C21.9939 12.3099 22.0592 11.9945 21.9433 11.7209ZM19.1218 10.6607C18.9309 10.6607 18.74 10.5895 18.594 10.4489L17.8762 9.7563C17.582 9.47223 17.5801 9.00862 17.8713 8.72265C18.1635 8.43384 18.6368 8.43194 18.9319 8.71695L19.6487 9.40858C19.9438 9.69359 19.9458 10.1563 19.6546 10.4432C19.5075 10.5876 19.3147 10.6607 19.1218 10.6607Z" fill="#200E32"/>
</svg>
