<svg width="24" height="24" viewBox="0 0 24 24" fill="none" xmlns="http://www.w3.org/2000/svg">
<path fill-rule="evenodd" clip-rule="evenodd" d="M2.00018 11.9998C2.00018 6.48482 6.48618 1.99982 12.0002 1.99982C17.5142 1.99982 22.0002 6.48482 22.0002 11.9998C22.0002 17.5138 17.5142 21.9998 12.0002 21.9998C8.87218 21.9998 5.98318 20.5768 4.07318 18.0978C3.82818 17.7788 3.88718 17.3218 4.20518 17.0778C4.52318 16.8318 4.97918 16.8928 5.22518 17.2098C6.85718 19.3298 9.32718 20.5458 12.0002 20.5458C16.7122 20.5458 20.5452 16.7128 20.5452 11.9998C20.5452 7.28782 16.7122 3.45382 12.0002 3.45382C7.28818 3.45382 3.45418 7.28782 3.45418 11.9998C3.45418 12.4378 3.48718 12.8728 3.55218 13.2988C3.61218 13.6948 3.33918 14.0658 2.94318 14.1268C2.54418 14.1928 2.17518 13.9158 2.11418 13.5188C2.03818 13.0208 2.00018 12.5098 2.00018 11.9998ZM7.52038 10.8038C8.18138 10.8038 8.71838 11.3408 8.71838 11.9998C8.71838 12.6598 8.18138 13.1968 7.52038 13.1968C6.86038 13.1968 6.32238 12.6598 6.32238 11.9998C6.32238 11.3408 6.86038 10.8038 7.52038 10.8038ZM11.9999 10.8038C12.6599 10.8038 13.1979 11.3408 13.1979 11.9998C13.1979 12.6598 12.6599 13.1968 11.9999 13.1968C11.3389 13.1968 10.8019 12.6598 10.8019 11.9998C10.8019 11.3408 11.3389 10.8038 11.9999 10.8038ZM17.6769 11.9998C17.6769 11.3408 17.1399 10.8038 16.4789 10.8038C15.8189 10.8038 15.2809 11.3408 15.2809 11.9998C15.2809 12.6598 15.8189 13.1968 16.4789 13.1968C17.1399 13.1968 17.6769 12.6598 17.6769 11.9998Z" fill="#200E32"/>
</svg>
