<svg width="24" height="24" viewBox="0 0 24 24" fill="none" xmlns="http://www.w3.org/2000/svg">
<path fill-rule="evenodd" clip-rule="evenodd" d="M8.25382 1.99982H15.7468C19.6078 1.99982 21.9998 4.39282 21.9998 8.25582V15.7558C21.9998 19.6078 19.6078 21.9998 15.7468 21.9998H8.24382C4.39182 21.9998 1.99982 19.6078 2.00082 15.7528C2.00082 15.3308 2.34382 14.9878 2.76582 14.9878C3.18882 14.9878 3.53082 15.3308 3.53082 15.7528C3.53082 18.7868 5.20182 20.4668 8.25382 20.4668H15.7468C18.7898 20.4668 20.4698 18.7958 20.4698 15.7528V8.25282C20.4698 5.20982 18.7998 3.52982 15.7468 3.52982H8.25282C5.20982 3.52982 3.52982 5.20982 3.52982 8.25282V10.5658V10.5838C3.52982 11.0018 3.19182 11.3398 2.77382 11.3398H2.76482H2.76282C2.34082 11.3398 1.99882 10.9968 1.99982 10.5748V8.25282C1.99982 4.39282 4.40982 1.99982 8.25382 1.99982ZM7.52052 10.8038C8.18152 10.8038 8.71852 11.3408 8.71852 11.9998C8.71852 12.6598 8.18152 13.1968 7.52052 13.1968C6.86052 13.1968 6.32252 12.6598 6.32252 11.9998C6.32252 11.3408 6.86052 10.8038 7.52052 10.8038ZM12 10.8038C12.661 10.8038 13.198 11.3408 13.198 11.9998C13.198 12.6598 12.661 13.1968 12 13.1968C11.34 13.1968 10.802 12.6598 10.802 11.9998C10.802 11.3408 11.34 10.8038 12 10.8038ZM17.677 11.9998C17.677 11.3408 17.14 10.8038 16.479 10.8038C15.819 10.8038 15.281 11.3408 15.281 11.9998C15.281 12.6598 15.819 13.1968 16.479 13.1968C17.14 13.1968 17.677 12.6598 17.677 11.9998Z" fill="#200E32"/>
</svg>
