<svg width="24" height="24" viewBox="0 0 24 24" fill="none" xmlns="http://www.w3.org/2000/svg">
<path fill-rule="evenodd" clip-rule="evenodd" d="M15.2411 2.24465L20.2916 7.55651C20.4252 7.69746 20.5 7.88472 20.5 8.08004V17.3315C20.5 19.8626 18.4553 22 16.0337 22H8.07002C5.50686 22 3.5 19.9492 3.5 17.3315V14.8085C3.5 14.3916 3.83498 14.0534 4.24771 14.0534C4.66045 14.0534 4.99543 14.3916 4.99543 14.8085V17.3315C4.99543 19.1316 6.31639 20.4898 8.07002 20.4898H16.0337C17.6447 20.4898 19.0046 19.043 19.0046 17.3315V8.38309L15.1873 4.36798V5.68487C15.1873 6.6957 16.0018 7.52026 17.0027 7.52228C17.4154 7.52328 17.7494 7.86157 17.7484 8.27939C17.7474 8.69519 17.4134 9.03247 17.0007 9.03247H16.9997C15.1763 9.02844 13.6918 7.52731 13.6918 5.68487V3.52228H8.07002C6.40312 3.52228 4.99543 4.89554 4.99543 6.52152V10.7038C4.99543 11.1206 4.66045 11.4588 4.24771 11.4588C3.83498 11.4588 3.5 11.1206 3.5 10.7038V6.52152C3.5 4.07702 5.5926 2.01208 8.07002 2.01208H14.3817C14.3913 2.01116 14.4 2.00855 14.4086 2.006C14.4188 2.00296 14.4287 2 14.4395 2C14.4512 2 14.4616 2.00313 14.472 2.00624C14.4803 2.00872 14.4885 2.01119 14.4974 2.01208H14.7017C14.9051 2.01208 15.0995 2.09565 15.2411 2.24465ZM12.3632 16.1093C12.3632 16.5262 12.0282 16.8644 11.6155 16.8644C11.2027 16.8644 10.8678 16.5262 10.8678 16.1093V11.319L9.31551 12.8946C9.0244 13.1906 8.55085 13.1906 8.25775 12.8967C7.96564 12.6027 7.96464 12.1244 8.25575 11.8284L11.0861 8.95807V8.95706C11.2217 8.82114 11.4091 8.73657 11.6155 8.73657C11.8228 8.73657 12.0093 8.82114 12.1449 8.95706V8.95807L14.9752 11.8284C15.2663 12.1244 15.2653 12.6027 14.9732 12.8967C14.8267 13.0426 14.6362 13.1161 14.4448 13.1161C14.2534 13.1161 14.062 13.0426 13.9154 12.8946L12.3632 11.319V16.1093Z" fill="#200E32"/>
</svg>
