<svg width="24" height="24" viewBox="0 0 24 24" fill="none" xmlns="http://www.w3.org/2000/svg">
<path fill-rule="evenodd" clip-rule="evenodd" d="M15.2411 2.24465L20.2916 7.55651C20.4252 7.69746 20.5 7.88472 20.5 8.08004V17.3315C20.5 19.8626 18.4553 22 16.0337 22H8.07002C5.50686 22 3.5 19.9492 3.5 17.3315V14.8085C3.5 14.3916 3.83498 14.0534 4.24771 14.0534C4.66045 14.0534 4.99543 14.3916 4.99543 14.8085V17.3315C4.99543 19.1316 6.31639 20.4898 8.07002 20.4898H16.0337C17.6447 20.4898 19.0046 19.043 19.0046 17.3315V8.38309L15.1873 4.36798V5.68487C15.1873 6.6957 16.0018 7.52026 17.0027 7.52228C17.4154 7.52328 17.7494 7.86157 17.7484 8.27939C17.7474 8.69519 17.4134 9.03247 17.0007 9.03247H16.9997C15.1763 9.02844 13.6918 7.52731 13.6918 5.68487V3.52228H8.07002C6.40312 3.52228 4.99543 4.89554 4.99543 6.52152V10.7038C4.99543 11.1206 4.66045 11.4588 4.24771 11.4588C3.83498 11.4588 3.5 11.1206 3.5 10.7038V6.52152C3.5 4.07702 5.5926 2.01208 8.07002 2.01208H14.3817C14.3906 2.01118 14.3992 2.00866 14.4077 2.00616C14.4181 2.00307 14.4285 2 14.4395 2C14.4512 2 14.4616 2.00313 14.472 2.00624C14.4803 2.00872 14.4885 2.01119 14.4974 2.01208H14.7017C14.9051 2.01208 15.0995 2.09565 15.2411 2.24465ZM10.8678 9.49147C10.8678 9.07465 11.2027 8.73637 11.6155 8.73637C12.0282 8.73637 12.3632 9.07465 12.3632 9.49147V14.2798L13.9144 12.7062C14.2066 12.4102 14.6791 12.4102 14.9722 12.7042C15.2653 12.9981 15.2663 13.4764 14.9752 13.7724L12.1459 16.6427C12.1454 16.6427 12.1449 16.643 12.1444 16.6432C12.1439 16.6435 12.1434 16.6437 12.1429 16.6437C12.0751 16.7122 11.9943 16.7676 11.9046 16.8058C11.8139 16.8441 11.7162 16.8642 11.6155 16.8642C11.5148 16.8642 11.4171 16.8441 11.3264 16.8058C11.2366 16.7676 11.1549 16.7112 11.0861 16.6427L8.25575 13.7724C7.96464 13.4764 7.96564 12.9981 8.25775 12.7042C8.55085 12.4102 9.0244 12.4102 9.31551 12.7062L10.8678 14.2808V9.49147Z" fill="#200E32"/>
</svg>
