<svg width="24" height="24" viewBox="0 0 24 24" fill="none" xmlns="http://www.w3.org/2000/svg">
<path fill-rule="evenodd" clip-rule="evenodd" d="M15.2411 2.24464L20.2916 7.55623C20.4252 7.69717 20.5 7.88443 20.5 8.07973V17.4435C20.5 19.9553 18.4971 22 16.0337 22H8.07002C5.46399 22 3.5 20.0409 3.5 17.4435V14.9206C3.5 14.5038 3.83498 14.1655 4.24771 14.1655C4.66045 14.1655 4.99543 14.5038 4.99543 14.9206V17.4435C4.99543 19.2083 6.28847 20.4899 8.07002 20.4899H16.0337C17.6726 20.4899 19.0046 19.1227 19.0046 17.4435V8.38276L15.1873 4.36887V5.68569C15.1873 6.69647 16.0018 7.51998 17.0027 7.522C17.4154 7.523 17.7494 7.86127 17.7484 8.27907C17.7474 8.69486 17.4134 9.03211 17.0007 9.03211H16.9997C15.1763 9.02809 13.6918 7.52703 13.6918 5.68569V3.5222H8.07002C6.40312 3.5222 4.99543 4.8954 4.99543 6.52129V10.8161C4.99543 11.2329 4.66045 11.5711 4.24771 11.5711C3.83498 11.5711 3.5 11.2329 3.5 10.8161V6.52129C3.5 4.07692 5.5926 2.01208 8.07002 2.01208H14.3817C14.3905 2.01119 14.3988 2.00872 14.407 2.00624C14.4174 2.00313 14.4279 2 14.4395 2C14.4512 2 14.4616 2.00313 14.472 2.00624C14.4803 2.00872 14.4885 2.01119 14.4974 2.01208H14.7017C14.9051 2.01208 15.0995 2.09564 15.2411 2.24464ZM15.009 13.8267C15.009 14.2435 14.674 14.5818 14.2613 14.5818H9.37523C8.96249 14.5818 8.62752 14.2435 8.62752 13.8267C8.62752 13.4099 8.96249 13.0717 9.37523 13.0717H14.2613C14.674 13.0717 15.009 13.4099 15.009 13.8267Z" fill="#200E32"/>
</svg>
