<svg width="24" height="24" viewBox="0 0 24 24" fill="none" xmlns="http://www.w3.org/2000/svg">
<path fill-rule="evenodd" clip-rule="evenodd" d="M15.2411 2.24464L20.2916 7.55623C20.4252 7.69717 20.5 7.88443 20.5 8.07973V17.4435C20.5 19.9553 18.4971 22 16.0337 22H8.1747C5.55372 22 3.5 19.9986 3.5 17.4435V14.9206C3.5 14.5038 3.83498 14.1655 4.24771 14.1655C4.66045 14.1655 4.99543 14.5038 4.99543 14.9206V17.4435C4.99543 19.1801 6.36224 20.4899 8.1747 20.4899H16.0337C17.6726 20.4899 19.0046 19.1227 19.0046 17.4435V8.38276L15.1873 4.36887V5.68569C15.1873 6.69647 16.0018 7.51998 17.0027 7.522C17.4154 7.523 17.7494 7.86127 17.7484 8.27907C17.7474 8.69486 17.4134 9.03211 17.0007 9.03211H16.9997C15.1763 9.02809 13.6918 7.52703 13.6918 5.68569V3.5222H7.96434C6.32735 3.5222 4.99543 4.86721 4.99543 6.52129V10.8161C4.99543 11.2329 4.66045 11.5711 4.24771 11.5711C3.83498 11.5711 3.5 11.2329 3.5 10.8161V6.52129C3.5 4.03463 5.50287 2.01208 7.96434 2.01208H14.3827C14.3917 2.01118 14.4 2.00864 14.4083 2.00613C14.4185 2.00305 14.4286 2 14.4395 2C14.4512 2 14.4616 2.00313 14.472 2.00624C14.4803 2.00872 14.4885 2.01119 14.4974 2.01208H14.7017C14.9051 2.01208 15.0995 2.09564 15.2411 2.24464ZM10.0902 15.4885C9.89883 15.4885 9.70741 15.414 9.56186 15.267C9.26975 14.972 9.26975 14.4938 9.56186 14.1988L10.7612 12.9887L9.56186 11.7776C9.26975 11.4826 9.26975 11.0054 9.56186 10.7105C9.85396 10.4155 10.3275 10.4155 10.6196 10.7105L11.818 11.9216L13.0173 10.7105C13.3094 10.4155 13.7819 10.4155 14.0741 10.7105C14.3662 11.0054 14.3662 11.4826 14.0741 11.7776L12.8757 12.9887L14.0741 14.1988C14.3662 14.4938 14.3662 14.972 14.0741 15.267C13.9285 15.414 13.7371 15.4885 13.5457 15.4885C13.3543 15.4885 13.1628 15.414 13.0173 15.267L11.818 14.0569L10.6196 15.267C10.4731 15.414 10.2817 15.4885 10.0902 15.4885Z" fill="#200E32"/>
</svg>
