<svg width="24" height="24" viewBox="0 0 24 24" fill="none" xmlns="http://www.w3.org/2000/svg">
<path fill-rule="evenodd" clip-rule="evenodd" d="M7.66543 1.99982H16.3344C19.7234 1.99982 22.0004 4.37782 22.0004 7.91582V16.0838C22.0004 19.6218 19.7224 21.9998 16.3334 21.9998H10.9534C10.5394 21.9998 10.2034 21.6638 10.2034 21.2498C10.2034 20.8358 10.5394 20.4998 10.9534 20.4998H16.3334C18.8644 20.4998 20.5004 18.7668 20.5004 16.0838V7.91582C20.5004 5.23282 18.8644 3.49982 16.3344 3.49982H7.66543C5.13543 3.49982 3.50043 5.23282 3.50043 7.91582V16.0838C3.50043 18.7668 5.13543 20.4998 7.66543 20.4998C8.07943 20.4998 8.41543 20.8358 8.41543 21.2498C8.41543 21.6638 8.07943 21.9998 7.66543 21.9998C4.27643 21.9998 2.00043 19.6218 2.00043 16.0838V7.91582C2.00043 4.37782 4.27643 1.99982 7.66543 1.99982ZM6.46743 10.9324C6.63743 10.5544 7.07943 10.3854 7.45943 10.5564C7.83743 10.7254 8.00543 11.1694 7.83543 11.5474C7.77143 11.6904 7.73943 11.8424 7.73943 11.9994C7.73943 12.6074 8.23343 13.1014 8.84043 13.1014C9.44843 13.1014 9.94243 12.6074 9.94243 11.9994C9.94243 11.3924 9.44843 10.8984 8.84043 10.8984C8.42643 10.8984 8.09043 10.5624 8.09043 10.1484C8.09043 9.73442 8.42643 9.39842 8.84043 9.39842C10.0134 9.39842 10.9944 10.1824 11.3184 11.2494H17.0104C17.4244 11.2494 17.7604 11.5854 17.7604 11.9994V13.8514C17.7604 14.2654 17.4244 14.6014 17.0104 14.6014C16.5964 14.6014 16.2604 14.2654 16.2604 13.8514V12.7494H14.9314V13.8514C14.9314 14.2654 14.5954 14.6014 14.1814 14.6014C13.7674 14.6014 13.4314 14.2654 13.4314 13.8514V12.7494H11.3184C10.9944 13.8174 10.0134 14.6014 8.84043 14.6014C7.40643 14.6014 6.23943 13.4344 6.23943 11.9994C6.23943 11.6284 6.31543 11.2704 6.46743 10.9324Z" fill="#200E32"/>
</svg>
