<svg width="24" height="24" viewBox="0 0 24 24" fill="none" xmlns="http://www.w3.org/2000/svg">
<path fill-rule="evenodd" clip-rule="evenodd" d="M2.00011 11.9998C2.00011 6.48476 6.48611 1.99976 12.0001 1.99976C17.5141 1.99976 22.0001 6.48476 22.0001 11.9998C22.0001 17.5138 17.5141 21.9998 12.0001 21.9998C10.6051 21.9998 9.25511 21.7188 7.98711 21.1618C7.62111 21.0018 7.45511 20.5748 7.61511 20.2088C7.77511 19.8408 8.20111 19.6758 8.56911 19.8368C9.65211 20.3118 10.8061 20.5528 12.0001 20.5528C16.7151 20.5528 20.5521 16.7148 20.5521 11.9998C20.5521 7.28376 16.7151 3.44776 12.0001 3.44776C7.28411 3.44776 3.44811 7.28376 3.44811 11.9998C3.44811 13.8468 4.02611 15.6038 5.12211 17.0838C5.35911 17.4048 5.29211 17.8578 4.97111 18.0958C4.64911 18.3348 4.19611 18.2688 3.95811 17.9448C2.67711 16.2158 2.00011 14.1598 2.00011 11.9998ZM10.82 15.9692H10.856C11.149 15.9622 11.755 15.7102 11.761 15.7072C12.779 15.2782 14.794 13.9542 15.608 13.0782L15.657 13.0262C15.757 12.9202 15.906 12.7552 15.941 12.7082C16.091 12.5012 16.171 12.2552 16.171 12.0002C16.171 11.7312 16.08 11.4662 15.913 11.2532C15.886 11.2192 15.77 11.0932 15.676 10.9942L15.597 10.9092C14.805 10.0642 12.743 8.67316 11.66 8.25316C11.495 8.18816 11.087 8.03616 10.864 8.03016C10.652 8.02716 10.447 8.07216 10.251 8.17516C10.008 8.30716 9.81596 8.51916 9.71396 8.76616C9.63896 8.94216 9.53896 9.46516 9.53796 9.47316C9.43296 10.0522 9.37296 10.9732 9.37496 11.9992C9.37296 12.9692 9.42696 13.8582 9.52196 14.4362C9.52296 14.4422 9.63596 15.0892 9.75396 15.3182C9.95996 15.7162 10.378 15.9692 10.82 15.9692ZM10.962 9.73316C10.97 9.68716 10.984 9.61916 10.999 9.55016C11.053 9.57016 11.101 9.58816 11.132 9.60016C11.999 9.93716 13.91 11.2252 14.537 11.8962L14.621 11.9852C14.6228 11.987 14.6246 11.9889 14.6263 11.9908C14.6268 11.9914 14.6274 11.992 14.628 11.9927C14.6291 11.994 14.6303 11.9953 14.6315 11.9965C14.6326 11.9978 14.6338 11.999 14.635 12.0002C14.624 12.0102 14.614 12.0212 14.605 12.0312C14.604 12.0332 14.552 12.0922 14.547 12.0912C13.94 12.7472 12.126 13.9822 11.2 14.3722C11.1761 14.3819 11.1454 14.3938 11.1118 14.4067L11.1117 14.4068C11.0764 14.4204 11.0379 14.4353 11.001 14.4502C10.98 14.3582 10.961 14.2632 10.951 14.2012C10.869 13.7062 10.821 12.8822 10.822 11.9992C10.821 11.0832 10.875 10.2142 10.962 9.73316Z" fill="#200E32"/>
</svg>
