<svg width="24" height="24" viewBox="0 0 24 24" fill="none" xmlns="http://www.w3.org/2000/svg">
<path fill-rule="evenodd" clip-rule="evenodd" d="M12.0021 4C16.1381 4.00199 19.853 6.88632 21.94 11.7138C22.02 11.8966 22.02 12.1034 21.94 12.2872C21.692 12.8607 21.416 13.4183 21.118 13.9411C20.919 14.293 20.475 14.4152 20.121 14.2184C19.769 14.0196 19.645 13.5773 19.843 13.2275C20.065 12.8369 20.275 12.4244 20.468 12C18.601 7.89614 15.4531 5.45608 12.0001 5.45509C8.54617 5.45608 5.39821 7.89614 3.53123 12C5.39821 16.1039 8.54617 18.5449 12.0001 18.5449C14.0081 18.5449 15.9451 17.714 17.6021 16.1406C17.8951 15.8653 18.357 15.8753 18.636 16.1655C18.916 16.4547 18.904 16.9149 18.612 17.1922C16.6791 19.028 14.3941 19.999 12.0021 20H11.9981H11.9971C7.86218 19.998 4.14722 17.1147 2.05925 12.2872C1.98025 12.1044 1.98025 11.8966 2.05925 11.7138C4.14722 6.88632 7.86218 4.00199 11.9971 4H12.0001H12.0021ZM10.7486 14.0789C11.1246 14.3035 11.5576 14.4218 11.9996 14.4218C13.3426 14.4218 14.4356 13.3354 14.4356 11.9996C14.4356 10.6658 13.3426 9.57943 11.9996 9.57943C10.6566 9.57943 9.56366 10.6658 9.56366 11.9996C9.56366 12.4021 9.23566 12.7271 8.83166 12.7271C8.42767 12.7271 8.10067 12.4021 8.10067 11.9996C8.10067 9.86269 9.84965 8.12434 11.9996 8.12434C14.1496 8.12434 15.8986 9.86269 15.8986 11.9996C15.8986 14.1375 14.1496 15.8759 11.9996 15.8759C11.2916 15.8759 10.5986 15.685 9.99565 15.3242C9.64865 15.1185 9.53666 14.6712 9.74565 14.3264C9.95365 13.9835 10.4036 13.8692 10.7486 14.0789Z" fill="#200E32"/>
</svg>
