<svg width="24" height="24" viewBox="0 0 24 24" fill="none" xmlns="http://www.w3.org/2000/svg">
<path d="M17.4979 21.9194C17.3749 21.9224 17.2529 21.8914 17.1459 21.8294L12.0079 19.1234L7.4839 21.5594C6.7459 21.9594 5.8219 21.6854 5.4219 20.9464C5.4169 20.9374 5.4119 20.9284 5.4069 20.9184C5.2499 20.6094 5.1949 20.2604 5.2489 19.9184L6.1289 14.7244L2.4509 11.0004C1.8499 10.3804 1.8499 9.39438 2.4509 8.77338C2.6849 8.52738 2.9949 8.36838 3.3309 8.32238L8.3739 7.55638L10.6169 2.88338C10.9659 2.12338 11.8649 1.78938 12.6259 2.13838C12.9559 2.28938 13.2199 2.55438 13.3709 2.88338L15.6239 7.57238L20.6839 8.34738C21.0929 8.40838 21.4599 8.63438 21.6999 8.97138C22.1479 9.61538 22.0799 10.4854 21.5379 11.0524L17.8769 14.7324L18.3869 17.5314C18.4579 17.9514 18.1809 18.3524 17.7619 18.4314C17.3499 18.5054 16.9559 18.2314 16.8819 17.8184L16.3629 15.0194C16.2759 14.5064 16.4389 13.9824 16.8029 13.6114L20.4729 9.90538L15.4129 9.12038C14.8999 9.03738 14.4649 8.69738 14.2599 8.22038L12.0079 3.55138L9.7279 8.29438C9.5229 8.77238 9.0879 9.11138 8.5749 9.19438L3.5319 9.96038L7.1749 13.6604C7.5379 14.0254 7.7009 14.5424 7.6149 15.0494L6.7349 20.2434L11.2579 17.8174C11.7059 17.5654 12.2529 17.5654 12.7009 17.8174L17.8319 20.5234C18.1449 20.6944 18.3039 21.0554 18.2189 21.4024C18.1409 21.7494 17.8349 21.9964 17.4799 22.0024L17.4979 21.9194Z" fill="#200E32"/>
</svg>
