<svg width="24" height="24" viewBox="0 0 24 24" fill="none" xmlns="http://www.w3.org/2000/svg">
<path fill-rule="evenodd" clip-rule="evenodd" d="M12.395 21H17.858C20.142 21 22 19.159 22 16.8949V14.2195C22 13.8093 21.664 13.4764 21.25 13.4764C20.429 13.4764 19.761 12.8145 19.761 12.001C19.761 11.1875 20.429 10.5256 21.25 10.5256C21.449 10.5256 21.64 10.4473 21.78 10.3076C21.921 10.1679 22 9.97864 22 9.78245L21.999 7.10514C21.999 4.84102 20.14 3 17.856 3H6.144C3.86 3 2.002 4.84102 2.002 7.10514L2 9.86866C2 10.0648 2.079 10.2541 2.22 10.3938C2.36 10.5335 2.551 10.6118 2.75 10.6118C3.599 10.6118 4.239 11.2083 4.239 12.001C4.239 12.8145 3.571 13.4764 2.75 13.4764C2.336 13.4764 2 13.8093 2 14.2195V16.8949C2 19.159 3.858 21 6.143 21H7.933C8.347 21 8.683 20.6671 8.683 20.2569C8.683 19.8466 8.347 19.5137 7.933 19.5137H6.143C4.686 19.5137 3.5 18.3385 3.5 16.8949V14.8685C4.787 14.5386 5.739 13.3783 5.739 12.001C5.739 10.6386 4.802 9.52582 3.501 9.21271L3.502 7.10514C3.502 5.66146 4.687 4.48629 6.144 4.48629H17.856C19.313 4.48629 20.499 5.66146 20.499 7.10514L20.5 9.13344C19.213 9.46339 18.261 10.6237 18.261 12.001C18.261 13.3783 19.214 14.5386 20.5 14.8685V16.8949C20.5 18.3385 19.315 19.5137 17.858 19.5137H12.395C11.981 19.5137 11.645 19.8466 11.645 20.2569C11.645 20.6671 11.981 21 12.395 21ZM15.7894 10.9274C15.9281 11.0733 16.0019 11.2659 16 11.4695C15.997 11.6732 15.9183 11.8637 15.7756 12.0056L14.6085 13.178L14.884 14.8317C14.947 15.2086 14.7994 15.5835 14.4983 15.8075C14.1962 16.0324 13.8065 16.0598 13.4768 15.8825L12.0342 15.1042L10.5916 15.8835C10.4528 15.9605 10.2964 16 10.1399 16C9.93523 16 9.73842 15.9331 9.57113 15.8075C9.27099 15.5835 9.1224 15.2086 9.18538 14.8317L9.4619 13.178L8.29382 12.0056C8.02714 11.7391 7.93366 11.3469 8.04781 10.9821C8.16393 10.6184 8.46406 10.3579 8.8321 10.3042L10.444 10.0621L11.1663 8.5563C11.3296 8.21381 11.6622 8.00101 12.0332 8C12.4062 8 12.7388 8.21178 12.9041 8.55428L13.6914 10.1006C13.8813 10.4755 13.7416 10.9376 13.3784 11.1321C13.2043 11.2274 13.0035 11.2446 12.8156 11.1858C12.6256 11.125 12.4711 10.9923 12.3786 10.8119L12.048 10.1634L11.6002 11.0977C11.492 11.3226 11.2844 11.4797 11.0423 11.5151L10.074 11.66L10.7746 12.3653C10.9498 12.5396 11.0295 12.7919 10.9882 13.0402L10.8228 14.0342L11.6908 13.565C11.9073 13.4485 12.1651 13.4485 12.3796 13.565L13.2476 14.0342L13.0822 13.0402C13.0409 12.7919 13.1206 12.5396 13.2948 12.3643L14.7414 10.9132C14.8821 10.7734 15.072 10.6822 15.2649 10.6964C15.4637 10.6984 15.6496 10.7795 15.7894 10.9274Z" fill="#200E32"/>
</svg>
