<svg width="24" height="24" viewBox="0 0 24 24" fill="none" xmlns="http://www.w3.org/2000/svg">
<path fill-rule="evenodd" clip-rule="evenodd" d="M1.9998 11.9998C1.9998 6.48482 6.4858 1.99982 11.9998 1.99982C17.5138 1.99982 21.9998 6.48482 21.9998 11.9998C21.9998 17.5138 17.5138 21.9998 11.9998 21.9998C8.8728 21.9998 5.9828 20.5768 4.0728 18.0978C3.8278 17.7788 3.8878 17.3218 4.2058 17.0778C4.5238 16.8318 4.9788 16.8928 5.2248 17.2098C6.8578 19.3298 9.3268 20.5458 11.9998 20.5458C16.7118 20.5458 20.5458 16.7128 20.5458 11.9998C20.5458 7.28782 16.7118 3.45382 11.9998 3.45382C7.2878 3.45382 3.4548 7.28782 3.4548 11.9998C3.4548 12.4378 3.4868 12.8728 3.5518 13.2988C3.6118 13.6948 3.3398 14.0658 2.9428 14.1268C2.5438 14.1928 2.1748 13.9158 2.1148 13.5188C2.0388 13.0208 1.9998 12.5098 1.9998 11.9998ZM10.9339 7.83722C10.9339 7.43522 11.2599 7.10922 11.6609 7.10922C12.0619 7.10922 12.3879 7.43522 12.3879 7.83722V12.2832L15.8119 14.3252C16.1569 14.5312 16.2699 14.9772 16.0639 15.3222C15.9289 15.5492 15.6869 15.6762 15.4399 15.6762C15.3129 15.6762 15.1839 15.6432 15.0679 15.5742L11.2879 13.3202C11.0689 13.1882 10.9339 12.9512 10.9339 12.6952V7.83722Z" fill="#200E32"/>
</svg>
