<svg width="24" height="24" viewBox="0 0 24 24" fill="none" xmlns="http://www.w3.org/2000/svg">
<path fill-rule="evenodd" clip-rule="evenodd" d="M5.95693 7.61849C5.95693 8.03115 5.62096 8.36607 5.20698 8.36607C4.79301 8.36607 4.45703 8.03115 4.45703 7.61849C4.45703 4.79659 6.75988 2.5 9.59169 2.5C12.4225 2.5 14.7253 4.79659 14.7253 7.61849C14.7253 10.4404 12.4225 12.737 9.59169 12.737C8.43177 12.737 7.33884 12.3652 6.4329 11.6614C6.10592 11.4073 6.04693 10.9378 6.30191 10.6118C6.55689 10.2869 7.02686 10.2281 7.35384 10.4812C7.9948 10.9786 8.76874 11.2418 9.59169 11.2418C11.5956 11.2418 13.2254 9.61604 13.2254 7.61849C13.2254 5.62093 11.5956 3.99518 9.59169 3.99518C7.58682 3.99518 5.95693 5.62093 5.95693 7.61849ZM15.2693 10.8872C15.2693 10.4746 15.6053 10.1397 16.0193 10.1397C17.4242 10.1397 18.5661 9.00033 18.5661 7.60084C18.5661 6.20136 17.4242 5.06203 16.0193 5.06203C15.6053 5.06203 15.2693 4.72711 15.2693 4.31445C15.2693 3.90178 15.6053 3.56686 16.0193 3.56686C18.2511 3.56686 20.066 5.37702 20.066 7.60084C20.066 9.82566 18.2511 11.6348 16.0193 11.6348C15.6053 11.6348 15.2693 11.2999 15.2693 10.8872ZM19.3144 13.9618C20.5793 14.21 21.4123 14.7204 21.7743 15.4779C22.0752 16.1089 22.0752 16.8306 21.7743 17.4615C21.4173 18.2121 20.5853 18.7255 19.3024 18.9876C19.2514 18.9976 19.2014 19.0026 19.1504 19.0026C18.8025 19.0026 18.4895 18.7593 18.4175 18.4055C18.3345 18.0008 18.5955 17.6061 19.0015 17.5233C19.7644 17.3678 20.2814 17.1117 20.4194 16.8206C20.5253 16.5973 20.5253 16.3421 20.4204 16.1209C20.2794 15.8278 19.7644 15.5736 19.0065 15.4251C18.4945 15.3115 17.9885 15.2387 17.4836 15.2048C17.0706 15.1759 16.7586 14.8201 16.7876 14.4084C16.8156 13.9947 17.1806 13.6917 17.5865 13.7126C18.1655 13.7525 18.7465 13.8362 19.3144 13.9618ZM9.59149 14.4178C7.71361 14.4178 2 14.4178 2 17.9694C2 18.7668 2.31698 19.8742 3.82388 20.6119C4.28885 20.8381 4.85281 21.0225 5.49976 21.1601C5.90474 21.2488 6.30271 20.9886 6.3887 20.585C6.4757 20.1803 6.21672 19.7835 5.81174 19.6978C5.28478 19.5862 4.83781 19.4416 4.48383 19.2682C3.61189 18.8416 3.4999 18.3502 3.4999 17.9694C3.4999 16.2689 6.81267 15.913 9.59149 15.913C13.6332 15.913 15.6821 16.5988 15.6821 17.9495C15.6821 19.649 12.3703 20.0048 9.59149 20.0048C9.17752 20.0048 8.84154 20.3397 8.84154 20.7524C8.84154 21.1661 9.17752 21.5 9.59149 21.5C11.4684 21.5 17.182 21.5 17.182 17.9495C17.182 14.7837 12.8503 14.4178 9.59149 14.4178Z" fill="#200E32"/>
</svg>
