<svg width="24" height="24" viewBox="0 0 24 24" fill="none" xmlns="http://www.w3.org/2000/svg">
<path fill-rule="evenodd" clip-rule="evenodd" d="M8.12685 8.627H15.8833C18.4295 8.627 20.5 10.664 20.5 13.169V17.458C20.5 19.963 18.4295 22 15.8833 22H15.8538H12.4427C12.0219 22 11.6803 21.664 11.6803 21.25C11.6803 20.836 12.0219 20.5 12.4427 20.5H15.8538C17.5584 20.5 18.9459 19.136 18.9459 17.458C18.9459 17.4223 18.955 17.3899 18.964 17.3579C18.9681 17.3433 18.9722 17.3287 18.9753 17.314V13.169C18.9753 11.491 17.5889 10.127 15.8833 10.127H8.11668C6.41211 10.127 5.02466 11.491 5.02466 13.169V17.314C5.02785 17.3287 5.03193 17.3433 5.03604 17.3579C5.04503 17.3899 5.05414 17.4223 5.05414 17.458C5.05414 19.136 6.44158 20.5 8.14717 20.5C8.56798 20.5 8.90951 20.836 8.90951 21.25C8.90951 21.664 8.56798 22 8.14717 22C8.14348 22 8.13979 21.9995 8.13623 21.9989C8.13295 21.9985 8.12978 21.998 8.12685 21.998C8.12543 21.998 8.12402 21.9984 8.1225 21.9989C8.12075 21.9994 8.11886 22 8.11668 22C5.57049 22 3.5 19.963 3.5 17.458V13.169C3.5 11.189 4.80206 9.519 6.60218 8.898V7.301C6.6154 4.363 9.03046 2 11.9893 2H12.0137C14.3058 2 16.3519 3.434 17.103 5.567C17.2403 5.959 17.0299 6.386 16.6314 6.522C16.235 6.658 15.8 6.45 15.6617 6.058C15.124 4.528 13.6563 3.5 12.0097 3.5H11.9934C9.86801 3.5 8.13599 5.194 8.12685 7.284V8.627ZM12.7624 14.2029V16.4239C12.7624 16.8379 12.4209 17.1739 12.0001 17.1739C11.5793 17.1739 11.2378 16.8379 11.2378 16.4239V14.2029C11.2378 13.7889 11.5793 13.4529 12.0001 13.4529C12.4209 13.4529 12.7624 13.7889 12.7624 14.2029Z" fill="#200E32"/>
</svg>
