<svg width="24" height="24" viewBox="0 0 24 24" fill="none" xmlns="http://www.w3.org/2000/svg">
<path fill-rule="evenodd" clip-rule="evenodd" d="M11.7209 2.05671C11.4463 2.17261 11.2677 2.44628 11.2677 2.75015V14.4509C11.2677 14.8648 11.5964 15.2018 12.0002 15.2018C12.404 15.2018 12.7317 14.8648 12.7317 14.4509V4.56555L14.2461 6.1248C14.5311 6.41893 14.9938 6.41893 15.2807 6.12675C15.4241 5.98066 15.4963 5.78782 15.4963 5.59596C15.4963 5.4041 15.4241 5.21321 15.2826 5.06614L12.5189 2.22033C12.3099 2.00607 11.9945 1.94081 11.7209 2.05671ZM13.9489 20.5C14.3527 20.5 14.6804 20.836 14.6804 21.2499C14.6804 21.6638 14.3527 21.9998 13.9489 21.9998H6.71437C4.39058 21.9998 2.5 20.0617 2.5 17.6785V12.9325C2.5 10.5445 4.39533 8.6015 6.72482 8.6015H7.6093C8.01212 8.6015 8.33988 8.9375 8.33988 9.35142C8.33988 9.76534 8.01212 10.1013 7.6093 10.1013H6.72482C5.20096 10.1013 3.96306 11.3713 3.96306 12.9325V17.6785C3.96306 19.2348 5.19811 20.5 6.71437 20.5H13.9489ZM16.3916 10.1015C15.9879 10.1015 15.6601 9.76553 15.6601 9.35162C15.6601 8.9377 15.9879 8.60169 16.3916 8.60169H17.2856C19.6094 8.60169 21.5 10.5398 21.5 12.923V17.6699C21.5 20.057 19.6047 22 17.2752 22C16.8714 22 16.5446 21.664 16.5446 21.2501C16.5446 20.8362 16.8714 20.5002 17.2752 20.5002C18.799 20.5002 20.0369 19.2302 20.0369 17.6699V12.923C20.0369 11.3667 18.8028 10.1015 17.2856 10.1015H16.3916ZM10.6607 4.87818C10.6607 5.06907 10.5895 5.25996 10.4489 5.40604L9.7563 6.12383C9.47223 6.41795 9.00862 6.4199 8.72265 6.1287C8.43384 5.83652 8.43194 5.36319 8.71695 5.06809L9.40858 4.35128C9.69359 4.05618 10.1563 4.05423 10.4432 4.34544C10.5876 4.4925 10.6607 4.68534 10.6607 4.87818Z" fill="#200E32"/>
</svg>
