<svg width="24" height="24" viewBox="0 0 24 24" fill="none" xmlns="http://www.w3.org/2000/svg">
<path d="M21.0205 7.06859C20.4185 6.78178 19.7229 6.86723 19.2078 7.29157L17.6332 8.58912C17.321 8.84647 17.2751 9.3101 17.5307 9.62638C17.7863 9.93972 18.2478 9.98687 18.561 9.72854L20.1356 8.43098C20.2381 8.34651 20.3424 8.37499 20.3941 8.39955C20.4478 8.42607 20.5366 8.48795 20.5366 8.62547V15.3745C20.5366 15.512 20.4478 15.5739 20.3941 15.6005C20.3424 15.626 20.238 15.6535 20.1346 15.569L16.4059 12.4946V8.58716C16.4059 6.18064 14.6888 4.5 12.2302 4.5H6.17561C3.71707 4.5 2 6.18064 2 8.58716V15.4236C2 17.8233 3.71317 19.5 6.16585 19.5C6.56976 19.5 6.89756 19.17 6.89756 18.7633C6.89756 18.3567 6.56976 18.0266 6.16585 18.0266C4.49854 18.0266 3.46341 17.0296 3.46341 15.4236V8.58716C3.46341 6.9743 4.50244 5.97338 6.17561 5.97338H12.2302C13.9034 5.97338 14.9424 6.9743 14.9424 8.58716V15.4236C14.9424 17.0296 13.9034 18.0266 12.2302 18.0266H10.5434C10.1395 18.0266 9.81171 18.3567 9.81171 18.7633C9.81171 19.17 10.1395 19.5 10.5434 19.5H12.2302C14.6888 19.5 16.4059 17.8233 16.4059 15.4236V14.3992L19.2078 16.7084C19.52 16.9668 19.8995 17.0994 20.2839 17.0994C20.5327 17.0994 20.7834 17.0444 21.0205 16.9314C21.6244 16.6436 22 16.0474 22 15.3745V8.62547C22 7.95262 21.6244 7.35639 21.0205 7.06859Z" fill="#200E32"/>
</svg>
