<svg width="24" height="24" viewBox="0 0 24 24" fill="none" xmlns="http://www.w3.org/2000/svg">
<path fill-rule="evenodd" clip-rule="evenodd" d="M11.8753 3.43801C10.2754 3.43801 8.97297 4.76803 8.97297 6.40304V10.9871C8.97297 12.6231 10.2754 13.9531 11.8753 13.9531H12.1238C13.7247 13.9531 15.0271 12.6231 15.0271 10.9871V6.40304C15.0271 4.76803 13.7247 3.43801 12.1238 3.43801H11.8753ZM12.1238 15.3921H11.8753C9.49942 15.3921 7.56585 13.4161 7.56585 10.9871V6.40304C7.56585 3.97502 9.49942 2 11.8753 2H12.1238C14.5007 2 16.4342 3.97502 16.4342 6.40304V10.9871C16.4342 13.4161 14.5007 15.3921 12.1238 15.3921ZM9.07954 17.036C6.81522 15.8899 5.4081 13.5749 5.4081 10.9939C5.4081 10.5969 5.09302 10.2739 4.70356 10.2739C4.31509 10.2739 4 10.5969 4 10.9939C4 14.1259 5.70753 16.9349 8.45524 18.324C8.55602 18.376 8.66268 18.399 8.76739 18.399C9.0267 18.399 9.27622 18.253 9.39854 18C9.57076 17.642 9.42789 17.212 9.07954 17.036ZM20 10.9939C20 10.5969 19.6849 10.2739 19.2964 10.2739C18.908 10.2739 18.5929 10.5969 18.5929 10.9939C18.5929 14.7079 15.6348 17.73 12.0005 17.73C11.6111 17.73 11.296 18.053 11.296 18.45V21.28C11.296 21.678 11.6111 22 12.0005 22C12.389 22 12.7041 21.678 12.7041 21.28V19.133C16.7855 18.766 20 15.2589 20 10.9939Z" fill="#200E32"/>
</svg>
