<svg width="24" height="24" viewBox="0 0 24 24" fill="none" xmlns="http://www.w3.org/2000/svg">
<path fill-rule="evenodd" clip-rule="evenodd" d="M12.124 15.3915H11.8754C9.49848 15.3915 7.56483 13.4155 7.56483 10.9876V6.40382C7.56483 3.97592 9.49848 2 11.8754 2H12.124C14.5009 2 16.4346 3.97592 16.4346 6.40382V6.9118C16.4346 7.30879 16.1195 7.63077 15.731 7.63077H13.8551C13.4666 7.63077 13.1515 7.30879 13.1515 6.9118C13.1515 6.51482 13.4666 6.19283 13.8551 6.19283H15.0196C14.9129 4.65589 13.6554 3.43894 12.124 3.43894H11.8754C10.2745 3.43894 8.97299 4.76889 8.97299 6.40382V10.9876C8.97299 12.6226 10.2745 13.9525 11.8754 13.9525H12.124C13.7249 13.9525 15.0264 12.6226 15.0264 10.9876V10.8236H12.9166C12.5281 10.8236 12.213 10.5007 12.213 10.1047C12.213 9.70669 12.5281 9.3847 12.9166 9.3847H15.731C16.1195 9.3847 16.4346 9.70669 16.4346 10.1047V10.9876C16.4346 13.4155 14.5009 15.3915 12.124 15.3915ZM9.07975 17.0359C6.81437 15.8899 5.40816 13.575 5.40816 10.9941C5.40816 10.5972 5.09208 10.2742 4.70359 10.2742C4.3151 10.2742 4 10.5972 4 10.9941C4 14.126 5.7076 16.9349 8.45543 18.3238C8.55524 18.3758 8.6619 18.3988 8.76661 18.3988C9.02593 18.3988 9.27547 18.2528 9.39877 17.9999C9.571 17.6419 9.42715 17.2119 9.07975 17.0359ZM19.2964 10.2745C18.9079 10.2745 18.5928 10.5965 18.5928 10.9944C18.5928 14.7083 15.6346 17.7302 12.0002 17.7302C11.6107 17.7302 11.2966 18.0522 11.2966 18.4501V21.28C11.2966 21.677 11.6107 22 12.0002 22C12.3887 22 12.7038 21.677 12.7038 21.28V19.1321C16.7864 18.7661 20 15.2583 20 10.9944C20 10.5965 19.6849 10.2745 19.2964 10.2745Z" fill="#200E32"/>
</svg>
