<svg width="24" height="24" viewBox="0 0 24 24" fill="none" xmlns="http://www.w3.org/2000/svg">
<path fill-rule="evenodd" clip-rule="evenodd" d="M15.4436 6.4445L15.4444 6.45227L15.4918 6.8927C15.6746 8.36995 15.6746 15.6289 15.4918 17.1096L15.4444 17.5649C15.3992 18.0283 15.3519 18.5077 15.2165 19.0192C14.8656 20.2201 13.9212 21 12.8504 21L12.8488 20.9999C12.8155 20.9988 12.7833 20.9977 12.75 20.9989C12.1565 20.9989 11.5123 20.6376 11.1478 20.3245L7.37706 17.2002C7.03744 16.9192 6.98667 16.4134 7.2631 16.0682C7.54066 15.7241 8.03824 15.6713 8.37785 15.9523L12.1588 19.0869C12.3957 19.2888 12.7071 19.4138 12.7906 19.3874C13.181 19.4161 13.5477 19.0754 13.6933 18.58C13.7888 18.2201 13.8272 17.8261 13.8677 17.4116L13.8681 17.4067C13.8839 17.2415 13.8997 17.0786 13.92 16.9123C14.0837 15.5784 14.0837 8.42042 13.92 7.08997L13.8693 6.61973L13.8688 6.61488C13.8238 6.18859 13.7775 5.75013 13.6865 5.39021C13.5477 4.92341 13.1754 4.56901 12.8312 4.61144C12.6834 4.61603 12.3179 4.76169 12.0933 4.95552L8.37898 8.04537C8.23682 8.1635 8.0608 8.22773 7.87689 8.22773H5.77036C5.10579 8.22773 4.78987 8.8012 4.71653 9.33796C4.53939 10.7911 4.53826 13.3029 4.71653 14.5967C4.77746 15.0359 4.47508 15.4431 4.04181 15.5062C3.61193 15.5589 3.208 15.2596 3.1482 14.8192C2.93044 13.2375 2.97218 10.5503 3.14707 9.12693C3.35016 7.64509 4.42769 6.61858 5.77036 6.61858H7.59482L11.079 3.72028C11.4976 3.35784 12.2615 3.00459 12.8233 3C13.8851 3.01835 14.8577 3.75354 15.2108 4.95667C15.341 5.4575 15.3931 5.95834 15.4436 6.4445ZM18.0247 7.08561C17.7753 6.71859 17.8633 6.21853 18.2221 5.96391C18.5821 5.71158 19.074 5.7999 19.3245 6.16462C20.4054 7.7451 21 9.81532 21 12.0002C21 14.1828 20.4054 16.2554 19.3245 17.8347C19.1699 18.0595 18.9239 18.1788 18.6735 18.1788C18.5177 18.1788 18.3598 18.1317 18.2221 18.0343C17.8633 17.7819 17.7753 17.2796 18.0247 16.9148C18.9217 15.6028 19.417 13.8571 19.417 12.0002C19.417 10.1422 18.9217 8.39656 18.0247 7.08561Z" fill="#200E32"/>
</svg>
