<svg width="24" height="24" viewBox="0 0 24 24" fill="none" xmlns="http://www.w3.org/2000/svg">
<path fill-rule="evenodd" clip-rule="evenodd" d="M15.2549 7.62448L20.1289 2.73525C20.4427 2.42158 20.9507 2.42158 21.2646 2.73525C21.5785 3.05005 21.5785 3.55947 21.2646 3.87427L3.92389 21.2642C3.76751 21.421 3.56205 21.5 3.3566 21.5C3.15114 21.5 2.94568 21.421 2.78816 21.2642C2.47541 20.9494 2.47541 20.44 2.78816 20.1252L13.6923 9.19164C13.6809 7.88205 13.6535 7.67942 13.6078 7.36118L13.5199 6.62053L13.5191 6.61305C13.4737 6.18611 13.4269 5.74614 13.335 5.38878C13.1969 4.93088 12.8545 4.6092 12.4869 4.6092H12.4664C12.3169 4.61493 11.947 4.76146 11.7188 4.95377L7.95316 8.0446C7.80934 8.16251 7.63013 8.22662 7.44522 8.22662H5.30845C4.635 8.22662 4.3154 8.80014 4.24007 9.33817C4.06086 10.7897 4.05972 13.3024 4.24007 14.5972C4.3017 15.0379 3.9958 15.4454 3.55635 15.5061C3.51868 15.5118 3.48101 15.5141 3.44449 15.5141C3.04955 15.5141 2.70598 15.2222 2.65005 14.8204C2.42975 13.2395 2.47198 10.5505 2.64776 9.12753C2.85436 7.64279 3.94672 6.61595 5.30845 6.61595H7.15872L10.6915 3.7163C11.1184 3.35456 11.866 3.02258 12.463 2.99854C13.5314 3.01457 14.5221 3.75178 14.8805 4.95492C15.0118 5.45861 15.0654 5.9623 15.1168 6.44996L15.199 7.13338C15.2218 7.29479 15.2401 7.43445 15.2549 7.62448ZM13.6896 14.3444C13.6953 13.9014 14.0286 13.5545 14.5034 13.5511C14.9474 13.5579 15.3013 13.9231 15.2944 14.3684C15.2762 15.6597 15.2339 16.5561 15.1654 17.1101L15.1164 17.5669L15.1155 17.5757C15.0701 18.0354 15.023 18.5122 14.8869 19.0207C14.5285 20.2227 13.572 21.0023 12.4876 21.0023C12.4522 21.0023 12.4169 21.0023 12.3815 21.0011C11.7834 21.0011 11.1305 20.6405 10.7606 20.3269L9.35895 19.181C9.01538 18.9005 8.96287 18.3934 9.24366 18.0488C9.52446 17.7054 10.029 17.6539 10.3737 17.9332L11.7856 19.0882C12.0231 19.2886 12.3244 19.3905 12.4203 19.3905C12.4259 19.3929 12.4316 19.3924 12.4376 19.392C12.4401 19.3918 12.4427 19.3916 12.4454 19.3916C12.8552 19.3916 13.1965 19.0676 13.3426 18.5834C13.4373 18.2205 13.4772 17.8244 13.5183 17.4077C13.5343 17.244 13.5514 17.0792 13.5708 16.9144C13.6313 16.4221 13.6713 15.559 13.6896 14.3444Z" fill="#200E32"/>
</svg>
