<svg width="24" height="24" viewBox="0 0 24 24" fill="none" xmlns="http://www.w3.org/2000/svg">
<path fill-rule="evenodd" clip-rule="evenodd" d="M19.3755 2.64287C19.7264 2.39082 20.2082 2.48059 20.4513 2.84657C22.0947 5.31755 23 8.56999 23 11.9997C23 12.4462 22.6535 12.8076 22.2278 12.8076C21.801 12.8076 21.4556 12.4462 21.4556 11.9997C21.4556 8.8957 20.6482 5.97357 19.183 3.76844C18.94 3.40131 19.0268 2.89836 19.3755 2.64287ZM13.1332 6.41975L13.1344 6.43197L13.1806 6.87392C13.3588 8.35742 13.3588 15.6426 13.1806 17.1284L13.1344 17.5853C13.0904 18.0514 13.0442 18.5314 12.9122 19.0447C12.5702 20.2497 11.6495 21.0334 10.6056 21.0334L10.6024 21.0333C10.5695 21.0322 10.5385 21.0312 10.5066 21.0323C9.92799 21.0323 9.29989 20.6697 8.9446 20.3555L5.26845 17.2193C4.93735 16.9374 4.88785 16.4298 5.15735 16.0834C5.42684 15.7381 5.91304 15.6852 6.24303 15.9672L9.93129 19.1126C10.1623 19.3151 10.4648 19.4406 10.5462 19.4153C10.9268 19.4429 11.2854 19.1011 11.4273 18.6039C11.5178 18.2485 11.5556 17.86 11.5954 17.4502V17.4502L11.5954 17.4502L11.5978 17.4254C11.6132 17.2596 11.6286 17.0962 11.6473 16.9305C11.8079 15.592 11.8079 8.40806 11.6484 7.07187L11.5989 6.60115L11.5981 6.59359C11.5543 6.16666 11.5092 5.72665 11.4196 5.36739C11.2854 4.89782 10.9213 4.54219 10.5858 4.58478C10.4428 4.58938 10.0864 4.73554 9.86639 4.93005L6.24523 8.03172C6.10663 8.15026 5.93504 8.21471 5.75574 8.21471H3.70097C3.05307 8.21471 2.74618 8.79016 2.67358 9.32878C2.50088 10.787 2.50088 13.3074 2.67358 14.6068C2.73298 15.0476 2.43818 15.4562 2.01689 15.5183C1.59669 15.5724 1.2029 15.2709 1.1446 14.8289C0.9323 13.2418 0.973 10.5453 1.1424 9.11702C1.3415 7.6289 2.39308 6.59885 3.70097 6.59885H5.48074L8.8775 3.68938C9.28669 3.32569 10.0314 2.97237 10.5792 2.96776C11.6132 2.98618 12.5625 3.7239 12.9067 4.9312C13.0333 5.43224 13.0841 5.93441 13.1332 6.41975ZM15.6495 7.06738C15.4064 6.70024 15.4922 6.1973 15.8431 5.94295C16.1928 5.6886 16.6735 5.77837 16.9177 6.14321C17.9715 7.72915 18.5523 9.80767 18.5523 12.0001C18.5523 14.1914 17.9715 16.2711 16.9177 17.8559C16.767 18.0815 16.5272 18.2012 16.283 18.2012C16.1312 18.2012 15.9772 18.154 15.8431 18.0562C15.4922 17.803 15.4064 17.2989 15.6495 16.9317C16.525 15.6151 17.0079 13.8646 17.0079 12.0001C17.0079 10.1357 16.525 8.38286 15.6495 7.06738ZM22.0256 14.8501C21.6087 14.7638 21.1984 15.0342 21.1071 15.4681C20.7397 17.244 20.0743 18.8909 19.1833 20.2306C18.9402 20.5977 19.026 21.1006 19.3758 21.355C19.51 21.4528 19.664 21.5 19.8169 21.5C20.06 21.5 20.3009 21.3792 20.4516 21.1547C21.4569 19.6413 22.206 17.7941 22.6163 15.8111C22.7076 15.3749 22.4425 14.9445 22.0256 14.8501Z" fill="#200E32"/>
</svg>
