<svg width="24" height="24" viewBox="0 0 24 24" fill="none" xmlns="http://www.w3.org/2000/svg">
<path fill-rule="evenodd" clip-rule="evenodd" d="M16.5137 21.4999H8.16592C5.09955 21.4999 2.74715 20.3924 3.41534 15.9347L4.19338 9.89351C4.60528 7.66925 6.02404 6.81799 7.26889 6.81799H17.4474C18.7105 6.81799 20.0469 7.73332 20.5229 9.89351L21.3009 15.9347C21.8684 19.8889 19.5801 21.4999 16.5137 21.4999Z" stroke="#200E32" stroke-width="1.5" stroke-linecap="round" stroke-linejoin="round"/>
<path opacity="0.4" d="M16.651 6.59836C16.651 4.21229 14.7167 2.27799 12.3307 2.27799V2.27799C11.1817 2.27312 10.0781 2.72615 9.26388 3.53691C8.44969 4.34766 7.99199 5.44935 7.992 6.59836H7.992" stroke="#200E32" stroke-width="1.5" stroke-linecap="round" stroke-linejoin="round"/>
<path d="M15.2963 11.1018H15.2506" stroke="#200E32" stroke-width="1.5" stroke-linecap="round" stroke-linejoin="round"/>
<path d="M9.46569 11.1018H9.41992" stroke="#200E32" stroke-width="1.5" stroke-linecap="round" stroke-linejoin="round"/>
</svg>
