<svg width="24" height="24" viewBox="0 0 24 24" fill="none" xmlns="http://www.w3.org/2000/svg">
<path opacity="0.4" d="M3.09264 9.40421H20.9166" stroke="#200E32" stroke-width="1.5" stroke-linecap="round" stroke-linejoin="round"/>
<path opacity="0.4" fill-rule="evenodd" clip-rule="evenodd" d="M6.80788 13.3097C6.80788 12.8955 7.14367 12.5597 7.55788 12.5597H7.56715C7.98136 12.5597 8.31715 12.8955 8.31715 13.3097C8.31715 13.7239 7.98136 14.0597 7.56715 14.0597H7.55788C7.14367 14.0597 6.80788 13.7239 6.80788 13.3097ZM12.0046 12.5597C11.5904 12.5597 11.2546 12.8955 11.2546 13.3097C11.2546 13.7239 11.5904 14.0597 12.0046 14.0597H12.0139C12.4281 14.0597 12.7639 13.7239 12.7639 13.3097C12.7639 12.8955 12.4281 12.5597 12.0139 12.5597H12.0046ZM16.4421 12.5597C16.0279 12.5597 15.6921 12.8955 15.6921 13.3097C15.6921 13.7239 16.0279 14.0597 16.4421 14.0597H16.4513C16.8655 14.0597 17.2013 13.7239 17.2013 13.3097C17.2013 12.8955 16.8655 12.5597 16.4513 12.5597H16.4421ZM16.4421 16.4462C16.0279 16.4462 15.6921 16.782 15.6921 17.1962C15.6921 17.6104 16.0279 17.9462 16.4421 17.9462H16.4513C16.8655 17.9462 17.2013 17.6104 17.2013 17.1962C17.2013 16.782 16.8655 16.4462 16.4513 16.4462H16.4421ZM11.2546 17.1962C11.2546 16.782 11.5904 16.4462 12.0046 16.4462H12.0139C12.4281 16.4462 12.7639 16.782 12.7639 17.1962C12.7639 17.6104 12.4281 17.9462 12.0139 17.9462H12.0046C11.5904 17.9462 11.2546 17.6104 11.2546 17.1962ZM7.55788 16.4462C7.14367 16.4462 6.80788 16.782 6.80788 17.1962C6.80788 17.6104 7.14367 17.9462 7.55788 17.9462H7.56715C7.98136 17.9462 8.31715 17.6104 8.31715 17.1962C8.31715 16.782 7.98136 16.4462 7.56715 16.4462H7.55788Z" fill="#200E32"/>
<path d="M16.0437 2V5.29078" stroke="#200E32" stroke-width="1.5" stroke-linecap="round" stroke-linejoin="round"/>
<path d="M7.9655 2V5.29078" stroke="#200E32" stroke-width="1.5" stroke-linecap="round" stroke-linejoin="round"/>
<path fill-rule="evenodd" clip-rule="evenodd" d="M16.2383 3.57922H7.77096C4.83427 3.57922 3 5.21516 3 8.22225V17.2719C3 20.3263 4.83427 22 7.77096 22H16.229C19.175 22 21 20.3546 21 17.3475V8.22225C21.0092 5.21516 19.1842 3.57922 16.2383 3.57922Z" stroke="#200E32" stroke-width="1.5" stroke-linecap="round" stroke-linejoin="round"/>
</svg>
