<svg width="24" height="24" viewBox="0 0 24 24" fill="none" xmlns="http://www.w3.org/2000/svg">
<path opacity="0.4" d="M6.62858 12.7573C5.23979 11.0968 4.11704 9.42498 3.52948 7.9986C2.85152 6.52087 2.81043 5.29781 3.48839 4.37461C3.80683 3.84986 5.55309 1.94082 6.79704 2.00141C7.16581 2.03324 7.49451 2.25814 7.76262 2.51487C8.06975 2.81267 8.66553 3.53254 9.18941 4.22982C9.71329 4.92915 10.1858 5.61718 10.2269 5.85234C10.4734 7.02303 9.07642 7.70079 9.50785 8.8725C9.60338 9.10561 9.70404 9.33256 9.81293 9.55232" stroke="#200E32" stroke-width="1.5" stroke-linecap="round" stroke-linejoin="round"/>
<path d="M8.84045 15.1572C11.2236 17.5386 13.9251 19.614 16.0104 20.4766C17.4896 21.1646 18.7017 21.1739 19.6262 20.5074C20.0268 20.2805 22.0504 18.5152 21.999 17.1997C21.9682 16.831 21.7422 16.5024 21.4854 16.2354C20.8896 15.6183 18.6195 13.8622 18.147 13.7698C16.976 13.5233 16.298 14.921 15.127 14.4897C13.8019 13.9444 12.6617 13.206 11.7269 12.2705" stroke="#200E32" stroke-width="1.5" stroke-linecap="round" stroke-linejoin="round"/>
<path d="M2.74323 21.077L21.0759 2.74438" stroke="#200E32" stroke-width="1.5" stroke-linecap="round" stroke-linejoin="round"/>
</svg>
