<svg width="24" height="24" viewBox="0 0 24 24" fill="none" xmlns="http://www.w3.org/2000/svg">
<path fill-rule="evenodd" clip-rule="evenodd" d="M2.98995 4.87351C3.30627 4.34875 5.05018 2.44377 6.2929 2.50127C6.66469 2.53311 6.99334 2.75698 7.26037 3.01783H7.2614C7.87351 3.61756 9.62974 5.88094 9.72834 6.35745C9.97175 7.52611 8.57806 8.19978 9.00428 9.37769C10.0909 12.0364 11.9632 13.9086 14.6232 14.994C15.8002 15.4212 16.4739 14.0287 17.6427 14.2711C18.1192 14.3707 20.3839 16.1257 20.9826 16.7388V16.7388C21.2425 17.0048 21.4684 17.3344 21.4992 17.7062C21.5454 19.0155 19.5222 20.7829 19.1278 21.0088C18.1973 21.6753 16.9833 21.663 15.5034 20.975C11.3737 19.2569 4.77391 12.782 3.02384 8.49657C2.35421 7.02496 2.30902 5.8029 2.98995 4.87351Z" stroke="#200E32" stroke-width="1.5" stroke-linecap="round" stroke-linejoin="round"/>
<path opacity="0.4" d="M14.5654 2.75C18.2674 3.161 21.1904 6.081 21.6064 9.782" stroke="#200E32" stroke-width="1.5" stroke-linecap="round" stroke-linejoin="round"/>
<path opacity="0.4" d="M14.5654 6.29297C16.3354 6.63797 17.7184 8.02097 18.0634 9.79097" stroke="#200E32" stroke-width="1.5" stroke-linecap="round" stroke-linejoin="round"/>
</svg>
