<svg width="24" height="24" viewBox="0 0 24 24" fill="none" xmlns="http://www.w3.org/2000/svg">
<path fill-rule="evenodd" clip-rule="evenodd" d="M17.6378 7.10987V7.10987C17.2648 7.10987 16.9268 6.89487 16.7678 6.55887C16.4808 5.95087 16.1158 5.17387 15.8998 4.75087C15.5808 4.12187 15.0638 3.75587 14.3478 3.75087C14.3358 3.74987 9.66382 3.74987 9.65182 3.75087C8.93582 3.75587 8.41982 4.12187 8.09982 4.75087C7.88482 5.17387 7.51982 5.95087 7.23282 6.55887C7.07382 6.89487 6.73482 7.10987 6.36282 7.10987V7.10987C4.36682 7.10987 2.74982 8.72687 2.74982 10.7219V16.6579C2.74982 18.6519 4.36682 20.2699 6.36282 20.2699H17.6378C19.6328 20.2699 21.2498 18.6519 21.2498 16.6579V10.7219C21.2498 8.72687 19.6328 7.10987 17.6378 7.10987Z" stroke="#200E32" stroke-width="1.5" stroke-linecap="round" stroke-linejoin="round"/>
<path opacity="0.4" fill-rule="evenodd" clip-rule="evenodd" d="M8.82139 13.3345C8.82039 15.0875 10.2514 16.5215 12.0014 16.5205C13.7484 16.5185 15.1754 15.0905 15.1784 13.3415C15.1814 11.5855 13.7554 10.1545 12.0034 10.1525C10.2414 10.1505 8.80739 11.6055 8.82139 13.3345Z" stroke="#200E32" stroke-width="1.5" stroke-linecap="round" stroke-linejoin="round"/>
<path opacity="0.4" d="M16.9025 10.9951C16.8059 10.9852 16.7105 10.96 16.6036 10.9169C16.4847 10.8641 16.3818 10.7969 16.2823 10.6959C16.1035 10.5057 16 10.257 16 10.0005C16 9.86422 16.0279 9.72916 16.0823 9.60681C16.1368 9.48285 16.2014 9.37829 16.3182 9.26456C16.407 9.18719 16.498 9.12493 16.6224 9.07013C16.9913 8.92396 17.4301 9.0113 17.7043 9.28541C17.7865 9.36639 17.8557 9.46411 17.8941 9.54651L17.9169 9.60494C17.9721 9.72916 18 9.86422 18 10.0005C18 10.2622 17.8978 10.5043 17.7081 10.7058C17.5442 10.8708 17.3289 10.9723 17.0992 10.9951L17 11L16.9025 10.9951Z" fill="#200E32"/>
</svg>
