<svg width="24" height="24" viewBox="0 0 24 24" fill="none" xmlns="http://www.w3.org/2000/svg">
<path fill-rule="evenodd" clip-rule="evenodd" d="M12.0568 2.0002C8.54687 1.98602 5.28557 3.80716 3.4605 6.80047C1.63543 9.79378 1.51292 13.5225 3.13757 16.6288L3.33789 17.0192C3.50209 17.3265 3.53644 17.6865 3.43329 18.0192C3.14742 18.7785 2.90849 19.5546 2.71784 20.343C2.71784 20.743 2.83231 20.9716 3.26158 20.9621C4.0219 20.7942 4.77068 20.5779 5.50332 20.3145C5.81886 20.2276 6.15437 20.2477 6.45725 20.3716C6.73389 20.5049 7.2967 20.8478 7.31578 20.8478C10.9915 22.7806 15.4808 22.2473 18.5998 19.5075C21.7187 16.7677 22.8199 12.3901 21.3676 8.50416C19.9153 4.61821 16.2111 2.03065 12.0568 2.0002V2.0002Z" stroke="#200E32" stroke-width="1.5" stroke-linecap="round" stroke-linejoin="round"/>
<ellipse opacity="0.4" cx="7.28718" cy="12.0002" rx="0.476965" ry="0.47619" fill="#200E32" stroke="#200E32" stroke-width="1.5" stroke-linecap="round" stroke-linejoin="round"/>
<ellipse opacity="0.4" cx="12.0568" cy="12.0002" rx="0.476965" ry="0.47619" fill="#200E32" stroke="#200E32" stroke-width="1.5" stroke-linecap="round" stroke-linejoin="round"/>
<ellipse opacity="0.4" cx="16.8265" cy="12.0002" rx="0.476965" ry="0.47619" fill="#200E32" stroke="#200E32" stroke-width="1.5" stroke-linecap="round" stroke-linejoin="round"/>
</svg>
