<svg width="24" height="24" viewBox="0 0 24 24" fill="none" xmlns="http://www.w3.org/2000/svg">
<path opacity="0.4" fill-rule="evenodd" clip-rule="evenodd" d="M10.1314 9.06262C9.83854 8.7697 9.36366 8.76965 9.07074 9.06251C8.77781 9.35537 8.77777 9.83025 9.07063 10.1232L10.9384 11.9914L9.07319 13.8566C8.78029 14.1495 8.78029 14.6244 9.07319 14.9173C9.36608 15.2102 9.84095 15.2102 10.1338 14.9173L11.999 13.0521L13.8666 14.9202C14.1595 15.2131 14.6344 15.2131 14.9273 14.9203C15.2202 14.6274 15.2203 14.1525 14.9274 13.8596L13.0597 11.9915L14.9258 10.1253C15.2187 9.83241 15.2187 9.35753 14.9258 9.06464C14.633 8.77175 14.1581 8.77175 13.8652 9.06464L11.9991 10.9307L10.1314 9.06262Z" fill="#200E32"/>
<path fill-rule="evenodd" clip-rule="evenodd" d="M16.3345 2.75024H7.66549C4.64449 2.75024 2.75049 4.88924 2.75049 7.91624V16.0842C2.75049 19.1112 4.63549 21.2502 7.66549 21.2502H16.3335C19.3645 21.2502 21.2505 19.1112 21.2505 16.0842V7.91624C21.2505 4.88924 19.3645 2.75024 16.3345 2.75024Z" stroke="#200E32" stroke-width="1.5" stroke-linecap="round" stroke-linejoin="round"/>
</svg>
