<svg width="24" height="24" viewBox="0 0 24 24" fill="none" xmlns="http://www.w3.org/2000/svg">
<path opacity="0.4" d="M19.3249 9.46826C19.3249 9.46826 18.7819 16.2033 18.4669 19.0403C18.3169 20.3953 17.4799 21.1893 16.1089 21.2143C13.4999 21.2613 10.8879 21.2643 8.2799 21.2093C6.9609 21.1823 6.1379 20.3783 5.9909 19.0473C5.6739 16.1853 5.1339 9.46826 5.1339 9.46826" stroke="#200E32" stroke-width="1.5" stroke-linecap="round" stroke-linejoin="round"/>
<path d="M20.7082 6.23975H3.7502" stroke="#200E32" stroke-width="1.5" stroke-linecap="round" stroke-linejoin="round"/>
<path d="M17.4406 6.23973C16.6556 6.23973 15.9796 5.68473 15.8256 4.91573L15.5826 3.69973C15.4326 3.13873 14.9246 2.75073 14.3456 2.75073H10.1126C9.5336 2.75073 9.0256 3.13873 8.8756 3.69973L8.6326 4.91573C8.4786 5.68473 7.8026 6.23973 7.0176 6.23973" stroke="#200E32" stroke-width="1.5" stroke-linecap="round" stroke-linejoin="round"/>
</svg>
