<svg width="24" height="24" viewBox="0 0 24 24" fill="none" xmlns="http://www.w3.org/2000/svg">
<path opacity="0.4" d="M11.4923 2.78894H7.7533C4.6783 2.78894 2.75031 4.96594 2.75031 8.04794V16.3619C2.75031 19.4439 4.6693 21.6209 7.7533 21.6209H16.5773C19.6623 21.6209 21.5813 19.4439 21.5813 16.3619V12.3339" stroke="#200E32" stroke-width="1.5" stroke-linecap="round" stroke-linejoin="round"/>
<path fill-rule="evenodd" clip-rule="evenodd" d="M8.8278 10.9209L16.3008 3.44787C17.2318 2.51787 18.7408 2.51787 19.6718 3.44787L20.8888 4.66487C21.8198 5.59587 21.8198 7.10587 20.8888 8.03587L13.3798 15.5449C12.9728 15.9519 12.4208 16.1809 11.8448 16.1809H8.0988L8.1928 12.4009C8.2068 11.8449 8.4338 11.3149 8.8278 10.9209Z" stroke="#200E32" stroke-width="1.5" stroke-linecap="round" stroke-linejoin="round"/>
<path d="M15.1652 4.60242L19.7312 9.16842" stroke="#200E32" stroke-width="1.5" stroke-linecap="round" stroke-linejoin="round"/>
</svg>
