<svg xmlns="http://www.w3.org/2000/svg" width="21.541" height="19.536" viewBox="0 0 21.541 19.536">
  <g id="Iconly_Two-tone_Heart" data-name="Iconly/Two-tone/Heart" transform="translate(0.77 0.786)">
    <g id="Heart">
      <path id="Path_33961" d="M9.748,17.854A36.489,36.489,0,0,1,3.41,13.165,11.922,11.922,0,0,1,.393,8.6C-.74,5.25.583,1.421,4.285.288A6.563,6.563,0,0,1,10,1.2h0a6.573,6.573,0,0,1,5.71-.914c3.7,1.133,5.035,4.963,3.9,8.308a11.922,11.922,0,0,1-3.017,4.57,36.489,36.489,0,0,1-6.339,4.689L10.005,18Z" transform="translate(0 0)" fill="none" stroke="#200e32" stroke-linecap="round" stroke-linejoin="round" stroke-miterlimit="10" stroke-width="1.5"/>
    </g>
  </g>
</svg>
