<svg width="24" height="24" viewBox="0 0 24 24" fill="none" xmlns="http://www.w3.org/2000/svg">
<path fill-rule="evenodd" clip-rule="evenodd" d="M11.7484 20.8538C9.46358 19.5179 7.33801 17.9456 5.40978 16.1652C4.05414 14.8829 3.02211 13.3198 2.39273 11.5954C1.26015 8.25031 2.58308 4.42083 6.28539 3.28752C8.23117 2.69243 10.3563 3.03255 11.9959 4.20148C13.6361 3.03398 15.7605 2.69398 17.7064 3.28752C21.4087 4.42083 22.7411 8.25031 21.6086 11.5954C20.9792 13.3198 19.9471 14.8829 18.5915 16.1652C16.6633 17.9456 14.5377 19.5179 12.2529 20.8538L12.0054 21L11.7484 20.8538Z" stroke="#200E32" stroke-width="1.5" stroke-linecap="round" stroke-linejoin="round"/>
<path opacity="0.4" d="M15.9361 7.05298C17.0575 7.39328 17.8543 8.34968 17.9538 9.47496" stroke="#200E32" stroke-width="1.5" stroke-linecap="round" stroke-linejoin="round"/>
</svg>
