<svg width="24" height="24" viewBox="0 0 24 24" fill="none" xmlns="http://www.w3.org/2000/svg">
<path fill-rule="evenodd" clip-rule="evenodd" d="M21.21 7.89985V16.0499C21.21 19.0699 19.32 21.1999 16.3 21.1999H7.65C4.63 21.1999 2.75 19.0699 2.75 16.0499V7.89985C2.75 4.87985 4.64 2.75085 7.65 2.75085H16.3C19.32 2.75085 21.21 4.87985 21.21 7.89985Z" stroke="#200E32" stroke-width="1.5" stroke-linecap="round" stroke-linejoin="round"/>
<path opacity="0.4" d="M5.28131 16.4322L6.81031 14.8192C7.36131 14.2372 8.28631 14.2342 8.84231 14.8112L9.72731 15.7142C10.3243 16.3232 11.3173 16.2792 11.8583 15.6202L14.0873 12.9092C14.7273 12.1302 15.9013 12.0822 16.6023 12.8052L18.6783 14.9472" stroke="#200E32" stroke-width="1.5" stroke-linecap="round" stroke-linejoin="round"/>
<path opacity="0.4" fill-rule="evenodd" clip-rule="evenodd" d="M10.3135 9.13425C10.3135 10.1022 9.52752 10.8882 8.55952 10.8882C7.59152 10.8882 6.80652 10.1022 6.80652 9.13425C6.80652 8.16625 7.59152 7.38025 8.55952 7.38025C9.52752 7.38025 10.3135 8.16625 10.3135 9.13425Z" stroke="#200E32" stroke-width="1.5" stroke-linecap="round" stroke-linejoin="round"/>
</svg>
