<svg width="24" height="24" viewBox="0 0 24 24" fill="none" xmlns="http://www.w3.org/2000/svg">
<path fill-rule="evenodd" clip-rule="evenodd" d="M16.3034 2.75024H7.65443C4.63943 2.75024 2.75043 4.88424 2.75043 7.90424V16.0532C2.75043 19.0732 4.63143 21.2072 7.65443 21.2072H16.3024C19.3264 21.2072 21.2074 19.0732 21.2074 16.0532V7.90424C21.2074 4.88424 19.3264 2.75024 16.3034 2.75024Z" stroke="#200E32" stroke-width="1.5" stroke-linecap="round" stroke-linejoin="round"/>
<path opacity="0.4" fill-rule="evenodd" clip-rule="evenodd" d="M10.7033 8.78545C10.7033 9.80445 9.87633 10.6315 8.85733 10.6315C7.83933 10.6315 7.01233 9.80445 7.01233 8.78545C7.01233 7.76645 7.83933 6.93945 8.85733 6.93945C9.87633 6.93945 10.7033 7.76645 10.7033 8.78545Z" stroke="#200E32" stroke-width="1.5" stroke-linecap="round" stroke-linejoin="round"/>
<path opacity="0.4" d="M21.2068 14.9504C20.2128 14.0854 19.3478 13.0444 18.2078 12.3574C17.0658 11.6704 15.8388 12.0944 15.0468 13.1194C14.2818 14.1104 13.8038 15.4434 12.6488 16.0684C11.2258 16.8394 10.3898 15.5964 9.20276 15.0984C7.87776 14.5434 6.87176 15.5414 6.09776 16.5004C5.32276 17.4604 4.53776 18.4104 3.74976 19.3604" stroke="#200E32" stroke-width="1.5" stroke-linecap="round" stroke-linejoin="round"/>
</svg>
