<svg width="24" height="24" viewBox="0 0 24 24" fill="none" xmlns="http://www.w3.org/2000/svg">
<path fill-rule="evenodd" clip-rule="evenodd" d="M14.7363 2.76196H8.08431C6.02531 2.76196 4.25031 4.43096 4.25031 6.49096V17.34C4.25031 19.516 5.90831 21.115 8.08431 21.115H16.0723C18.1323 21.115 19.8023 19.4 19.8023 17.34V8.03796L14.7363 2.76196Z" stroke="#200E32" stroke-width="1.5" stroke-linecap="round" stroke-linejoin="round"/>
<path d="M14.4736 2.75024V5.65924C14.4736 7.07924 15.6226 8.23124 17.0426 8.23424C18.3586 8.23724 19.7056 8.23824 19.7966 8.23224" stroke="#200E32" stroke-width="1.5" stroke-linecap="round" stroke-linejoin="round"/>
<path opacity="0.4" fill-rule="evenodd" clip-rule="evenodd" d="M12.5937 10.4645C12.5937 10.0503 12.2579 9.71448 11.8437 9.71448C11.4295 9.71448 11.0937 10.0503 11.0937 10.4645V12.1642H9.39343C8.97922 12.1642 8.64343 12.5 8.64343 12.9142C8.64343 13.3284 8.97922 13.6642 9.39343 13.6642H11.0937V15.3655C11.0937 15.7797 11.4295 16.1155 11.8437 16.1155C12.2579 16.1155 12.5937 15.7797 12.5937 15.3655V13.6642H14.2944C14.7086 13.6642 15.0444 13.3284 15.0444 12.9142C15.0444 12.5 14.7086 12.1642 14.2944 12.1642H12.5937V10.4645Z" fill="#200E32"/>
</svg>
