<svg width="24" height="24" viewBox="0 0 24 24" fill="none" xmlns="http://www.w3.org/2000/svg">
<path fill-rule="evenodd" clip-rule="evenodd" d="M14.7364 2.76196H8.08443C6.02543 2.76196 4.25043 4.43096 4.25043 6.49096V17.228C4.25043 19.404 5.90843 21.115 8.08443 21.115H16.0724C18.1324 21.115 19.8024 19.288 19.8024 17.228V8.03796L14.7364 2.76196Z" stroke="#200E32" stroke-width="1.5" stroke-linecap="round" stroke-linejoin="round"/>
<path d="M14.4738 2.75024V5.65924C14.4738 7.07924 15.6228 8.23124 17.0428 8.23424C18.3588 8.23724 19.7058 8.23824 19.7968 8.23224" stroke="#200E32" stroke-width="1.5" stroke-linecap="round" stroke-linejoin="round"/>
<path opacity="0.4" fill-rule="evenodd" clip-rule="evenodd" d="M12.3907 9.4408C12.3907 9.02658 12.055 8.6908 11.6407 8.6908C11.2265 8.6908 10.8907 9.02658 10.8907 9.4408V14.1981L9.33385 12.6341C9.04162 12.3405 8.56675 12.3394 8.27319 12.6317C7.97963 12.9239 7.97854 13.3988 8.27077 13.6923L11.1088 16.5433C11.2495 16.6847 11.4408 16.7642 11.6402 16.7642C11.8296 16.7642 12.0116 16.6926 12.15 16.5644C12.1589 16.5562 12.1676 16.5477 12.1761 16.539L15.0108 13.6924C15.303 13.3989 15.302 12.924 15.0085 12.6318C14.715 12.3395 14.2401 12.3405 13.9479 12.634L12.3907 14.1977V9.4408Z" fill="#200E32"/>
</svg>
