<svg width="24" height="24" viewBox="0 0 24 24" fill="none" xmlns="http://www.w3.org/2000/svg">
<path fill-rule="evenodd" clip-rule="evenodd" d="M12 2C17.5228 2 22 6.47716 22 12C22 17.5228 17.5228 22 12 22C6.47716 22 2 17.5228 2 12C2 6.47716 6.47716 2 12 2Z" stroke="#200E32" stroke-width="1.5" stroke-linecap="round" stroke-linejoin="round"/>
<path opacity="0.4" fill-rule="evenodd" clip-rule="evenodd" d="M15.0501 12.467C14.3211 13.253 12.3371 14.583 11.3221 15.01C11.1601 15.078 10.7471 15.222 10.6581 15.224C10.4691 15.23 10.2871 15.124 10.1991 14.954C10.1651 14.888 10.0651 14.457 10.0331 14.265C9.93811 13.681 9.88911 12.774 9.89011 11.862C9.88911 10.905 9.94211 9.95495 10.0481 9.37695C10.0761 9.22095 10.1581 8.86195 10.1821 8.80395C10.2271 8.69595 10.3091 8.61095 10.4081 8.55795C10.4841 8.51695 10.5711 8.49495 10.6581 8.49795C10.7471 8.49995 11.1091 8.62695 11.2331 8.67595C12.2111 9.05595 14.2801 10.434 15.0401 11.244C15.1081 11.317 15.2951 11.513 15.3261 11.553C15.3971 11.643 15.4321 11.752 15.4321 11.862C15.4321 11.964 15.4011 12.068 15.3371 12.155C15.3041 12.2 15.1131 12.4 15.0501 12.467Z" stroke="#200E32" stroke-width="1.5" stroke-linecap="round" stroke-linejoin="round"/>
</svg>
