<svg width="24" height="24" viewBox="0 0 24 24" fill="none" xmlns="http://www.w3.org/2000/svg">
<path fill-rule="evenodd" clip-rule="evenodd" d="M20.8066 7.62361L20.1842 6.54352C19.6576 5.6296 18.4907 5.31432 17.5755 5.83872V5.83872C17.1399 6.09534 16.6201 6.16815 16.1307 6.04109C15.6413 5.91402 15.2226 5.59752 14.9668 5.16137C14.8023 4.88415 14.7139 4.56839 14.7105 4.24604V4.24604C14.7254 3.72922 14.5304 3.2284 14.17 2.85767C13.8096 2.48694 13.3145 2.27786 12.7975 2.27808H11.5435C11.037 2.27807 10.5513 2.47991 10.194 2.83895C9.83667 3.19798 9.63716 3.68459 9.63959 4.19112V4.19112C9.62458 5.23693 8.77246 6.07681 7.72655 6.0767C7.4042 6.07336 7.08844 5.98494 6.81122 5.82041V5.82041C5.89605 5.29601 4.7291 5.61129 4.20252 6.52522L3.53433 7.62361C3.00839 8.53639 3.31938 9.70261 4.22998 10.2323V10.2323C4.82189 10.574 5.18652 11.2056 5.18652 11.8891C5.18652 12.5725 4.82189 13.2041 4.22998 13.5458V13.5458C3.32054 14.0719 3.00921 15.2353 3.53433 16.1454V16.1454L4.16591 17.2346C4.41263 17.6798 4.82659 18.0083 5.31618 18.1474C5.80577 18.2866 6.33062 18.2249 6.77461 17.976V17.976C7.21106 17.7213 7.73117 17.6516 8.21932 17.7822C8.70748 17.9128 9.12322 18.233 9.37415 18.6717C9.53868 18.9489 9.62709 19.2646 9.63044 19.587V19.587C9.63044 20.6435 10.4869 21.5 11.5435 21.5H12.7975C13.8505 21.5001 14.7055 20.6491 14.7105 19.5962V19.5962C14.7081 19.088 14.9089 18.6 15.2681 18.2407C15.6274 17.8814 16.1155 17.6807 16.6236 17.6831C16.9452 17.6917 17.2596 17.7798 17.5389 17.9394V17.9394C18.4517 18.4653 19.6179 18.1544 20.1476 17.2438V17.2438L20.8066 16.1454C21.0617 15.7075 21.1318 15.186 21.0012 14.6964C20.8706 14.2067 20.5502 13.7894 20.111 13.5367V13.5367C19.6717 13.284 19.3514 12.8666 19.2208 12.3769C19.0902 11.8873 19.1602 11.3658 19.4153 10.928C19.5812 10.6383 19.8214 10.3982 20.111 10.2323V10.2323C21.0161 9.70289 21.3264 8.54349 20.8066 7.63277V7.63277V7.62361Z" stroke="#200E32" stroke-width="1.5" stroke-linecap="round" stroke-linejoin="round"/>
<circle opacity="0.4" cx="12.1751" cy="11.8891" r="2.63616" stroke="#200E32" stroke-width="1.5" stroke-linecap="round" stroke-linejoin="round"/>
</svg>
