<svg width="24" height="24" viewBox="0 0 24 24" fill="none" xmlns="http://www.w3.org/2000/svg">
<path fill-rule="evenodd" clip-rule="evenodd" d="M18.8651 5.12377C19.3021 5.27677 19.5941 5.68877 19.5941 6.15177V12.9248C19.5941 14.8178 18.9051 16.6248 17.6911 18.0248C17.0791 18.7298 16.3071 19.2788 15.4861 19.7228L11.9281 21.6448L8.36409 19.7218C7.54109 19.2778 6.76809 18.7298 6.15609 18.0238C4.94009 16.6238 4.25009 14.8158 4.25009 12.9208V6.15177C4.25009 5.68877 4.54209 5.27677 4.97909 5.12377L11.5611 2.81077C11.7951 2.72877 12.0501 2.72877 12.2831 2.81077L18.8651 5.12377Z" stroke="#200E32" stroke-width="1.5" stroke-linecap="round" stroke-linejoin="round"/>
<path opacity="0.4" fill-rule="evenodd" clip-rule="evenodd" d="M10.5734 9.55805C10.2805 9.26516 9.80565 9.26516 9.51276 9.55805C9.21987 9.85094 9.21987 10.3258 9.51276 10.6187L10.8615 11.9675L9.51297 13.316C9.22008 13.6089 9.22008 14.0838 9.51297 14.3767C9.80587 14.6696 10.2807 14.6696 10.5736 14.3767L11.9222 13.0281L13.2708 14.3767C13.5637 14.6696 14.0385 14.6696 14.3314 14.3767C14.6243 14.0838 14.6243 13.6089 14.3314 13.316L12.9829 11.9675L14.3316 10.6187C14.6245 10.3258 14.6245 9.85094 14.3316 9.55805C14.0387 9.26516 13.5639 9.26516 13.271 9.55805L11.9222 10.9068L10.5734 9.55805Z" fill="#200E32"/>
</svg>
