<svg width="24" height="24" viewBox="0 0 24 24" fill="none" xmlns="http://www.w3.org/2000/svg">
<circle opacity="0.4" cx="11.5789" cy="6.77803" r="4.77803" stroke="#200E32" stroke-width="1.5" stroke-linecap="round" stroke-linejoin="round"/>
<path fill-rule="evenodd" clip-rule="evenodd" d="M4.00002 18.2014C3.99873 17.8655 4.07385 17.5338 4.2197 17.2312C4.67736 16.3158 5.96798 15.8307 7.03892 15.611C7.81128 15.4462 8.59431 15.3361 9.38217 15.2815C10.8408 15.1534 12.3079 15.1534 13.7666 15.2815C14.5544 15.3367 15.3374 15.4468 16.1099 15.611C17.1808 15.8307 18.4714 16.2701 18.9291 17.2312C19.2224 17.848 19.2224 18.564 18.9291 19.1808C18.4714 20.1419 17.1808 20.5813 16.1099 20.7918C15.3384 20.9635 14.5551 21.0767 13.7666 21.1305C12.5794 21.2311 11.3866 21.2495 10.1968 21.1854C9.92221 21.1854 9.65677 21.1854 9.38217 21.1305C8.59663 21.0773 7.81632 20.9641 7.04807 20.7918C5.96798 20.5813 4.68652 20.1419 4.2197 19.1808C4.0746 18.8747 3.99955 18.5402 4.00002 18.2014Z" stroke="#200E32" stroke-width="1.5" stroke-linecap="round" stroke-linejoin="round"/>
</svg>
