<svg width="24" height="24" viewBox="0 0 24 24" fill="none" xmlns="http://www.w3.org/2000/svg">
<path opacity="0.4" fill-rule="evenodd" clip-rule="evenodd" d="M5.46438 10.932C5.46438 10.5178 5.1286 10.182 4.71438 10.182C4.30017 10.182 3.96438 10.5178 3.96438 10.932C3.96438 15.183 7.2163 18.6735 11.3686 19.0518V21.1468C11.3686 21.561 11.7044 21.8968 12.1186 21.8968C12.5328 21.8968 12.8686 21.561 12.8686 21.1468V19.0518C17.0205 18.6731 20.273 15.1829 20.273 10.932C20.273 10.5178 19.9372 10.182 19.523 10.182C19.1087 10.182 18.773 10.5178 18.773 10.932C18.773 14.6072 15.7936 17.5858 12.1182 17.5858C8.44288 17.5858 5.46438 14.6073 5.46438 10.932Z" fill="#200E32"/>
<path fill-rule="evenodd" clip-rule="evenodd" d="M11.9922 3.46387C10.3855 3.46387 9.08219 4.76713 9.08219 6.37387V10.9243C9.08219 12.5319 10.3853 13.8343 11.9922 13.8343H12.2446C13.8523 13.8343 15.1546 12.532 15.1546 10.9243V10.7985H13.0491C12.6349 10.7985 12.2991 10.4627 12.2991 10.0485C12.2991 9.63424 12.6349 9.29846 13.0491 9.29846H15.1546V7.62695H14.0015C13.5873 7.62695 13.2515 7.29116 13.2515 6.87695C13.2515 6.46273 13.5873 6.12695 14.0015 6.12695H15.1442C15.0189 4.6356 13.7689 3.46387 12.2446 3.46387H11.9922ZM7.58219 6.37387C7.58219 3.9387 9.55703 1.96387 11.9922 1.96387H12.2446C14.6808 1.96387 16.6546 3.93883 16.6546 6.37387V10.9243C16.6546 13.3605 14.6807 15.3343 12.2446 15.3343H11.9922C9.55715 15.3343 7.58219 13.3606 7.58219 10.9243V6.37387Z" fill="#200E32"/>
</svg>
