<svg width="24" height="24" viewBox="0 0 24 24" fill="none" xmlns="http://www.w3.org/2000/svg">
<path opacity="0.4" fill-rule="evenodd" clip-rule="evenodd" d="M5.46448 10.932C5.46448 10.5178 5.12869 10.182 4.71448 10.182C4.30026 10.182 3.96448 10.5178 3.96448 10.932C3.96448 15.183 7.2164 18.6735 11.3687 19.0518V21.1469C11.3687 21.5611 11.7045 21.8969 12.1187 21.8969C12.5329 21.8969 12.8687 21.5611 12.8687 21.1469V19.0518C17.0206 18.6731 20.2721 15.1828 20.2721 10.932C20.2721 10.5178 19.9363 10.182 19.5221 10.182C19.1079 10.182 18.7721 10.5178 18.7721 10.932C18.7721 14.6073 15.7936 17.5858 12.1183 17.5858C8.44298 17.5858 5.46448 14.6073 5.46448 10.932Z" fill="#200E32"/>
<path fill-rule="evenodd" clip-rule="evenodd" d="M12.2447 14.5843H11.9923C9.97133 14.5843 8.33229 12.9462 8.33229 10.9243V6.37387C8.33229 4.35291 9.97133 2.71387 11.9923 2.71387H12.2447C14.2656 2.71387 15.9047 4.35291 15.9047 6.37387V10.9243C15.9047 12.9462 14.2656 14.5843 12.2447 14.5843Z" stroke="#200E32" stroke-width="1.5" stroke-linecap="round" stroke-linejoin="round"/>
</svg>
