<svg width="24" height="24" viewBox="0 0 24 24" fill="none" xmlns="http://www.w3.org/2000/svg">
<path opacity="0.4" d="M2.80408 15.4769C2.80408 15.4769 2.94608 17.2149 2.97908 17.7629C3.02308 18.4979 3.30708 19.3189 3.78108 19.8889C4.45008 20.6969 5.23808 20.9819 6.29008 20.9839C7.52708 20.9859 16.5221 20.9859 17.7591 20.9839C18.8111 20.9819 19.5991 20.6969 20.2681 19.8889C20.7421 19.3189 21.0261 18.4979 21.0711 17.7629C21.1031 17.2149 21.2451 15.4769 21.2451 15.4769" stroke="#200E32" stroke-width="1.5" stroke-linecap="round" stroke-linejoin="round"/>
<path d="M8.49597 5.32949V4.95849C8.49597 3.73849 9.48397 2.75049 10.704 2.75049H13.286C14.505 2.75049 15.494 3.73849 15.494 4.95849L15.495 5.32949" stroke="#200E32" stroke-width="1.5" stroke-linecap="round" stroke-linejoin="round"/>
<path d="M11.995 16.6782V15.3842" stroke="#200E32" stroke-width="1.5" stroke-linecap="round" stroke-linejoin="round"/>
<path fill-rule="evenodd" clip-rule="evenodd" d="M2.74988 8.38905V11.8561C4.66788 13.1211 6.96588 14.0071 9.48788 14.3581C9.78988 13.2571 10.7829 12.4501 11.9899 12.4501C13.1779 12.4501 14.1909 13.2571 14.4729 14.3681C17.0049 14.0171 19.3119 13.1311 21.2399 11.8561V8.38905C21.2399 6.69505 19.8769 5.33105 18.1829 5.33105H5.81688C4.12288 5.33105 2.74988 6.69505 2.74988 8.38905Z" stroke="#200E32" stroke-width="1.5" stroke-linecap="round" stroke-linejoin="round"/>
</svg>
