<svg width="24" height="24" viewBox="0 0 24 24" fill="none" xmlns="http://www.w3.org/2000/svg">
<path d="M21.101 9.58786H19.8979V8.41162C19.8979 7.90945 19.4952 7.5 18.999 7.5C18.5038 7.5 18.1 7.90945 18.1 8.41162V9.58786H16.899C16.4027 9.58786 16 9.99731 16 10.4995C16 11.0016 16.4027 11.4111 16.899 11.4111H18.1V12.5884C18.1 13.0906 18.5038 13.5 18.999 13.5C19.4952 13.5 19.8979 13.0906 19.8979 12.5884V11.4111H21.101C21.5962 11.4111 22 11.0016 22 10.4995C22 9.99731 21.5962 9.58786 21.101 9.58786Z" fill="#200E32"/>
<path d="M9.5 15.0155C5.45422 15.0155 2 15.6623 2 18.2466C2 20.8299 5.4332 21.5 9.5 21.5C13.5448 21.5 17 20.8532 17 18.2689C17 15.6846 13.5668 15.0155 9.5 15.0155Z" fill="#200E32"/>
<path opacity="0.4" d="M9.49999 12.5542C12.2546 12.5542 14.4626 10.3177 14.4626 7.52761C14.4626 4.73754 12.2546 2.5 9.49999 2.5C6.74541 2.5 4.53735 4.73754 4.53735 7.52761C4.53735 10.3177 6.74541 12.5542 9.49999 12.5542Z" fill="#200E32"/>
</svg>
