<svg width="24" height="24" viewBox="0 0 24 24" fill="none" xmlns="http://www.w3.org/2000/svg">
<path opacity="0.4" d="M8.20248 13.1903L4.50325 13.5175C3.67308 13.5175 3 12.8378 3 11.9996C3 11.1613 3.67308 10.4817 4.50325 10.4817L8.20248 10.8088C8.85375 10.8088 9.38174 11.342 9.38174 11.9996C9.38174 12.6583 8.85375 13.1903 8.20248 13.1903Z" fill="#200E32"/>
<path d="M20.6248 13.1302C20.567 13.1885 20.351 13.4353 20.1481 13.6402C18.9644 14.9234 15.8739 17.0218 14.2572 17.664C14.0118 17.7665 13.3911 17.9846 13.0583 18C12.7409 18 12.4376 17.9262 12.1485 17.7808C11.7874 17.577 11.4994 17.2554 11.3402 16.8764C11.2387 16.6143 11.0794 15.8267 11.0794 15.8124C10.9213 14.9521 10.8351 13.5531 10.8351 12.0066C10.8351 10.535 10.9213 9.19332 11.0511 8.31871C11.0653 8.30329 11.2245 7.32623 11.398 6.99137C11.7154 6.37892 12.3362 6 13.0005 6H13.0583C13.4914 6.01432 14.4012 6.39435 14.4012 6.40756C15.9317 7.04975 18.9492 9.04681 20.1622 10.3742C20.1622 10.3742 20.5048 10.7156 20.6531 10.9282C20.8844 11.2344 21.0001 11.6134 21.0001 11.9923C21.0001 12.4153 20.8702 12.8085 20.6248 13.1302Z" fill="#200E32"/>
</svg>
