<svg width="24" height="24" viewBox="0 0 24 24" fill="none" xmlns="http://www.w3.org/2000/svg">
<path opacity="0.4" d="M15.7975 10.8097L19.4967 10.4825C20.3269 10.4825 21 11.1622 21 12.0004C21 12.8387 20.3269 13.5183 19.4967 13.5183L15.7975 13.1912C15.1463 13.1912 14.6183 12.6581 14.6183 12.0004C14.6183 11.3417 15.1463 10.8097 15.7975 10.8097Z" fill="#200E32"/>
<path d="M3.37522 10.8698C3.43303 10.8115 3.64903 10.5647 3.85194 10.3598C5.03556 9.07656 8.12607 6.97815 9.74278 6.33596C9.98823 6.23352 10.6089 6.01542 10.9417 6C11.2591 6 11.5624 6.0738 11.8515 6.2192C12.2126 6.42299 12.5006 6.74463 12.6598 7.12355C12.7613 7.38572 12.9206 8.17331 12.9206 8.18763C13.0787 9.04792 13.1649 10.4469 13.1649 11.9934C13.1649 13.465 13.0787 14.8067 12.9489 15.6813C12.9347 15.6967 12.7755 16.6738 12.602 17.0086C12.2846 17.6211 11.6638 18 10.9995 18H10.9417C10.5086 17.9857 9.59878 17.6057 9.59878 17.5924C8.06825 16.9502 5.05083 14.9532 3.83776 13.6258C3.83776 13.6258 3.49522 13.2844 3.34685 13.0718C3.11558 12.7656 2.99995 12.3866 2.99995 12.0077C2.99995 11.5847 3.12977 11.1915 3.37522 10.8698Z" fill="#200E32"/>
</svg>
