<svg width="24" height="24" viewBox="0 0 24 24" fill="none" xmlns="http://www.w3.org/2000/svg">
<path opacity="0.4" d="M22 16.084V7.916C22 4.377 19.724 2 16.335 2H7.665C4.276 2 2 4.377 2 7.916V16.084C2 19.622 4.277 22 7.666 22H16.335C19.724 22 22 19.622 22 16.084Z" fill="#200E32"/>
<path d="M16.2793 11.1445L12.5313 7.3795C12.2493 7.0965 11.7503 7.0965 11.4673 7.3795L7.7193 11.1445C7.4273 11.4385 7.4283 11.9135 7.7223 12.2055C8.0163 12.4975 8.4903 12.4975 8.7833 12.2035L11.2503 9.7265V16.0815C11.2503 16.4965 11.5863 16.8315 12.0003 16.8315C12.4143 16.8315 12.7503 16.4965 12.7503 16.0815V9.7265L15.2163 12.2035C15.3633 12.3505 15.5553 12.4235 15.7483 12.4235C15.9393 12.4235 16.1313 12.3505 16.2773 12.2055C16.5703 11.9135 16.5713 11.4385 16.2793 11.1445Z" fill="#200E32"/>
</svg>
