<svg width="24" height="24" viewBox="0 0 24 24" fill="none" xmlns="http://www.w3.org/2000/svg">
<path opacity="0.4" d="M10.8097 8.20248L10.4825 4.50325C10.4825 3.67308 11.1622 3 12.0004 3C12.8387 3 13.5183 3.67308 13.5183 4.50325L13.1912 8.20248C13.1912 8.85375 12.6581 9.38174 12.0004 9.38174C11.3417 9.38174 10.8097 8.85375 10.8097 8.20248Z" fill="#200E32"/>
<path d="M10.8698 20.6247C10.8115 20.5669 10.5647 20.3509 10.3598 20.148C9.07656 18.9644 6.97815 15.8739 6.33596 14.2572C6.23352 14.0117 6.01542 13.391 6 13.0583C6 12.7408 6.0738 12.4376 6.2192 12.1485C6.42299 11.7874 6.74463 11.4994 7.12355 11.3401C7.38572 11.2387 8.17331 11.0794 8.18763 11.0794C9.04792 10.9212 10.4469 10.835 11.9934 10.835C13.465 10.835 14.8067 10.9212 15.6813 11.051C15.6967 11.0652 16.6738 11.2245 17.0086 11.3979C17.6211 11.7154 18 12.3361 18 13.0005V13.0583C17.9857 13.4914 17.6057 14.4012 17.5924 14.4012C16.9502 15.9317 14.9532 18.9491 13.6258 20.1622C13.6258 20.1622 13.2844 20.5047 13.0718 20.6531C12.7656 20.8844 12.3866 21 12.0077 21C11.5847 21 11.1915 20.8702 10.8698 20.6247Z" fill="#200E32"/>
</svg>
