<svg width="24" height="24" viewBox="0 0 24 24" fill="none" xmlns="http://www.w3.org/2000/svg">
<path d="M9.82721 10.8014L7.14111 13.5558C5.39663 11.5739 3.95942 9.52074 3.27551 7.80304C2.56186 6.19713 2.55195 4.86566 3.2656 3.86959C3.54313 3.40205 5.15875 1.44041 6.59596 1.50139C6.98252 1.53188 7.35917 1.73516 7.71599 2.10106C8.27105 2.66008 9.83712 4.68271 9.95606 5.27221C10.0948 5.94304 9.79747 6.4614 9.53976 6.92894C9.27215 7.39648 8.5585 8.30107 8.74682 8.8296C9.02435 9.51058 9.39109 10.1712 9.82721 10.8014Z" fill="#200E32"/>
<path d="M21.9493 17.0725C21.9989 18.5869 19.9967 20.3046 19.63 20.518C19.1443 20.8738 18.5793 21.0567 17.945 21.0567C17.3007 21.0567 16.5772 20.8738 15.7941 20.4977C13.9406 19.7049 11.651 18.0177 9.51996 16.0154L12.1862 13.2823C13.0089 13.9318 13.901 14.4705 14.8129 14.8476C15.3184 15.0397 16.1906 14.3079 16.6565 14.0334C17.1124 13.7692 17.6179 13.4643 18.2622 13.6065C18.847 13.7285 20.8194 15.3649 21.3646 15.9341C21.7214 16.3102 21.9097 16.6964 21.9493 17.0725Z" fill="#200E32"/>
<path opacity="0.4" d="M21.3749 3.85933V3.86949L11.9586 13.5151L3.44441 22.2459C3.27591 22.4085 3.06777 22.5 2.84971 22.5C2.63165 22.5 2.4235 22.4085 2.24509 22.2459C1.96756 21.9512 1.92791 21.5141 2.11623 21.1889L2.14597 21.1482C2.16579 21.1167 2.18562 21.0872 2.21535 21.0567L20.1755 2.62949C20.3242 2.46687 20.5423 2.36421 20.7702 2.36421C20.9982 2.36421 21.2163 2.46687 21.3749 2.62949C21.7019 2.97507 21.7019 3.51375 21.3749 3.85933Z" fill="#200E32"/>
</svg>
