<svg width="24" height="24" viewBox="0 0 24 24" fill="none" xmlns="http://www.w3.org/2000/svg">
<path opacity="0.4" d="M11.3408 20.2891L11.3408 11.8111C11.3408 11.4189 11.6591 11.1006 12.0513 11.1006C12.4435 11.1006 12.7618 11.4189 12.7618 11.8111L12.7618 20.2891C12.7618 20.6813 12.4435 20.9996 12.0513 20.9996C11.6591 20.9996 11.3408 20.6813 11.3408 20.2891Z" fill="#200E32"/>
<mask id="mask0" mask-type="alpha" maskUnits="userSpaceOnUse" x="6" y="3" width="12" height="10">
<path fill-rule="evenodd" clip-rule="evenodd" d="M17.4998 12.5214L6.60336 12.5214L6.60336 3.58197L17.4998 3.58197V12.5214Z" fill="white"/>
</mask>
<g mask="url(#mask0)">
<path d="M6.60307 11.8109C6.60307 11.6783 6.64002 11.5475 6.71202 11.432L11.4498 3.91364C11.5805 3.70712 11.807 3.58111 12.0514 3.58111C12.2958 3.58111 12.5222 3.70712 12.653 3.91364L17.3908 11.432C17.5281 11.6508 17.5367 11.9274 17.4107 12.1539C17.2856 12.3812 17.0478 12.5214 16.7892 12.5214L7.3136 12.5214C7.05497 12.5214 6.81718 12.3812 6.69213 12.1539C6.63244 12.0468 6.60307 11.9284 6.60307 11.8109Z" fill="#200E32"/>
</g>
</svg>
