<svg width="24" height="24" viewBox="0 0 24 24" fill="none" xmlns="http://www.w3.org/2000/svg">
<path opacity="0.4" d="M20.2891 12.6592L11.8111 12.6592C11.4189 12.6592 11.1006 12.3409 11.1006 11.9487C11.1006 11.5565 11.4189 11.2382 11.8111 11.2382L20.2891 11.2382C20.6813 11.2382 20.9996 11.5565 20.9996 11.9487C20.9996 12.3409 20.6813 12.6592 20.2891 12.6592Z" fill="#200E32"/>
<mask id="mask0" mask-type="alpha" maskUnits="userSpaceOnUse" x="3" y="6" width="10" height="12">
<path fill-rule="evenodd" clip-rule="evenodd" d="M12.5215 6.50023L12.5215 17.3966H3.58202L3.58202 6.50023L12.5215 6.50023Z" fill="white"/>
</mask>
<g mask="url(#mask0)">
<path d="M11.811 17.3969C11.6783 17.3969 11.5476 17.36 11.432 17.288L3.9137 12.5502C3.70717 12.4194 3.58117 12.193 3.58117 11.9486C3.58117 11.7042 3.70717 11.4778 3.9137 11.347L11.432 6.60923C11.6509 6.47186 11.9275 6.46333 12.1539 6.58933C12.3813 6.71438 12.5215 6.95217 12.5215 7.21081L12.5215 16.6864C12.5215 16.945 12.3813 17.1828 12.1539 17.3079C12.0469 17.3675 11.9284 17.3969 11.811 17.3969Z" fill="#200E32"/>
</g>
</svg>
