<svg width="24" height="24" viewBox="0 0 24 24" fill="none" xmlns="http://www.w3.org/2000/svg">
<path opacity="0.4" d="M11.9999 1.9998C17.5149 1.9998 21.9999 6.4858 21.9999 11.9998C21.9999 17.5138 17.5149 21.9998 11.9999 21.9998C6.48588 21.9998 1.99988 17.5138 1.99988 11.9998C1.99988 6.4858 6.48588 1.9998 11.9999 1.9998Z" fill="#200E32"/>
<path d="M10.5575 7.7791C10.7485 7.7791 10.9405 7.8521 11.0865 7.9981L14.5735 11.4681C14.7145 11.6091 14.7935 11.8001 14.7935 12.0001C14.7935 12.1991 14.7145 12.3901 14.5735 12.5311L11.0865 16.0031C10.7935 16.2951 10.3195 16.2951 10.0265 16.0011C9.73448 15.7071 9.73548 15.2321 10.0285 14.9401L12.9815 12.0001L10.0285 9.0601C9.73548 8.7681 9.73448 8.2941 10.0265 8.0001C10.1725 7.8521 10.3655 7.7791 10.5575 7.7791Z" fill="#200E32"/>
</svg>
