<svg width="24" height="24" viewBox="0 0 24 24" fill="none" xmlns="http://www.w3.org/2000/svg">
<path opacity="0.4" d="M1.99976 12.0001C1.99976 6.4851 6.48576 2.0001 11.9998 2.0001C17.5138 2.0001 21.9998 6.4851 21.9998 12.0001C21.9998 17.5141 17.5138 22.0001 11.9998 22.0001C6.48576 22.0001 1.99976 17.5141 1.99976 12.0001Z" fill="#200E32"/>
<path d="M7.77905 13.4425C7.77905 13.2515 7.85205 13.0595 7.99805 12.9135L11.4681 9.4265C11.6091 9.2855 11.8001 9.2065 12.0001 9.2065C12.1991 9.2065 12.3901 9.2855 12.5311 9.4265L16.0031 12.9135C16.2951 13.2065 16.2951 13.6805 16.0011 13.9735C15.7071 14.2655 15.2321 14.2645 14.9401 13.9715L12.0001 11.0185L9.06005 13.9715C8.76805 14.2645 8.29405 14.2655 8.00005 13.9735C7.85205 13.8275 7.77905 13.6345 7.77905 13.4425Z" fill="#200E32"/>
</svg>
