<svg width="24" height="24" viewBox="0 0 24 24" fill="none" xmlns="http://www.w3.org/2000/svg">
<path opacity="0.4" d="M4.7227 21.1673C4.7097 21.1673 4.6977 21.1673 4.6837 21.1663C4.3687 21.1503 4.0597 21.0823 3.7657 20.9633C2.3187 20.3753 1.6207 18.7223 2.2077 17.2763L9.5287 4.4503C9.7807 3.9943 10.1627 3.6123 10.6287 3.3543C11.9937 2.5983 13.7197 3.0953 14.4747 4.4593L21.7477 17.1873C21.9097 17.5683 21.9787 17.8783 21.9957 18.1943C22.0347 18.9503 21.7767 19.6753 21.2707 20.2363C20.7647 20.7973 20.0697 21.1283 19.3147 21.1663L4.7947 21.1673H4.7227Z" fill="#200E32"/>
<path fill-rule="evenodd" clip-rule="evenodd" d="M11.1245 10.0208C11.1245 9.5388 11.5175 9.1458 11.9995 9.1458C12.4815 9.1458 12.8745 9.5388 12.8745 10.0208V12.8488C12.8745 13.3318 12.4815 13.7238 11.9995 13.7238C11.5175 13.7238 11.1245 13.3318 11.1245 12.8488V10.0208ZM11.1245 16.2699C11.1245 15.7849 11.5175 15.3899 11.9995 15.3899C12.4815 15.3899 12.8745 15.7799 12.8745 16.2589C12.8745 16.7519 12.4815 17.1449 11.9995 17.1449C11.5175 17.1449 11.1245 16.7519 11.1245 16.2699Z" fill="#200E32"/>
</svg>
