<svg width="24" height="24" viewBox="0 0 24 24" fill="none" xmlns="http://www.w3.org/2000/svg">
<path opacity="0.4" d="M11.9991 21.9982C11.2301 21.9982 10.4621 21.7062 9.87508 21.1232L9.14508 20.3932C8.86208 20.1112 8.48308 19.9552 8.08108 19.9542H7.05408C5.39408 19.9542 4.04308 18.6032 4.04308 16.9432V15.9152C4.04208 15.5142 3.88608 15.1352 3.60308 14.8502L2.88508 14.1332C1.70908 12.9642 1.70408 11.0532 2.87408 9.8762L3.60408 9.1452C3.88608 8.8622 4.04208 8.4832 4.04308 8.0812V7.0552C4.04308 5.3942 5.39408 4.0432 7.05408 4.0432H8.08208C8.48308 4.0432 8.86108 3.8872 9.14608 3.6022L9.86508 2.8852C11.0341 1.7092 12.9441 1.7032 14.1221 2.8742L14.8521 3.6042C15.1361 3.8872 15.5141 4.0432 15.9151 4.0432H16.9431C18.6031 4.0432 19.9541 5.3942 19.9541 7.0552V8.0822C19.9551 8.4832 20.1111 8.8622 20.3941 9.1472L21.1121 9.8652C21.6811 10.4312 21.9961 11.1852 21.9991 11.9902C22.0011 12.7902 21.6931 13.5432 21.1321 14.1122C21.1221 14.1222 21.1131 14.1332 21.1031 14.1422L20.3931 14.8522C20.1111 15.1352 19.9551 15.5142 19.9541 15.9162V16.9432C19.9541 18.6032 18.6031 19.9542 16.9431 19.9542H15.9151C15.5141 19.9552 15.1351 20.1112 14.8511 20.3942L14.1321 21.1122C13.5461 21.7022 12.7721 21.9982 11.9991 21.9982Z" fill="#200E32"/>
<path fill-rule="evenodd" clip-rule="evenodd" d="M10.0428 10.0509C9.87782 10.2159 9.66382 10.3049 9.42682 10.3049C9.20482 10.3049 8.98682 10.2139 8.81182 10.0499C8.64582 9.8849 8.55182 9.6589 8.55182 9.4299C8.55182 9.2119 8.64382 8.9879 8.80582 8.8149C8.89482 8.7249 9.00082 8.6569 9.10682 8.6209C9.40882 8.4829 9.80982 8.5639 10.0478 8.8139C10.1328 8.8989 10.1978 8.9919 10.2408 9.0889C10.2878 9.1929 10.3118 9.3109 10.3118 9.4299C10.3118 9.6679 10.2168 9.8889 10.0428 10.0509ZM15.1905 8.8098C14.8495 8.4698 14.2945 8.4698 13.9535 8.8098L8.81352 13.9498C8.47252 14.2908 8.47252 14.8458 8.81352 15.1878C8.97952 15.3528 9.19852 15.4438 9.43252 15.4438C9.66652 15.4438 9.88552 15.3528 10.0505 15.1878L15.1905 10.0478C15.5315 9.7058 15.5315 9.1518 15.1905 8.8098ZM14.9058 13.7639C14.5818 13.6279 14.1978 13.7019 13.9418 13.9579C13.8888 14.0199 13.8138 14.1159 13.7628 14.2289C13.7088 14.3509 13.7018 14.4819 13.7018 14.5699C13.7018 14.6579 13.7088 14.7879 13.7628 14.9099C13.8128 15.0219 13.8728 15.1129 13.9518 15.1919C14.1328 15.3599 14.3428 15.4449 14.5768 15.4449C14.7988 15.4449 15.0168 15.3549 15.1958 15.1879C15.3548 15.0289 15.4418 14.8089 15.4418 14.5699C15.4418 14.3299 15.3548 14.1109 15.1948 13.9509C15.1068 13.8639 15.0008 13.7959 14.9058 13.7639Z" fill="#200E32"/>
</svg>
