<svg width="24" height="24" viewBox="0 0 24 24" fill="none" xmlns="http://www.w3.org/2000/svg">
<path opacity="0.4" d="M19.9926 18.9532H14.2983C13.7427 18.9532 13.2909 19.4123 13.2909 19.9766C13.2909 20.5421 13.7427 21 14.2983 21H19.9926C20.5481 21 21 20.5421 21 19.9766C21 19.4123 20.5481 18.9532 19.9926 18.9532Z" fill="#200E32"/>
<path d="M10.309 6.90388L15.7049 11.264C15.835 11.3682 15.8573 11.5596 15.7557 11.6929L9.35874 20.0282C8.95662 20.5431 8.36402 20.8345 7.72908 20.8452L4.23696 20.8882C4.05071 20.8904 3.88775 20.7614 3.84542 20.5765L3.05175 17.1258C2.91419 16.4916 3.05175 15.8358 3.45388 15.3306L9.88256 6.95548C9.98627 6.82111 10.1778 6.79746 10.309 6.90388Z" fill="#200E32"/>
<path opacity="0.4" d="M18.1206 8.66544L17.0804 9.96401C16.9756 10.0962 16.7872 10.1177 16.6571 10.0124C15.3925 8.98901 12.1543 6.36285 11.2559 5.63509C11.1247 5.52759 11.1067 5.33625 11.2125 5.20295L12.2157 3.95706C13.1258 2.78534 14.7131 2.67784 15.9936 3.69906L17.4645 4.87078C18.0677 5.34377 18.4698 5.96726 18.6074 6.62299C18.7661 7.3443 18.5968 8.0527 18.1206 8.66544Z" fill="#200E32"/>
</svg>
