<svg width="24" height="24" viewBox="0 0 24 24" fill="none" xmlns="http://www.w3.org/2000/svg">
<path d="M14.8572 13.7712L21.3629 7.2446C21.7699 6.83536 22 6.27641 22 5.69307V3.77888C22 2.5778 21.0471 2 19.8716 2H4.1284C2.95295 2 2 2.5778 2 3.77888V5.72745C2 6.27974 2.20513 6.81208 2.57524 7.21576L8.55234 13.7368C8.66522 13.86 8.8226 13.9298 8.98866 13.9309L14.435 13.9465C14.5924 13.9476 14.7443 13.8855 14.8572 13.7712Z" fill="#200E32"/>
<path opacity="0.4" d="M8.72925 13.873V21.2115C8.72925 21.4787 8.86383 21.7305 9.08416 21.8747C9.21006 21.9579 9.3555 22 9.50094 22C9.61056 22 9.72019 21.9767 9.82221 21.9301L14.2288 19.8762C14.5045 19.7487 14.6814 19.4681 14.6814 19.1587V13.873H8.72925Z" fill="#200E32"/>
</svg>
