<svg width="24" height="24" viewBox="0 0 24 24" fill="none" xmlns="http://www.w3.org/2000/svg">
<path opacity="0.4" d="M16.3328 22H7.66618C4.2769 22 2 19.6229 2 16.0843V7.91672C2 4.37811 4.2769 2 7.66618 2H16.3338C19.7231 2 22 4.37811 22 7.91672V16.0843C22 19.6229 19.7231 22 16.3328 22Z" fill="#200E32"/>
<path fill-rule="evenodd" clip-rule="evenodd" d="M11.245 8.675C11.245 10.045 10.13 11.16 8.75997 11.16C7.38897 11.16 6.27497 10.045 6.27497 8.675C6.27497 7.305 7.38897 6.189 8.75997 6.189C10.13 6.189 11.245 7.305 11.245 8.675ZM19.4004 14.0876C19.6334 14.3136 19.8004 14.5716 19.9104 14.8466C20.2434 15.6786 20.0704 16.6786 19.7144 17.5026C19.2924 18.4836 18.4844 19.2246 17.4664 19.5486C17.0144 19.6936 16.5404 19.7556 16.0674 19.7556H7.68637C6.85237 19.7556 6.11437 19.5616 5.50937 19.1976C5.13037 18.9696 5.06337 18.4446 5.34437 18.1026C5.81437 17.5326 6.27837 16.9606 6.74637 16.3836C7.63837 15.2796 8.23937 14.9596 8.90737 15.2406C9.17837 15.3566 9.45037 15.5316 9.73037 15.7156C10.4764 16.2096 11.5134 16.8876 12.8794 16.1516C13.8131 15.641 14.3551 14.7674 14.8269 14.0069L14.8364 13.9916C14.8681 13.9407 14.8996 13.8898 14.931 13.8391C15.0914 13.5799 15.2494 13.3246 15.4284 13.0896C15.6504 12.7986 16.4744 11.8886 17.5394 12.5366C18.2184 12.9446 18.7894 13.4966 19.4004 14.0876Z" fill="#200E32"/>
</svg>
