<svg width="24" height="24" viewBox="0 0 24 24" fill="none" xmlns="http://www.w3.org/2000/svg">
<path opacity="0.4" d="M7.2962 6.446C7.2962 3.995 9.356 2 11.8876 2H16.9199C19.4454 2 21.5 3.99 21.5 6.436V17.552C21.5 20.004 19.4413 22 16.9096 22H11.8773C9.35187 22 7.2962 20.009 7.2962 17.562V16.622V6.446Z" fill="#200E32"/>
<path d="M16.0374 11.4538L13.0695 8.5448C12.7627 8.2448 12.2691 8.2448 11.9634 8.5468C11.6587 8.8488 11.6597 9.3358 11.9654 9.6358L13.5905 11.2288H3.2821C2.85042 11.2288 2.5 11.5738 2.5 11.9998C2.5 12.4248 2.85042 12.7688 3.2821 12.7688H13.5905L11.9654 14.3628C11.6597 14.6628 11.6587 15.1498 11.9634 15.4518C12.1168 15.6028 12.3168 15.6788 12.518 15.6788C12.717 15.6788 12.9171 15.6028 13.0695 15.4538L16.0374 12.5448C16.1847 12.3998 16.268 12.2038 16.268 11.9998C16.268 11.7948 16.1847 11.5988 16.0374 11.4538Z" fill="#200E32"/>
</svg>
