<svg width="24" height="24" viewBox="0 0 24 24" fill="none" xmlns="http://www.w3.org/2000/svg">
<path opacity="0.4" d="M16.3401 1.9998H7.67012C4.28012 1.9998 2.00012 4.3798 2.00012 7.9198V16.0898C2.00012 19.6198 4.28012 21.9998 7.67012 21.9998H16.3401C19.7301 21.9998 22.0001 19.6198 22.0001 16.0898V7.9198C22.0001 4.3798 19.7301 1.9998 16.3401 1.9998Z" fill="#200E32"/>
<path fill-rule="evenodd" clip-rule="evenodd" d="M7.52118 10.8035C6.86018 10.8035 6.32318 11.3405 6.32318 11.9995C6.32318 12.6595 6.86018 13.1975 7.52118 13.1975C8.18218 13.1975 8.71918 12.6595 8.71918 11.9995C8.71918 11.3405 8.18218 10.8035 7.52118 10.8035ZM12.0002 10.8035C11.3392 10.8035 10.8022 11.3405 10.8022 11.9995C10.8022 12.6595 11.3392 13.1975 12.0002 13.1975C12.6612 13.1975 13.1982 12.6595 13.1982 11.9995C13.1982 11.3405 12.6612 10.8035 12.0002 10.8035ZM15.2817 11.9995C15.2817 11.3405 15.8187 10.8035 16.4797 10.8035C17.1407 10.8035 17.6777 11.3405 17.6777 11.9995C17.6777 12.6595 17.1407 13.1975 16.4797 13.1975C15.8187 13.1975 15.2817 12.6595 15.2817 11.9995Z" fill="#200E32"/>
</svg>
