<svg width="24" height="24" viewBox="0 0 24 24" fill="none" xmlns="http://www.w3.org/2000/svg">
<path opacity="0.4" d="M18.8089 9.021C18.3574 9.021 17.7594 9.011 17.0149 9.011C15.199 9.011 13.7059 7.508 13.7059 5.675V2.459C13.7059 2.206 13.503 2 13.2525 2H7.96436C5.49604 2 3.5 4.026 3.5 6.509V17.284C3.5 19.889 5.59109 22 8.1703 22H16.0455C18.5059 22 20.5 19.987 20.5 17.502V9.471C20.5 9.217 20.298 9.012 20.0465 9.013C19.6238 9.016 19.1168 9.021 18.8089 9.021Z" fill="#200E32"/>
<path opacity="0.4" d="M16.0843 2.5673C15.7853 2.2563 15.2633 2.4703 15.2633 2.9013V5.5383C15.2633 6.6443 16.1733 7.5543 17.2793 7.5543C17.9773 7.5623 18.9453 7.5643 19.7673 7.5623C20.1883 7.5613 20.4023 7.0583 20.1103 6.7543C19.0553 5.6573 17.1663 3.6913 16.0843 2.5673Z" fill="#200E32"/>
<path d="M15.1053 12.7089C14.8133 12.4199 14.3433 12.4179 14.0513 12.7109L12.4623 14.3079V9.4809C12.4623 9.0699 12.1283 8.7359 11.7173 8.7359C11.3063 8.7359 10.9723 9.0699 10.9723 9.4809V14.3079L9.3823 12.7109C9.0913 12.4179 8.6203 12.4199 8.3293 12.7089C8.0373 12.9989 8.0373 13.4699 8.3263 13.7619L11.1893 16.6379H11.1903C11.2583 16.7059 11.3393 16.7609 11.4303 16.7989C11.5203 16.8359 11.6183 16.8559 11.7173 16.8559C11.8173 16.8559 11.9153 16.8359 12.0053 16.7979C12.0943 16.7609 12.1753 16.7059 12.2433 16.6389L12.2453 16.6379L15.1073 13.7619C15.3973 13.4699 15.3973 12.9989 15.1053 12.7089Z" fill="#200E32"/>
</svg>
