<svg width="24" height="24" viewBox="0 0 24 24" fill="none" xmlns="http://www.w3.org/2000/svg">
<path opacity="0.4" d="M18.8088 9.021C18.3573 9.021 17.7592 9.011 17.0146 9.011C15.1987 9.011 13.7055 7.508 13.7055 5.675V2.459C13.7055 2.206 13.5026 2 13.253 2H7.96363C5.49517 2 3.5 4.026 3.5 6.509V17.284C3.5 19.889 5.59022 22 8.16958 22H16.0453C18.5058 22 20.5 19.987 20.5 17.502V9.471C20.5 9.217 20.298 9.012 20.0465 9.013C19.6247 9.016 19.1168 9.021 18.8088 9.021Z" fill="#200E32"/>
<path opacity="0.4" d="M16.0842 2.5673C15.7852 2.2563 15.2632 2.4703 15.2632 2.9013V5.5383C15.2632 6.6443 16.1742 7.5543 17.2792 7.5543C17.9772 7.5623 18.9452 7.5643 19.7672 7.5623C20.1882 7.5613 20.4022 7.0583 20.1102 6.7543C19.0552 5.6573 17.1662 3.6913 16.0842 2.5673Z" fill="#200E32"/>
<path d="M15.1052 12.8837C14.8142 13.1727 14.3432 13.1747 14.0512 12.8817L12.4622 11.2847V16.1117C12.4622 16.5227 12.1282 16.8567 11.7172 16.8567C11.3062 16.8567 10.9732 16.5227 10.9732 16.1117V11.2847L9.38223 12.8817C9.09223 13.1747 8.62023 13.1727 8.32923 12.8837C8.03823 12.5947 8.03723 12.1227 8.32723 11.8307L11.1892 8.9557C11.1902 8.9547 11.1902 8.9547 11.1902 8.9547C11.2582 8.8867 11.3402 8.8317 11.4302 8.7947C11.5202 8.7567 11.6182 8.7367 11.7172 8.7367C11.8172 8.7367 11.9152 8.7567 12.0052 8.7947C12.0942 8.8317 12.1752 8.8867 12.2432 8.9537C12.2442 8.9547 12.2452 8.9547 12.2452 8.9557L15.1072 11.8307C15.3972 12.1227 15.3972 12.5947 15.1052 12.8837Z" fill="#200E32"/>
</svg>
