<svg width="24" height="24" viewBox="0 0 24 24" fill="none" xmlns="http://www.w3.org/2000/svg">
<path opacity="0.4" d="M18.8088 9.021C18.3573 9.021 17.7592 9.011 17.0146 9.011C15.1987 9.011 13.7055 7.508 13.7055 5.675V2.459C13.7055 2.206 13.5036 2 13.253 2H7.96363C5.49517 2 3.5 4.026 3.5 6.509V17.284C3.5 19.889 5.59022 22 8.16958 22H16.0463C18.5058 22 20.5 19.987 20.5 17.502V9.471C20.5 9.217 20.299 9.012 20.0475 9.013C19.6247 9.016 19.1177 9.021 18.8088 9.021Z" fill="#200E32"/>
<path opacity="0.4" d="M16.084 2.5673C15.785 2.2563 15.263 2.4703 15.263 2.9013V5.5383C15.263 6.6443 16.174 7.5543 17.28 7.5543C17.977 7.5623 18.945 7.5643 19.767 7.5623C20.188 7.5613 20.402 7.0583 20.11 6.7543C19.055 5.6573 17.166 3.6913 16.084 2.5673Z" fill="#200E32"/>
<path fill-rule="evenodd" clip-rule="evenodd" d="M8.97389 11.3876H12.3589C12.7699 11.3876 13.1039 11.0546 13.1039 10.6436C13.1039 10.2326 12.7699 9.8986 12.3589 9.8986H8.97389C8.56289 9.8986 8.22989 10.2326 8.22989 10.6436C8.22989 11.0546 8.56289 11.3876 8.97389 11.3876ZM8.97399 16.3818H14.418C14.829 16.3818 15.163 16.0488 15.163 15.6378C15.163 15.2268 14.829 14.8928 14.418 14.8928H8.97399C8.56299 14.8928 8.22999 15.2268 8.22999 15.6378C8.22999 16.0488 8.56299 16.3818 8.97399 16.3818Z" fill="#200E32"/>
</svg>
