<svg width="24" height="24" viewBox="0 0 24 24" fill="none" xmlns="http://www.w3.org/2000/svg">
<path opacity="0.4" d="M16.3344 1.9998H7.66543C4.27643 1.9998 2.00043 4.3778 2.00043 7.9168V16.0838C2.00043 19.6218 4.27643 21.9998 7.66543 21.9998H16.3334C19.7224 21.9998 22.0004 19.6218 22.0004 16.0838V7.9168C22.0004 4.3778 19.7234 1.9998 16.3344 1.9998Z" fill="#200E32"/>
<path fill-rule="evenodd" clip-rule="evenodd" d="M11.3143 11.2485H17.0143C17.4243 11.2485 17.7643 11.5885 17.7643 11.9985V13.8485C17.7643 14.2685 17.4243 14.5985 17.0143 14.5985C16.5943 14.5985 16.2643 14.2685 16.2643 13.8485V12.7485H14.9343V13.8485C14.9343 14.2685 14.5943 14.5985 14.1843 14.5985C13.7643 14.5985 13.4343 14.2685 13.4343 13.8485V12.7485H11.3143C10.9943 13.8185 10.0143 14.5985 8.84425 14.5985C7.40425 14.5985 6.23425 13.4385 6.23425 11.9985C6.23425 10.5685 7.40425 9.3985 8.84425 9.3985C10.0143 9.3985 10.9943 10.1785 11.3143 11.2485ZM7.73425 11.9985C7.73425 12.6085 8.23425 13.0985 8.84425 13.0985C9.44425 13.0985 9.94425 12.6085 9.94425 11.9985C9.94425 11.3885 9.44425 10.8985 8.84425 10.8985C8.23425 10.8985 7.73425 11.3885 7.73425 11.9985Z" fill="#200E32"/>
</svg>
