<svg width="24" height="24" viewBox="0 0 24 24" fill="none" xmlns="http://www.w3.org/2000/svg">
<path d="M12.012 14.8301C10.4075 14.8301 9.1096 13.5801 9.1096 12.0101C9.1096 10.4401 10.4075 9.1801 12.012 9.1801C13.6164 9.1801 14.8837 10.4401 14.8837 12.0101C14.8837 13.5801 13.6164 14.8301 12.012 14.8301Z" fill="#200E32"/>
<path opacity="0.4" d="M21.23 14.3701C21.0359 14.0701 20.7599 13.7701 20.4022 13.5801C20.1161 13.4401 19.9321 13.2101 19.7686 12.9401C19.2474 12.0801 19.554 10.9501 20.4227 10.4401C21.4446 9.8701 21.7717 8.6001 21.1789 7.6101L20.4942 6.4301C19.9117 5.4401 18.6343 5.0901 17.6225 5.6701C16.7232 6.1501 15.5684 5.8301 15.0472 4.9801C14.8837 4.7001 14.7917 4.4001 14.8121 4.1001C14.8428 3.7101 14.7202 3.3401 14.5362 3.0401C14.1581 2.4201 13.4734 2.0001 12.7171 2.0001H11.2762C10.5301 2.0201 9.84542 2.4201 9.46729 3.0401C9.27312 3.3401 9.16071 3.7101 9.18115 4.1001C9.20159 4.4001 9.10961 4.7001 8.9461 4.9801C8.4249 5.8301 7.27009 6.1501 6.38098 5.6701C5.35903 5.0901 4.0918 5.4401 3.49906 6.4301L2.81435 7.6101C2.23184 8.6001 2.55886 9.8701 3.5706 10.4401C4.43926 10.9501 4.74585 12.0801 4.23487 12.9401C4.06114 13.2101 3.87719 13.4401 3.59104 13.5801C3.24357 13.7701 2.93699 14.0701 2.77347 14.3701C2.39535 14.9901 2.41579 15.7701 2.79391 16.4201L3.49906 17.6201C3.87719 18.2601 4.58234 18.6601 5.31815 18.6601C5.66561 18.6601 6.0744 18.5601 6.40142 18.3601C6.65691 18.1901 6.9635 18.1301 7.30075 18.1301C8.31248 18.1301 9.16071 18.9601 9.18115 19.9501C9.18115 21.1001 10.1213 22.0001 11.3068 22.0001H12.6967C13.8719 22.0001 14.8121 21.1001 14.8121 19.9501C14.8428 18.9601 15.691 18.1301 16.7028 18.1301C17.0298 18.1301 17.3364 18.1901 17.6021 18.3601C17.9291 18.5601 18.3277 18.6601 18.6854 18.6601C19.4109 18.6601 20.1161 18.2601 20.4942 17.6201L21.2096 16.4201C21.5775 15.7501 21.6081 14.9901 21.23 14.3701Z" fill="#200E32"/>
</svg>
