<svg width="24" height="24" viewBox="0 0 24 24" fill="none" xmlns="http://www.w3.org/2000/svg">
<path opacity="0.4" d="M12.086 22C11.9622 22 11.8394 21.9716 11.7276 21.9137L8.1263 20.0496C7.10339 19.5201 6.304 18.9259 5.68079 18.2336C4.31356 16.7195 3.55444 14.776 3.54135 12.7599L3.50007 6.12426C3.49503 5.35842 3.98836 4.67103 4.72735 4.41215L11.34 2.10679C11.7336 1.96656 12.1716 1.9646 12.5703 2.09992L19.2081 4.32684C19.9511 4.57493 20.4535 5.25742 20.4575 6.02228L20.4998 12.6628C20.5129 14.676 19.78 16.6274 18.4349 18.1581C17.8167 18.8602 17.0254 19.4632 16.0135 20.0025L12.4444 21.9088C12.3337 21.9686 12.2099 21.999 12.086 22Z" fill="#200E32"/>
<path d="M13.0678 11.7249L14.4259 10.4021C14.7209 10.1148 14.7209 9.64997 14.4259 9.36266C14.1309 9.07534 13.6527 9.07534 13.3577 9.36266L11.9996 10.6845L10.6424 9.36266C10.3474 9.07534 9.86917 9.07534 9.57418 9.36266C9.27919 9.64997 9.27919 10.1148 9.57418 10.4021L10.9323 11.7249L9.57418 13.0477C9.27919 13.335 9.27919 13.7998 9.57418 14.0871C9.72218 14.2313 9.91548 14.3029 10.1088 14.3029C10.3011 14.3029 10.4944 14.2313 10.6424 14.0871L11.9996 12.7653L13.3577 14.0871C13.5057 14.2313 13.698 14.3029 13.8913 14.3029C14.0846 14.3029 14.2779 14.2313 14.4259 14.0871C14.7209 13.7998 14.7209 13.335 14.4259 13.0477L13.0678 11.7249Z" fill="#200E32"/>
</svg>
