<svg width="24" height="24" viewBox="0 0 24 24" fill="none" xmlns="http://www.w3.org/2000/svg">
<path opacity="0.4" d="M6.70555 12.8905C6.18944 12.8905 5.77163 13.3146 5.77163 13.8383L5.51416 18.4171C5.51416 19.0846 6.04783 19.625 6.70555 19.625C7.36328 19.625 7.89577 19.0846 7.89577 18.4171L7.63947 13.8383C7.63947 13.3146 7.22167 12.8905 6.70555 12.8905Z" fill="#200E32"/>
<path d="M7.98037 3.67345C7.98037 3.67345 7.71236 3.39789 7.54618 3.27793C7.30509 3.09264 7.00783 3 6.71173 3C6.37936 3 6.07039 3.10452 5.81877 3.30169C5.77313 3.34801 5.57886 3.5226 5.41852 3.68532C4.41204 4.6367 2.76539 7.12026 2.26215 8.42083C2.18257 8.618 2.01053 9.11685 2 9.38409C2 9.63827 2.05618 9.88294 2.17087 10.1145C2.3312 10.4044 2.58282 10.6372 2.88009 10.7642C3.08606 10.8462 3.70282 10.9733 3.71453 10.9733C4.38981 11.1016 5.48757 11.1704 6.70003 11.1704C7.85514 11.1704 8.90727 11.1016 9.59308 10.997C9.60478 10.9852 10.3702 10.8581 10.6335 10.7179C11.1133 10.4626 11.4118 9.96371 11.4118 9.43041V9.38409C11.4001 9.03608 11.1016 8.30444 11.0911 8.30444C10.5879 7.07394 9.02079 4.64858 7.98037 3.67345Z" fill="#200E32"/>
<path opacity="0.4" d="M17.2947 11.1096C17.8108 11.1096 18.2286 10.6856 18.2286 10.1618L18.4849 5.58296C18.4849 4.91543 17.9524 4.375 17.2947 4.375C16.637 4.375 16.1033 4.91543 16.1033 5.58296L16.3608 10.1618C16.3608 10.6856 16.7786 11.1096 17.2947 11.1096Z" fill="#200E32"/>
<path d="M21.8292 13.8853C21.6688 13.5955 21.4172 13.3639 21.1199 13.2356C20.914 13.1536 20.296 13.0265 20.2855 13.0265C19.6102 12.8983 18.5124 12.8294 17.3 12.8294C16.1449 12.8294 15.0928 12.8983 14.4069 13.0028C14.3952 13.0147 13.6298 13.1429 13.3665 13.2819C12.8855 13.5373 12.5883 14.0361 12.5883 14.5706V14.617C12.6 14.965 12.8972 15.6955 12.9089 15.6955C13.4122 16.926 14.9781 19.3526 16.0197 20.3265C16.0197 20.3265 16.2877 20.6021 16.4538 20.7209C16.6938 20.9074 16.991 21 17.2895 21C17.6207 21 17.9285 20.8955 18.1812 20.6983C18.2269 20.652 18.4212 20.4774 18.5815 20.3158C19.5868 19.3633 21.2346 16.8797 21.7367 15.5802C21.8175 15.3831 21.9895 14.883 22 14.617C22 14.3616 21.9438 14.1169 21.8292 13.8853Z" fill="#200E32"/>
</svg>
