<svg width="24" height="24" viewBox="0 0 24 24" fill="none" xmlns="http://www.w3.org/2000/svg">
<path opacity="0.4" d="M21.25 13.4764C20.429 13.4764 19.761 12.8145 19.761 12.001C19.761 11.1865 20.429 10.5246 21.25 10.5246C21.449 10.5246 21.64 10.4463 21.78 10.3076C21.921 10.1679 22 9.97864 22 9.78146L21.999 7.10415C21.999 4.84102 20.14 3 17.856 3H6.144C3.86 3 2.001 4.84102 2.001 7.10415L2 9.86766C2 10.0648 2.079 10.2541 2.22 10.3938C2.36 10.5325 2.551 10.6108 2.75 10.6108C3.599 10.6108 4.239 11.2083 4.239 12.001C4.239 12.8145 3.571 13.4764 2.75 13.4764C2.336 13.4764 2 13.8093 2 14.2195V16.8949C2 19.158 3.858 21 6.143 21H17.857C20.142 21 22 19.158 22 16.8949V14.2195C22 13.8093 21.664 13.4764 21.25 13.4764Z" fill="#200E32"/>
<path d="M15.4305 11.5886L14.2515 12.7366L14.5305 14.3596C14.5785 14.6406 14.4655 14.9176 14.2345 15.0836C14.0055 15.2516 13.7065 15.2726 13.4545 15.1386L11.9995 14.3736L10.5415 15.1396C10.4335 15.1966 10.3155 15.2266 10.1985 15.2266C10.0455 15.2266 9.89449 15.1786 9.76449 15.0846C9.53449 14.9176 9.42149 14.6406 9.46949 14.3596L9.74749 12.7366L8.56849 11.5886C8.36449 11.3906 8.29349 11.0996 8.38149 10.8286C8.47049 10.5586 8.70049 10.3666 8.98149 10.3266L10.6075 10.0896L11.3365 8.6126C11.4635 8.3586 11.7175 8.2006 11.9995 8.2006H12.0015C12.2845 8.2016 12.5385 8.3596 12.6635 8.6136L13.3925 10.0896L15.0215 10.3276C15.2995 10.3666 15.5295 10.5586 15.6175 10.8286C15.7065 11.0996 15.6355 11.3906 15.4305 11.5886Z" fill="#200E32"/>
</svg>
