<svg width="24" height="24" viewBox="0 0 24 24" fill="none" xmlns="http://www.w3.org/2000/svg">
<path opacity="0.4" d="M13.7505 9.70302V7.68317C13.354 7.68317 13.0251 7.36375 13.0251 6.97857V4.57355C13.0251 4.25319 12.764 4.00047 12.4352 4.00047H5.7911C3.70213 4.00047 2 5.65299 2 7.68317V10.1154C2 10.3043 2.07737 10.4828 2.21277 10.6143C2.34816 10.7449 2.53191 10.82 2.72534 10.82C3.46035 10.82 4.02128 11.3273 4.02128 11.9944C4.02128 12.6905 3.45068 13.2448 2.73501 13.2532C2.33849 13.2532 2 13.5257 2 13.9203V16.3262C2 18.3555 3.70213 19.9995 5.78143 19.9995H12.4352C12.764 19.9995 13.0251 19.7449 13.0251 19.4265V17.3963C13.0251 17.0026 13.354 16.6917 13.7505 16.6917V14.8701C13.354 14.8701 13.0251 14.5497 13.0251 14.1655V10.4076C13.0251 10.0224 13.354 9.70302 13.7505 9.70302Z" fill="#200E32"/>
<path d="M19.9787 11.9948C19.9787 12.69 20.559 13.2443 21.265 13.2537C21.6615 13.2537 22 13.5262 22 13.9113V16.3258C22 18.3559 20.3075 20 18.2186 20H15.0658C14.7466 20 14.4758 19.7454 14.4758 19.426V17.3967C14.4758 17.0022 14.1567 16.6921 13.7505 16.6921V14.8705C14.1567 14.8705 14.4758 14.5502 14.4758 14.1659V10.4081C14.4758 10.022 14.1567 9.70348 13.7505 9.70348V7.6827C14.1567 7.6827 14.4758 7.36328 14.4758 6.9781V4.57401C14.4758 4.25366 14.7466 4 15.0658 4H18.2186C20.3075 4 22 5.64406 22 7.6733V10.0407C22 10.2286 21.9226 10.4081 21.7872 10.5387C21.6518 10.6702 21.4681 10.7453 21.2747 10.7453C20.559 10.7453 19.9787 11.31 19.9787 11.9948Z" fill="#200E32"/>
</svg>
