<svg width="24" height="24" viewBox="0 0 24 24" fill="none" xmlns="http://www.w3.org/2000/svg">
<path opacity="0.4" d="M8.23906 8.70907V7.36726C8.24922 5.37044 9.92585 3.73939 11.9988 3.73939C13.5839 3.73939 15.0065 4.72339 15.5248 6.19541C15.6975 6.65262 16.2056 6.89017 16.6628 6.73213C16.8864 6.66156 17.0693 6.50253 17.1709 6.29381C17.2725 6.08508 17.2929 5.84654 17.2116 5.62787C16.4393 3.46208 14.3461 2 11.9784 2C8.95036 2 6.48114 4.41626 6.46082 7.38714V8.91084L8.23906 8.70907Z" fill="#200E32"/>
<path fill-rule="evenodd" clip-rule="evenodd" d="M7.7688 8.71106H16.2312C18.5886 8.71106 20.5 10.5807 20.5 12.8866V17.8245C20.5 20.1304 18.5886 22 16.2312 22H7.7688C5.41136 22 3.5 20.1304 3.5 17.8245V12.8866C3.5 10.5807 5.41136 8.71106 7.7688 8.71106ZM11.9949 17.3285C12.4928 17.3285 12.8891 16.9409 12.8891 16.4538V14.2473C12.8891 13.7702 12.4928 13.3826 11.9949 13.3826C11.5072 13.3826 11.1109 13.7702 11.1109 14.2473V16.4538C11.1109 16.9409 11.5072 17.3285 11.9949 17.3285Z" fill="#200E32"/>
</svg>
