<svg width="24" height="24" viewBox="0 0 24 24" fill="none" xmlns="http://www.w3.org/2000/svg">
<path opacity="0.4" d="M6.447 22C3.996 22 2 19.9698 2 17.4755V12.5144C2 10.0252 3.99 8 6.437 8L17.553 8C20.005 8 22 10.0302 22 12.5256V17.4846C22 19.9748 20.01 22 17.563 22H16.623H6.447Z" fill="#200E32"/>
<path d="M11.4548 2.22108L8.5458 5.06687C8.2458 5.36099 8.2458 5.83431 8.5478 6.12746C8.8498 6.41964 9.3368 6.41866 9.6368 6.12552L11.2298 4.56627V6.06124V14.4515C11.2298 14.8655 11.5748 15.2015 11.9998 15.2015C12.4258 15.2015 12.7698 14.8655 12.7698 14.4515V4.56627L14.3628 6.12552C14.6628 6.41866 15.1498 6.41964 15.4518 6.12746C15.6028 5.9804 15.6788 5.78854 15.6788 5.5957C15.6788 5.40482 15.6028 5.21295 15.4538 5.06687L12.5458 2.22108C12.4008 2.07986 12.2048 2 11.9998 2C11.7958 2 11.5998 2.07986 11.4548 2.22108Z" fill="#200E32"/>
</svg>
