<svg width="24" height="24" viewBox="0 0 24 24" fill="none" xmlns="http://www.w3.org/2000/svg">
<path d="M11.825 15.2171H12.1748C14.0986 15.2171 15.7309 13.985 16.3054 12.2764C16.3887 12.0276 16.1978 11.7713 15.9334 11.7713H14.8562C14.5132 11.7713 14.2362 11.4977 14.2362 11.16C14.2362 10.8213 14.5132 10.5467 14.8562 10.5467H15.9004C16.2463 10.5467 16.5262 10.2703 16.5262 9.92875C16.5262 9.58722 16.2463 9.31075 15.9004 9.31075H14.8562C14.5132 9.31075 14.2362 9.03619 14.2362 8.69849C14.2362 8.35984 14.5132 8.08528 14.8562 8.08528H15.9004C16.2463 8.08528 16.5262 7.8088 16.5262 7.46728C16.5262 7.12575 16.2463 6.84928 15.9004 6.84928H14.8562C14.5132 6.84928 14.2362 6.57472 14.2362 6.23606C14.2362 5.89837 14.5132 5.62381 14.8562 5.62381H15.9886C16.2482 5.62381 16.4342 5.3789 16.3645 5.13113C15.8501 3.32401 14.1693 2 12.1748 2H11.825C9.42166 2 7.47358 3.92287 7.47358 6.29729V10.9198C7.47358 13.2933 9.42166 15.2171 11.825 15.2171Z" fill="#200E32"/>
<path opacity="0.4" d="M19.5313 9.82562C18.9966 9.82562 18.5626 10.2532 18.5626 10.7823C18.5626 14.3554 15.6186 17.2627 12.0005 17.2627C8.38136 17.2627 5.43743 14.3554 5.43743 10.7823C5.43743 10.2532 5.00345 9.82562 4.46872 9.82562C3.93398 9.82562 3.5 10.2532 3.5 10.7823C3.5 15.0872 6.79945 18.6412 11.0318 19.1186V21.0433C11.0318 21.5714 11.4648 22 12.0005 22C12.5352 22 12.9692 21.5714 12.9692 21.0433V19.1186C17.2006 18.6412 20.5 15.0872 20.5 10.7823C20.5 10.2532 20.066 9.82562 19.5313 9.82562Z" fill="#200E32"/>
</svg>
