<svg width="24" height="24" viewBox="0 0 24 24" fill="none" xmlns="http://www.w3.org/2000/svg">
<path d="M13.3571 6.45057C13.3068 5.96423 13.2543 5.45964 13.1254 4.95612C12.7741 3.75154 11.801 3.00002 10.7576 3.00002C10.1757 2.99787 9.43954 3.35645 9.0222 3.71933L5.56287 6.61698H3.75194C2.41918 6.61698 1.34751 7.64441 1.14513 9.12705C0.973161 10.5506 0.931217 13.2379 1.14513 14.8043C1.33073 16.3706 2.35416 17.383 3.75194 17.383H5.56287L9.08931 20.3236C9.45107 20.6382 10.0897 20.9989 10.6769 20.9989C10.7146 21 10.7482 21 10.7817 21C11.845 21 12.7814 20.2206 13.1327 19.0192C13.2659 18.5082 13.312 18.0293 13.3571 17.5666L13.4043 17.1082C13.5846 15.6213 13.5846 8.36909 13.4043 6.89289L13.3571 6.45057Z" fill="#200E32"/>
<path opacity="0.4" d="M17.4066 6.49459C17.1182 6.06944 16.5467 5.96315 16.1283 6.25839C15.7141 6.55578 15.6114 7.14197 15.8997 7.56604C16.7019 8.74807 17.1434 10.322 17.1434 12C17.1434 13.677 16.7019 15.2519 15.8997 16.434C15.6114 16.858 15.7141 17.4442 16.1294 17.7416C16.2846 17.8511 16.466 17.9091 16.6526 17.9091C16.9536 17.9091 17.2346 17.7577 17.4066 17.5054C18.4195 16.0131 18.9784 14.0581 18.9784 12C18.9784 9.94192 18.4195 7.98689 17.4066 6.49459Z" fill="#200E32"/>
<path opacity="0.4" d="M20.5672 3.45727C20.281 3.03319 19.7074 2.92476 19.29 3.22107C18.8759 3.51846 18.7731 4.10465 19.0604 4.52872C20.4173 6.52776 21.1649 9.1817 21.1649 11.9999C21.1649 14.8192 20.4173 17.4731 19.0604 19.4722C18.7731 19.8973 18.8759 20.4824 19.2911 20.7798C19.4463 20.8893 19.6266 20.9473 19.8133 20.9473C20.1142 20.9473 20.3963 20.7959 20.5672 20.5436C22.1359 18.2343 23 15.2003 23 11.9999C23 8.80165 22.1359 5.76658 20.5672 3.45727Z" fill="#200E32"/>
</svg>
